<svg width="317" height="77" viewBox="0 0 317 77" fill="none" xmlns="http://www.w3.org/2000/svg">
<rect width="317" height="77" rx="15" fill="#E8E1C4"/>
<g clip-path="url(#clip0_215_628)">
<path d="M278.5 52.0833C286.554 52.0833 293.083 45.5541 293.083 37.5C293.083 29.4458 286.554 22.9166 278.5 22.9166C270.446 22.9166 263.917 29.4458 263.917 37.5C263.917 45.5541 270.446 52.0833 278.5 52.0833Z" stroke="#757575" stroke-width="4" stroke-linecap="round" stroke-linejoin="round"/>
<path d="M275.583 31.6666L284.333 37.5L275.583 43.3333V31.6666Z" stroke="#757575" stroke-width="4" stroke-linecap="round" stroke-linejoin="round"/>
</g>
<path d="M65.1 13.92H76.48V15.26H65.1V13.92ZM64.4 21.56H77.16V22.92H64.4V21.56ZM66.06 24.58H75.8V31.54H74.32V25.92H67.5V31.6H66.06V24.58ZM66.78 29.5H74.92V30.82H66.78V29.5ZM69.3 14.44L70.8 14.6C70.6533 15.4267 70.4733 16.32 70.26 17.28C70.0467 18.2267 69.8333 19.1467 69.62 20.04C69.42 20.92 69.24 21.68 69.08 22.32H67.5C67.6467 21.8267 67.8 21.2533 67.96 20.6C68.1333 19.9467 68.3 19.2667 68.46 18.56C68.62 17.8533 68.7733 17.1467 68.92 16.44C69.0667 15.72 69.1933 15.0533 69.3 14.44ZM65.82 17.52H74.12V18.82H65.82V17.52ZM73.76 17.52H73.9L74.14 17.44L75.2 17.54C75.1467 18.2867 75.0733 19.0867 74.98 19.94C74.9 20.7933 74.8133 21.5733 74.72 22.28L73.3 22.18C73.3667 21.6867 73.4267 21.1667 73.48 20.62C73.5467 20.06 73.6 19.52 73.64 19C73.6933 18.48 73.7333 18.0467 73.76 17.7V17.52ZM59.96 14.66L60.92 13.74C61.28 14.0333 61.6533 14.36 62.04 14.72C62.44 15.08 62.8133 15.4333 63.16 15.78C63.52 16.1267 63.8 16.44 64 16.72L62.98 17.8C62.7667 17.5067 62.4933 17.18 62.16 16.82C61.8267 16.4467 61.4667 16.0733 61.08 15.7C60.6933 15.3133 60.32 14.9667 59.96 14.66ZM58.9 19.46H62.48V20.92H58.9V19.46ZM61.72 31L61.5 29.6L61.94 28.98L65.48 26.64C65.52 26.8267 65.58 27.0467 65.66 27.3C65.74 27.54 65.8133 27.74 65.88 27.9C65.04 28.4733 64.36 28.9467 63.84 29.32C63.3333 29.68 62.9333 29.9667 62.64 30.18C62.36 30.3933 62.1533 30.5533 62.02 30.66C61.9 30.78 61.8 30.8933 61.72 31ZM61.72 31C61.68 30.8667 61.6133 30.7133 61.52 30.54C61.44 30.38 61.3467 30.22 61.24 30.06C61.1333 29.9 61.04 29.7667 60.96 29.66C61.1067 29.5533 61.26 29.3867 61.42 29.16C61.5933 28.92 61.68 28.5933 61.68 28.18V19.46H63.08V29.52C63.08 29.52 63.0133 29.5733 62.88 29.68C62.7467 29.7733 62.5867 29.8933 62.4 30.04C62.2133 30.2 62.0533 30.36 61.92 30.52C61.7867 30.6933 61.72 30.8533 61.72 31ZM80.24 15.02H95.94V16.38H80.24V15.02ZM79.1 19.72H96.92V21.08H79.1V19.72ZM82.78 26.2H93.36V27.4H82.78V26.2ZM82.8 29.58H93.38V30.86H82.8V29.58ZM87.18 13.2H88.74V15.78H87.18V13.2ZM82.04 22.82H94.24V31.56H92.68V24.1H83.52V31.62H82.04V22.82ZM91.7 16.32L93.32 16.72C93.0533 17.2533 92.7733 17.8067 92.48 18.38C92.2 18.94 91.9333 19.42 91.68 19.82L90.3 19.44C90.46 19.16 90.6267 18.84 90.8 18.48C90.9733 18.1067 91.14 17.7333 91.3 17.36C91.46 16.9733 91.5933 16.6267 91.7 16.32ZM83 16.72L84.42 16.4C84.74 16.8667 85.02 17.3867 85.26 17.96C85.5 18.52 85.66 19.0067 85.74 19.42L84.2 19.82C84.12 19.38 83.9667 18.8733 83.74 18.3C83.5267 17.7133 83.28 17.1867 83 16.72ZM105.3 29.42H114.94V30.8H105.3V29.42ZM104.6 15.2H111.94V16.56H104.6V15.2ZM105.5 13.14L107.2 13.46C106.693 14.3267 106.087 15.2 105.38 16.08C104.673 16.9467 103.86 17.7867 102.94 18.6C102.02 19.4133 100.98 20.16 99.82 20.84C99.7533 20.72 99.6533 20.5867 99.52 20.44C99.4 20.2933 99.2733 20.1533 99.14 20.02C99.0067 19.8733 98.88 19.76 98.76 19.68C99.8533 19.08 100.833 18.4133 101.7 17.68C102.58 16.9333 103.333 16.1733 103.96 15.4C104.6 14.6133 105.113 13.86 105.5 13.14ZM111.44 15.2H111.74L112 15.12L113 15.68C112.4 17.1867 111.62 18.5667 110.66 19.82C109.7 21.0733 108.613 22.1933 107.4 23.18C106.2 24.1667 104.927 25.0267 103.58 25.76C102.247 26.48 100.893 27.06 99.52 27.5C99.4667 27.3667 99.3867 27.2133 99.28 27.04C99.1867 26.8667 99.08 26.7 98.96 26.54C98.8533 26.38 98.7533 26.2533 98.66 26.16C99.9533 25.7867 101.247 25.2667 102.54 24.6C103.833 23.9333 105.053 23.14 106.2 22.22C107.36 21.3 108.393 20.2733 109.3 19.14C110.22 18.0067 110.933 16.7867 111.44 15.48V15.2ZM102.12 18.76L103.22 17.82C103.753 18.1667 104.3 18.5667 104.86 19.02C105.433 19.4733 105.967 19.9267 106.46 20.38C106.953 20.8333 107.353 21.2533 107.66 21.64L106.44 22.7C106.16 22.3133 105.78 21.8867 105.3 21.42C104.82 20.9533 104.3 20.4867 103.74 20.02C103.18 19.5533 102.64 19.1333 102.12 18.76ZM114.22 23.08H115.76V31.64H114.22V23.08ZM105.98 23.08H114.98V24.46H105.98V31.6H104.48V24.28L105.68 23.08H105.98ZM122.24 14.86H123.72V31.56H122.24V14.86ZM118.98 18.84H126.22V20.24H118.98V18.84ZM122.32 19.38L123.26 19.78C123.06 20.4867 122.813 21.22 122.52 21.98C122.227 22.7267 121.907 23.4733 121.56 24.22C121.227 24.9533 120.867 25.6467 120.48 26.3C120.107 26.94 119.727 27.4867 119.34 27.94C119.26 27.74 119.14 27.5067 118.98 27.24C118.833 26.9733 118.693 26.7467 118.56 26.56C118.933 26.16 119.3 25.68 119.66 25.12C120.02 24.56 120.367 23.9533 120.7 23.3C121.047 22.6467 121.36 21.9867 121.64 21.32C121.92 20.64 122.147 19.9933 122.32 19.38ZM125.22 13.48L126.26 14.64C125.647 14.88 124.947 15.1067 124.16 15.32C123.373 15.5333 122.56 15.72 121.72 15.88C120.893 16.0267 120.087 16.1533 119.3 16.26C119.273 16.1 119.213 15.9133 119.12 15.7C119.027 15.4733 118.94 15.28 118.86 15.12C119.607 14.9867 120.373 14.84 121.16 14.68C121.96 14.52 122.713 14.34 123.42 14.14C124.127 13.9267 124.727 13.7067 125.22 13.48ZM123.64 21.4C123.773 21.52 123.967 21.7133 124.22 21.98C124.487 22.2333 124.773 22.5133 125.08 22.82C125.387 23.1133 125.66 23.3933 125.9 23.66C126.153 23.9267 126.333 24.12 126.44 24.24L125.54 25.42C125.42 25.22 125.247 24.9667 125.02 24.66C124.807 24.3533 124.567 24.0267 124.3 23.68C124.033 23.3333 123.78 23.0133 123.54 22.72C123.3 22.4267 123.1 22.1933 122.94 22.02L123.64 21.4ZM128.66 13.24L130.12 13.52C129.88 14.5467 129.587 15.5467 129.24 16.52C128.907 17.4933 128.527 18.4 128.1 19.24C127.687 20.08 127.24 20.82 126.76 21.46C126.667 21.38 126.54 21.2933 126.38 21.2C126.22 21.0933 126.053 20.9933 125.88 20.9C125.72 20.7933 125.573 20.7133 125.44 20.66C125.947 20.06 126.4 19.3667 126.8 18.58C127.213 17.7933 127.573 16.9467 127.88 16.04C128.2 15.12 128.46 14.1867 128.66 13.24ZM128.34 21.16L129.8 21.44C129.613 22.32 129.387 23.1867 129.12 24.04C128.853 24.8933 128.547 25.6933 128.2 26.44C127.867 27.1733 127.507 27.82 127.12 28.38C127.027 28.3133 126.9 28.2267 126.74 28.12C126.593 28.0133 126.44 27.9133 126.28 27.82C126.12 27.7267 125.98 27.6467 125.86 27.58C126.447 26.7933 126.947 25.8333 127.36 24.7C127.787 23.5533 128.113 22.3733 128.34 21.16ZM128.48 16.74H137.1V18.14H127.98L128.48 16.74ZM131.2 17.28H132.68V29.72C132.68 30.1467 132.627 30.48 132.52 30.72C132.413 30.96 132.22 31.1467 131.94 31.28C131.673 31.4 131.32 31.4733 130.88 31.5C130.453 31.54 129.927 31.56 129.3 31.56C129.26 31.36 129.187 31.1067 129.08 30.8C128.987 30.5067 128.88 30.26 128.76 30.06C129.24 30.0733 129.673 30.08 130.06 30.08C130.46 30.08 130.727 30.08 130.86 30.08C130.98 30.0667 131.067 30.04 131.12 30C131.173 29.9467 131.2 29.8533 131.2 29.72V17.28ZM134.02 21.4L135.34 21C135.633 21.72 135.913 22.4867 136.18 23.3C136.46 24.1133 136.707 24.9133 136.92 25.7C137.133 26.4733 137.287 27.1667 137.38 27.78L135.98 28.2C135.887 27.5867 135.74 26.8867 135.54 26.1C135.34 25.3133 135.107 24.5133 134.84 23.7C134.573 22.8733 134.3 22.1067 134.02 21.4Z" fill="black"/>
<path d="M63.68 43.136H72.784V44.208H63.68V43.136ZM63.12 49.248H73.328V50.336H63.12V49.248ZM64.448 51.664H72.24V57.232H71.056V52.736H65.6V57.28H64.448V51.664ZM65.024 55.6H71.536V56.656H65.024V55.6ZM67.04 43.552L68.24 43.68C68.1227 44.3413 67.9787 45.056 67.808 45.824C67.6373 46.5813 67.4667 47.3173 67.296 48.032C67.136 48.736 66.992 49.344 66.864 49.856H65.6C65.7173 49.4613 65.84 49.0027 65.968 48.48C66.1067 47.9573 66.24 47.4133 66.368 46.848C66.496 46.2827 66.6187 45.7173 66.736 45.152C66.8533 44.576 66.9547 44.0427 67.04 43.552ZM64.256 46.016H70.896V47.056H64.256V46.016ZM70.608 46.016H70.72L70.912 45.952L71.76 46.032C71.7173 46.6293 71.6587 47.2693 71.584 47.952C71.52 48.6347 71.4507 49.2587 71.376 49.824L70.24 49.744C70.2933 49.3493 70.3413 48.9333 70.384 48.496C70.4373 48.048 70.48 47.616 70.512 47.2C70.5547 46.784 70.5867 46.4373 70.608 46.16V46.016ZM59.568 43.728L60.336 42.992C60.624 43.2267 60.9227 43.488 61.232 43.776C61.552 44.064 61.8507 44.3467 62.128 44.624C62.416 44.9013 62.64 45.152 62.8 45.376L61.984 46.24C61.8133 46.0053 61.5947 45.744 61.328 45.456C61.0613 45.1573 60.7733 44.8587 60.464 44.56C60.1547 44.2507 59.856 43.9733 59.568 43.728ZM58.72 47.568H61.584V48.736H58.72V47.568ZM60.976 56.8L60.8 55.68L61.152 55.184L63.984 53.312C64.016 53.4613 64.064 53.6373 64.128 53.84C64.192 54.032 64.2507 54.192 64.304 54.32C63.632 54.7787 63.088 55.1573 62.672 55.456C62.2667 55.744 61.9467 55.9733 61.712 56.144C61.488 56.3147 61.3227 56.4427 61.216 56.528C61.12 56.624 61.04 56.7147 60.976 56.8ZM60.976 56.8C60.944 56.6933 60.8907 56.5707 60.816 56.432C60.752 56.304 60.6773 56.176 60.592 56.048C60.5067 55.92 60.432 55.8133 60.368 55.728C60.4853 55.6427 60.608 55.5093 60.736 55.328C60.8747 55.136 60.944 54.8747 60.944 54.544V47.568H62.064V55.616C62.064 55.616 62.0107 55.6587 61.904 55.744C61.7973 55.8187 61.6693 55.9147 61.52 56.032C61.3707 56.16 61.2427 56.288 61.136 56.416C61.0293 56.5547 60.976 56.6827 60.976 56.8ZM77.808 55.568H86.272V56.592H77.808V55.568ZM77.344 50.016H86.672V51.024H77.344V50.016ZM77.344 47.84H86.672V48.832H77.344V47.84ZM74.864 45.616H89.216V46.656H74.864V45.616ZM77.584 43.44H86.448V44.432H77.584V43.44ZM77.152 52.24H86.88V57.216H85.664V53.264H78.336V57.264H77.152V52.24ZM96.48 43.312H103.872V44.304H96.48V43.312ZM96.288 47.76H104.16V48.752H96.288V47.76ZM96.288 49.984H104.128V50.976H96.288V49.984ZM96.752 55.52H103.68V56.528H96.752V55.52ZM94.976 45.536H105.392V46.544H94.976V45.536ZM96.128 52.208H104.304V57.232H103.104V53.184H97.28V57.28H96.128V52.208ZM94.432 42.608L95.552 42.96C95.1893 43.856 94.7627 44.7413 94.272 45.616C93.792 46.4907 93.2693 47.312 92.704 48.08C92.1493 48.848 91.5787 49.5307 90.992 50.128C90.9493 50.032 90.8853 49.9093 90.8 49.76C90.7253 49.6107 90.6453 49.4613 90.56 49.312C90.4747 49.1627 90.3947 49.04 90.32 48.944C90.8533 48.432 91.376 47.84 91.888 47.168C92.4 46.4853 92.8747 45.76 93.312 44.992C93.7493 44.2133 94.1227 43.4187 94.432 42.608ZM92.768 46.736L93.888 45.6L93.92 45.616V57.232H92.768V46.736ZM110.784 52.976H111.968V55.616C111.968 55.8187 112.027 55.9467 112.144 56C112.261 56.064 112.539 56.096 112.976 56.096C113.083 56.096 113.264 56.096 113.52 56.096C113.787 56.096 114.08 56.096 114.4 56.096C114.72 56.096 115.019 56.096 115.296 56.096C115.573 56.096 115.781 56.096 115.92 56.096C116.155 56.096 116.325 56.064 116.432 56C116.549 55.9253 116.629 55.776 116.672 55.552C116.725 55.328 116.763 54.9973 116.784 54.56C116.88 54.6133 116.987 54.672 117.104 54.736C117.232 54.7893 117.365 54.8373 117.504 54.88C117.643 54.9227 117.765 54.96 117.872 54.992C117.819 55.5893 117.733 56.0427 117.616 56.352C117.499 56.672 117.312 56.8907 117.056 57.008C116.811 57.1253 116.469 57.184 116.032 57.184C115.947 57.184 115.797 57.184 115.584 57.184C115.381 57.184 115.141 57.184 114.864 57.184C114.587 57.184 114.309 57.184 114.032 57.184C113.765 57.184 113.525 57.184 113.312 57.184C113.109 57.184 112.971 57.184 112.896 57.184C112.341 57.184 111.909 57.1413 111.6 57.056C111.301 56.9707 111.088 56.8107 110.96 56.576C110.843 56.352 110.784 56.032 110.784 55.616V52.976ZM112.432 52.4L113.312 51.792C113.632 51.9947 113.952 52.2293 114.272 52.496C114.592 52.752 114.885 53.0133 115.152 53.28C115.419 53.5467 115.632 53.8027 115.792 54.048L114.864 54.736C114.704 54.4907 114.496 54.2347 114.24 53.968C113.984 53.6907 113.696 53.4133 113.376 53.136C113.067 52.8587 112.752 52.6133 112.432 52.4ZM117.6 53.28L118.56 52.672C118.955 52.992 119.344 53.3547 119.728 53.76C120.112 54.1547 120.459 54.5547 120.768 54.96C121.088 55.3547 121.333 55.728 121.504 56.08L120.464 56.752C120.304 56.4107 120.069 56.0373 119.76 55.632C119.461 55.2267 119.125 54.816 118.752 54.4C118.379 53.984 117.995 53.6107 117.6 53.28ZM108.608 52.848L109.664 53.232C109.461 53.8507 109.195 54.48 108.864 55.12C108.533 55.76 108.107 56.304 107.584 56.752L106.592 56.048C107.093 55.6747 107.509 55.1947 107.84 54.608C108.171 54.0107 108.427 53.424 108.608 52.848ZM110.352 47.056V48.368H117.824V47.056H110.352ZM110.352 49.312V50.624H117.824V49.312H110.352ZM110.352 44.832V46.128H117.824V44.832H110.352ZM109.184 43.872H119.04V51.6H109.184V43.872ZM113.44 42.4L114.848 42.64C114.688 42.9707 114.517 43.296 114.336 43.616C114.165 43.9253 114.011 44.1973 113.872 44.432L112.8 44.16C112.917 43.904 113.035 43.6107 113.152 43.28C113.28 42.9387 113.376 42.6453 113.44 42.4Z" fill="black"/>
<path d="M34.25 32.75C34.25 28.2013 30.5487 24.5 26 24.5C21.4513 24.5 17.75 28.2013 17.75 32.75C17.75 37.0483 21.0553 40.5853 25.2575 40.9625C25.2568 40.976 25.25 40.9865 25.25 41V42.5H22.25C21.836 42.5 21.5 42.8353 21.5 43.25C21.5 43.6647 21.836 44 22.25 44H25.25V44.75C25.25 45.1647 25.586 45.5 26 45.5C26.414 45.5 26.75 45.1647 26.75 44.75V44H29.75C30.1648 44 30.5 43.6647 30.5 43.25C30.5 42.8353 30.1648 42.5 29.75 42.5H26.75V41C26.75 40.9865 26.7432 40.976 26.7425 40.9625C30.9447 40.5853 34.25 37.0483 34.25 32.75ZM26 39.5C22.2785 39.5 19.25 36.4722 19.25 32.75C19.25 29.0285 22.2785 26 26 26C29.7222 26 32.75 29.0285 32.75 32.75C32.75 36.4722 29.7222 39.5 26 39.5Z" fill="#5E6570"/>
<defs>
<clipPath id="clip0_215_628">
<rect width="35" height="35" fill="white" transform="translate(261 20)"/>
</clipPath>
</defs>
</svg>
