<svg width="343" height="48" viewBox="0 0 343 48" fill="none" xmlns="http://www.w3.org/2000/svg">
<rect width="48" height="48" rx="24" fill="#191815"/>
<path d="M21.57 17.1799C21.76 17.1799 21.95 17.2499 22.1 17.3999C22.39 17.6899 22.39 18.1699 22.1 18.4599L16.56 23.9999L22.1 29.5399C22.39 29.8299 22.39 30.3099 22.1 30.5999C21.81 30.8899 21.33 30.8899 21.04 30.5999L14.97 24.5299C14.68 24.2399 14.68 23.7599 14.97 23.4699L21.04 17.3999C21.19 17.2499 21.38 17.1799 21.57 17.1799Z" fill="#F1EEE3"/>
<path d="M15.67 23.25L32.5 23.25C32.91 23.25 33.25 23.59 33.25 24C33.25 24.41 32.91 24.75 32.5 24.75L15.67 24.75C15.26 24.75 14.92 24.41 14.92 24C14.92 23.59 15.26 23.25 15.67 23.25Z" fill="#F1EEE3"/>
<path d="M96.36 29H97.96V17.56H96.424C96.296 18.68 95.416 19.496 94.088 19.496H93.768V20.968H94.344C95.192 20.968 95.96 20.632 96.36 19.896V29ZM110.281 29.256C112.889 29.256 114.393 27.688 114.841 25.544L113.113 25.208C112.841 26.776 111.833 27.736 110.281 27.736C108.281 27.736 106.713 26.216 106.713 23.256C106.713 20.296 108.265 18.824 110.137 18.824C111.705 18.824 112.729 19.864 113.161 21.624L114.889 21.096C114.297 18.872 112.713 17.304 110.217 17.304C107.465 17.304 104.953 19.208 104.953 23.256C104.953 27.336 107.465 29.256 110.281 29.256ZM116.647 29H118.263V25.064C118.263 23.24 119.175 22.488 120.231 22.488C121.143 22.488 121.639 23.064 121.639 24.104V29H123.255V23.736C123.255 21.816 121.975 21.096 120.631 21.096C119.607 21.096 118.759 21.576 118.279 22.664H118.263V17.56H116.647V29ZM127.485 29.224C128.813 29.224 129.773 28.568 130.141 27.4H130.157C130.189 28.616 130.589 29.208 131.741 29.208C131.933 29.208 132.125 29.192 132.285 29.16V27.912C131.821 27.96 131.597 27.72 131.613 27.208L131.709 23.96C131.757 22.152 130.637 21.08 128.621 21.08C126.973 21.08 125.741 21.8 125.277 23L126.589 23.736C126.877 22.888 127.613 22.392 128.573 22.392C129.533 22.392 130.157 22.888 130.157 23.576C130.157 23.944 129.997 24.088 129.341 24.2L128.093 24.408C125.949 24.76 124.893 25.672 124.893 27C124.893 28.344 125.917 29.224 127.485 29.224ZM127.725 27.912C126.925 27.912 126.509 27.528 126.509 26.888C126.509 26.2 126.989 25.816 128.301 25.544L129.213 25.352C129.709 25.24 129.981 25.128 130.157 24.888L130.141 25.64C130.109 26.872 129.021 27.912 127.725 27.912ZM133.757 32.2H135.373V27.976H135.389C135.789 28.552 136.589 29.224 137.757 29.224C139.325 29.224 141.117 27.992 141.117 25.128C141.117 22.248 139.325 21.096 137.741 21.096C136.557 21.096 135.773 21.816 135.389 22.472H135.373V21.336H133.757V32.2ZM137.437 27.864C136.189 27.864 135.325 26.824 135.325 25.144C135.325 23.384 136.205 22.456 137.437 22.456C138.605 22.456 139.501 23.256 139.501 25.128C139.501 26.92 138.637 27.864 137.437 27.864ZM145.484 29.208C146.06 29.208 146.524 29.08 146.94 28.888L146.604 27.656C146.316 27.8 145.996 27.848 145.788 27.848C145.228 27.848 145.02 27.576 145.02 27.112V22.648H146.86V21.336H145.02V18.92L143.452 19.272V20.824C143.452 21.192 143.308 21.336 142.94 21.336H141.932V22.648H143.404V27.432C143.404 28.408 144.092 29.208 145.484 29.208ZM151.554 29.24C153.202 29.24 154.338 28.36 154.866 27.08L153.57 26.456C153.314 27.208 152.674 27.88 151.586 27.88C150.29 27.88 149.506 26.824 149.442 25.544H154.962V24.856C154.962 22.408 153.698 21.08 151.618 21.08C149.378 21.08 147.81 22.6 147.81 25.192C147.81 27.912 149.506 29.24 151.554 29.24ZM149.506 24.376C149.65 23.208 150.258 22.344 151.474 22.344C152.722 22.344 153.234 23.16 153.314 24.376H149.506ZM156.569 29H158.185V25.208C158.185 23.384 158.889 22.632 159.801 22.632C160.089 22.632 160.441 22.696 160.745 22.856L161.033 21.352C160.729 21.176 160.361 21.096 160.041 21.096C159.065 21.096 158.505 21.8 158.185 22.504V21.336H156.569V29ZM167.043 25.416H172.771V24.104H167.043V25.416Z" fill="#191815"/>
<path d="M180.304 29H188.736L189.12 25.976H189.024C188.32 27.512 187.28 28.536 186.128 28.536H185.744C184.512 28.536 183.84 28.232 183.84 27.816V19.576C183.84 18.232 184.016 18.104 185.152 17.672V17.56H180.304V17.672C181.456 18.104 181.632 18.232 181.632 19.576V26.984C181.632 28.312 181.456 28.456 180.304 28.888V29ZM194.055 29.16C196.327 29.16 197.991 27.576 197.991 25.08C197.991 22.6 196.343 21.112 194.103 21.112C191.831 21.112 190.151 22.696 190.151 25.224C190.151 27.688 191.783 29.16 194.055 29.16ZM194.439 28.776C192.967 28.776 192.167 26.088 192.167 24.184C192.167 22.36 192.903 21.496 193.719 21.496C195.175 21.496 195.975 24.184 195.975 26.088C195.975 27.864 195.287 28.776 194.439 28.776ZM202.758 29.16C205.03 29.16 206.694 27.576 206.694 25.08C206.694 22.6 205.046 21.112 202.806 21.112C200.534 21.112 198.854 22.696 198.854 25.224C198.854 27.688 200.486 29.16 202.758 29.16ZM203.142 28.776C201.67 28.776 200.87 26.088 200.87 24.184C200.87 22.36 201.606 21.496 202.422 21.496C203.878 21.496 204.678 24.184 204.678 26.088C204.678 27.864 203.99 28.776 203.142 28.776ZM207.208 29H211.272V28.888C210.408 28.52 210.216 28.36 210.216 27.112V23.352C210.68 22.584 211.24 22.168 211.88 22.168C212.664 22.168 213.144 22.76 213.144 23.816C213.144 24.904 213.128 26.024 213.112 27.112C213.096 28.36 212.888 28.52 212.024 28.888V29H216.088V28.888C215.24 28.52 215.048 28.36 215.048 27.112V23.32C215.496 22.568 216.04 22.168 216.696 22.168C217.48 22.168 217.96 22.76 217.96 23.816C217.96 24.072 217.96 26.44 217.944 27.112C217.912 28.36 217.72 28.52 216.856 28.888V29H220.92V28.888C220.056 28.52 219.864 28.36 219.864 27.112V23.48C219.864 22.056 218.984 21.112 217.656 21.112C216.584 21.112 215.688 21.704 214.984 22.872C214.76 21.8 213.944 21.112 212.824 21.112C211.768 21.112 210.856 21.704 210.168 22.872V21.08C209.192 21.368 208.2 21.544 207.192 21.624V21.72C208.12 22.168 208.264 22.44 208.264 23.784V27.112C208.264 28.36 208.072 28.52 207.208 28.888V29ZM221.255 29H225.319V28.888C224.455 28.52 224.263 28.36 224.263 27.112V21.08C223.303 21.368 222.311 21.544 221.239 21.624V21.736C222.183 22.2 222.311 22.44 222.311 23.8V27.112C222.311 28.36 222.118 28.52 221.255 28.888V29ZM223.079 19.976C223.671 19.976 224.199 19.48 224.199 18.904C224.199 18.344 223.671 17.832 223.079 17.832C222.471 17.832 221.959 18.344 221.959 18.904C221.959 19.48 222.471 19.976 223.079 19.976ZM225.661 29H229.725V28.888C228.861 28.52 228.669 28.36 228.669 27.112V23.336C229.197 22.6 229.901 22.152 230.589 22.152C231.373 22.152 231.805 22.712 231.805 23.816C231.805 25.496 231.805 26.056 231.789 27.112C231.773 28.36 231.581 28.52 230.717 28.888V29H234.781V28.888C233.917 28.52 233.725 28.36 233.725 27.112V23.624C233.725 22.056 232.845 21.112 231.517 21.112C230.413 21.112 229.309 21.768 228.621 22.84V21.08C227.645 21.368 226.653 21.544 225.645 21.624V21.72C226.573 22.168 226.717 22.44 226.717 23.784V27.112C226.717 28.36 226.525 28.52 225.661 28.888V29ZM238.858 32.312C240.586 32.312 242.938 31.736 242.938 29.88C242.938 28.872 242.25 28.2 240.89 27.848C240.17 27.656 238.058 27.256 237.658 27.16C237.402 27.096 237.21 27 237.21 26.776C237.21 26.504 237.482 26.264 237.978 26.136C238.218 26.168 238.474 26.184 238.73 26.184C240.826 26.184 242.042 25.256 242.042 23.768C242.042 22.44 241.13 21.752 239.85 21.464V21.416H240.73C241.962 21.416 242.458 21.064 242.762 20.312V20.248L241.178 19.896C241.082 20.584 240.618 21.112 239.418 21.112H238.538C236.778 21.112 235.434 21.992 235.434 23.656C235.434 24.952 236.25 25.752 237.514 26.056C236.442 26.328 235.674 26.904 235.674 27.64C235.674 28.184 236.138 28.664 237.322 28.936C236.314 29.176 235.13 29.72 235.13 30.6C235.13 31.768 237.194 32.312 238.858 32.312ZM239.018 31.944C237.722 31.944 236.618 31.448 236.618 30.456C236.618 29.752 237.226 29.272 237.738 29.016C238.346 29.128 239.722 29.384 240.202 29.512C240.938 29.704 241.37 30.12 241.37 30.648C241.37 31.528 240.202 31.944 239.018 31.944ZM239.018 25.864C237.85 25.864 237.322 24.264 237.322 23.144C237.322 21.96 237.914 21.432 238.538 21.432C239.594 21.432 240.202 22.968 240.202 24.2C240.202 25.368 239.658 25.864 239.018 25.864ZM246.647 29.192C248.295 29.192 249.335 28.344 249.335 27C249.335 25.912 248.631 25.08 247.015 24.312C245.575 23.624 245.111 23.224 245.111 22.552C245.111 21.896 245.511 21.48 246.103 21.48C246.855 21.48 247.783 22.264 248.711 23.704L248.823 23.688L248.647 21.608C247.735 21.288 246.887 21.112 246.151 21.112C244.599 21.112 243.591 21.896 243.591 23.192C243.591 24.248 244.215 25.032 245.863 25.896C247.335 26.68 247.751 27.064 247.751 27.736C247.751 28.424 247.319 28.824 246.663 28.824C245.799 28.824 244.839 28.024 243.703 26.296L243.591 26.328L243.831 28.568C244.887 28.984 245.815 29.192 246.647 29.192Z" fill="#191815"/>
<rect x="295" width="48" height="48" rx="24" fill="#191815"/>
<path d="M313 22.5C312.602 22.5 312.221 22.658 311.939 22.9393C311.658 23.2206 311.5 23.6022 311.5 24C311.5 24.3978 311.658 24.7794 311.939 25.0607C312.221 25.342 312.602 25.5 313 25.5C313.398 25.5 313.779 25.342 314.061 25.0607C314.342 24.7794 314.5 24.3978 314.5 24C314.5 23.6022 314.342 23.2206 314.061 22.9393C313.779 22.658 313.398 22.5 313 22.5ZM317.5 24C317.5 23.6022 317.658 23.2206 317.939 22.9393C318.221 22.658 318.602 22.5 319 22.5C319.398 22.5 319.779 22.658 320.061 22.9393C320.342 23.2206 320.5 23.6022 320.5 24C320.5 24.3978 320.342 24.7794 320.061 25.0607C319.779 25.342 319.398 25.5 319 25.5C318.602 25.5 318.221 25.342 317.939 25.0607C317.658 24.7794 317.5 24.3978 317.5 24ZM323.5 24C323.5 23.6022 323.658 23.2206 323.939 22.9393C324.221 22.658 324.602 22.5 325 22.5C325.398 22.5 325.779 22.658 326.061 22.9393C326.342 23.2206 326.5 23.6022 326.5 24C326.5 24.3978 326.342 24.7794 326.061 25.0607C325.779 25.342 325.398 25.5 325 25.5C324.602 25.5 324.221 25.342 323.939 25.0607C323.658 24.7794 323.5 24.3978 323.5 24Z" fill="#F1EEE3"/>
</svg>
