<svg width="343" height="81" viewBox="0 0 343 81" fill="none" xmlns="http://www.w3.org/2000/svg">
<rect width="343" height="81" rx="40.5" fill="#191815"/>
<path d="M52 41.5V45.5C52 49 50 50.5 47 50.5H37C34 50.5 32 49 32 45.5V41.5C32 38.85 33.15 37.35 35 36.78C35.6 36.59 36.27 36.5 37 36.5H47C47.73 36.5 48.4 36.59 49 36.78C50.85 37.35 52 38.85 52 41.5Z" stroke="#A5A296" stroke-width="1.5" stroke-miterlimit="10" stroke-linecap="round" stroke-linejoin="round"/>
<path d="M49 35.5V36.78C48.4 36.59 47.73 36.5 47 36.5H37C36.27 36.5 35.6 36.59 35 36.78V35.5C35 34.4 35.9 33.5 37 33.5H47C48.1 33.5 49 34.4 49 35.5Z" stroke="#A5A296" stroke-width="1.5" stroke-miterlimit="10" stroke-linecap="round" stroke-linejoin="round"/>
<path d="M46 32.01V33.5H38V32.01C38 31.18 38.68 30.5 39.51 30.5H44.49C45.32 30.5 46 31.18 46 32.01Z" stroke="#A5A296" stroke-width="1.5" stroke-miterlimit="10" stroke-linecap="round" stroke-linejoin="round"/>
<path d="M39.07 47.9501C39.799 47.9501 40.39 47.3591 40.39 46.6301C40.39 45.9011 39.799 45.3101 39.07 45.3101C38.341 45.3101 37.75 45.9011 37.75 46.6301C37.75 47.3591 38.341 47.9501 39.07 47.9501Z" stroke="#A5A296" stroke-width="1.5" stroke-linecap="round" stroke-linejoin="round"/>
<path d="M45.25 45.7501V40.5801C45.25 39.4801 44.56 39.3201 43.86 39.5201L41.21 40.2401C40.73 40.3701 40.4 40.7501 40.4 41.3001V42.2201V42.8401V46.6301" stroke="#A5A296" stroke-width="1.5" stroke-linecap="round" stroke-linejoin="round"/>
<path d="M43.93 47.0702C44.659 47.0702 45.25 46.4792 45.25 45.7502C45.25 45.0212 44.659 44.4302 43.93 44.4302C43.201 44.4302 42.61 45.0212 42.61 45.7502C42.61 46.4792 43.201 47.0702 43.93 47.0702Z" stroke="#A5A296" stroke-width="1.5" stroke-linecap="round" stroke-linejoin="round"/>
<path d="M40.4 42.8502L45.25 41.5303" stroke="#A5A296" stroke-width="1.5" stroke-linecap="round" stroke-linejoin="round"/>
<path d="M102.54 45.1701C102.13 45.1701 101.79 44.8301 101.79 44.4201V41.0301L101.6 41.2501C101.32 41.5601 100.85 41.5801 100.54 41.3101C100.23 41.0301 100.21 40.5601 100.48 40.2501L101.98 38.5801C102.19 38.3501 102.52 38.2701 102.81 38.3801C103.1 38.4901 103.29 38.7701 103.29 39.0801V44.4301C103.29 44.8401 102.96 45.1701 102.54 45.1701Z" fill="#F1EEE3"/>
<path d="M105 31.98C104.92 31.98 104.84 31.99 104.76 31.99L105.58 30.97C105.84 30.65 105.79 30.17 105.46 29.92C105.14 29.66 104.67 29.71 104.41 30.04L102.44 32.5C102.43 32.51 102.43 32.52 102.42 32.54C102.39 32.58 102.37 32.63 102.35 32.67C102.33 32.72 102.31 32.76 102.3 32.8C102.29 32.85 102.29 32.89 102.29 32.94C102.29 32.99 102.29 33.04 102.29 33.09C102.29 33.11 102.29 33.12 102.29 33.14C102.3 33.17 102.32 33.19 102.33 33.23C102.35 33.28 102.36 33.32 102.39 33.36C102.42 33.4 102.45 33.44 102.49 33.48C102.51 33.5 102.53 33.53 102.55 33.55C102.56 33.56 102.58 33.56 102.59 33.57C102.62 33.59 102.65 33.61 102.69 33.62C102.74 33.65 102.79 33.67 102.84 33.68C102.88 33.7 102.91 33.7 102.95 33.7C102.98 33.7 103 33.71 103.03 33.71C103.05 33.71 103.08 33.7 103.1 33.69C103.13 33.69 103.16 33.69 103.2 33.69C103.84 33.54 104.44 33.47 105.01 33.47C109.5 33.47 113.15 37.12 113.15 41.61C113.15 46.1 109.5 49.75 105.01 49.75C100.52 49.75 96.87 46.1 96.87 41.61C96.87 39.87 97.44 38.19 98.52 36.75C98.77 36.42 98.7 35.95 98.37 35.7C98.04 35.45 97.57 35.52 97.32 35.85C96.04 37.55 95.37 39.54 95.37 41.61C95.37 46.92 99.69 51.25 105.01 51.25C110.33 51.25 114.65 46.93 114.65 41.61C114.65 36.29 110.31 31.98 105 31.98Z" fill="#F1EEE3"/>
<path d="M107 45.1701C105.48 45.1701 104.25 43.9401 104.25 42.4201V41.0701C104.25 39.5501 105.48 38.3201 107 38.3201C108.52 38.3201 109.75 39.5501 109.75 41.0701V42.4201C109.75 43.9401 108.52 45.1701 107 45.1701ZM107 39.8301C106.31 39.8301 105.75 40.3901 105.75 41.0801V42.4301C105.75 43.1201 106.31 43.6801 107 43.6801C107.69 43.6801 108.25 43.1201 108.25 42.4301V41.0801C108.25 40.3901 107.69 39.8301 107 39.8301Z" fill="#F1EEE3"/>
<circle cx="171.5" cy="40.5" r="26.5" fill="#E06065"/>
<path d="M164.617 35.1335V46.8681C164.617 49.2714 167.318 50.7796 169.474 49.578L174.737 46.6474L180 43.7045C182.156 42.5029 182.156 39.4987 180 38.2971L174.737 35.3542L169.474 32.4237C167.318 31.222 164.617 32.7179 164.617 35.1335Z" fill="white"/>
<path d="M239.98 32.97L238 30.5" stroke="#F1EEE3" stroke-width="1.5" stroke-linecap="round" stroke-linejoin="round"/>
<path d="M245.09 36.3C246.2 37.78 246.89 39.61 246.89 41.61C246.89 46.52 242.91 50.5 238 50.5C233.09 50.5 229.11 46.52 229.11 41.61C229.11 36.7 233.09 32.72 238 32.72C238.68 32.72 239.34 32.81 239.98 32.96" stroke="#F1EEE3" stroke-width="1.5" stroke-linecap="round" stroke-linejoin="round"/>
<path d="M235.54 44.42V39.0801L234.04 40.7501" stroke="#F1EEE3" stroke-width="1.5" stroke-linecap="round" stroke-linejoin="round"/>
<path d="M240 39.0801C241.1 39.0801 242 39.9801 242 41.0801V42.4301C242 43.5301 241.1 44.4301 240 44.4301C238.9 44.4301 238 43.5301 238 42.4301V41.0801C238 39.9701 238.9 39.0801 240 39.0801Z" stroke="#F1EEE3" stroke-width="1.5" stroke-linecap="round" stroke-linejoin="round"/>
<path d="M303 31.5L305.44 33.84L297.49 33.82C293.92 33.82 290.99 36.75 290.99 40.34C290.99 42.13 291.72 43.76 292.9 44.94" stroke="#A5A296" stroke-width="1.5" stroke-linecap="round" stroke-linejoin="round"/>
<path d="M299 49.5001L296.56 47.16L304.51 47.1801C308.08 47.1801 311.01 44.25 311.01 40.66C311.01 38.87 310.28 37.2401 309.1 36.0601" stroke="#A5A296" stroke-width="1.5" stroke-linecap="round" stroke-linejoin="round"/>
<path d="M301.25 43.17V37.8301L299.75 39.5001" stroke="#A5A296" stroke-width="1.5" stroke-linecap="round" stroke-linejoin="round"/>
</svg>
