<svg width="342" height="52" viewBox="0 0 342 52" fill="none" xmlns="http://www.w3.org/2000/svg">
<path d="M3.66 29.18C5.592 29.18 6.696 27.512 6.696 24.728C6.696 21.992 5.592 20.24 3.66 20.24C1.74 20.24 0.624 21.98 0.624 24.728C0.624 27.524 1.74 29.18 3.66 29.18ZM3.66 28.28C2.328 28.28 1.644 26.996 1.644 24.74C1.644 22.484 2.328 21.14 3.66 21.14C4.992 21.14 5.676 22.484 5.676 24.74C5.676 26.996 4.992 28.28 3.66 28.28ZM10.9842 29.18C12.9162 29.18 14.0202 27.512 14.0202 24.728C14.0202 21.992 12.9162 20.24 10.9842 20.24C9.06422 20.24 7.94822 21.98 7.94822 24.728C7.94822 27.524 9.06422 29.18 10.9842 29.18ZM10.9842 28.28C9.65222 28.28 8.96822 26.996 8.96822 24.74C8.96822 22.484 9.65222 21.14 10.9842 21.14C12.3162 21.14 13.0002 22.484 13.0002 24.74C13.0002 26.996 12.3162 28.28 10.9842 28.28ZM15.5124 28.352C15.5124 28.056 15.5844 27.848 15.7284 27.728C15.8724 27.608 16.0444 27.548 16.2444 27.548C16.4524 27.548 16.6284 27.608 16.7724 27.728C16.9244 27.848 17.0004 28.056 17.0004 28.352C17.0004 28.64 16.9244 28.848 16.7724 28.976C16.6284 29.104 16.4524 29.168 16.2444 29.168C16.0444 29.168 15.8724 29.104 15.7284 28.976C15.5844 28.848 15.5124 28.64 15.5124 28.352ZM15.5124 23.216C15.5124 22.912 15.5844 22.7 15.7284 22.58C15.8724 22.46 16.0444 22.4 16.2444 22.4C16.4524 22.4 16.6284 22.46 16.7724 22.58C16.9244 22.7 17.0004 22.912 17.0004 23.216C17.0004 23.504 16.9244 23.712 16.7724 23.84C16.6284 23.968 16.4524 24.032 16.2444 24.032C16.0444 24.032 15.8724 23.968 15.7284 23.84C15.5844 23.712 15.5124 23.504 15.5124 23.216ZM21.5194 29.18C23.4514 29.18 24.5554 27.512 24.5554 24.728C24.5554 21.992 23.4514 20.24 21.5194 20.24C19.5994 20.24 18.4834 21.98 18.4834 24.728C18.4834 27.524 19.5994 29.18 21.5194 29.18ZM21.5194 28.28C20.1874 28.28 19.5034 26.996 19.5034 24.74C19.5034 22.484 20.1874 21.14 21.5194 21.14C22.8514 21.14 23.5354 22.484 23.5354 24.74C23.5354 26.996 22.8514 28.28 21.5194 28.28ZM28.8436 29.18C30.7756 29.18 31.8796 27.512 31.8796 24.728C31.8796 21.992 30.7756 20.24 28.8436 20.24C26.9236 20.24 25.8076 21.98 25.8076 24.728C25.8076 27.524 26.9236 29.18 28.8436 29.18ZM28.8436 28.28C27.5116 28.28 26.8276 26.996 26.8276 24.74C26.8276 22.484 27.5116 21.14 28.8436 21.14C30.1756 21.14 30.8596 22.484 30.8596 24.74C30.8596 26.996 30.1756 28.28 28.8436 28.28Z" fill="#A5A296"/>
<g clip-path="url(#clip0_212_1219)">
<path d="M94.7356 40.8934C94.4655 38.3451 94.3261 35.7991 94.226 33.2436C94.1693 31.9694 94.1563 30.6952 94.1171 29.4186L94.0822 25.5937L94.1171 21.7688C94.1519 20.4946 94.165 19.2228 94.226 17.9438C94.3218 15.3955 94.4655 12.8495 94.7356 10.2939C95.01 12.8399 95.1711 15.3859 95.2451 17.9438C95.3061 19.218 95.3192 20.4898 95.354 21.7688L95.3889 25.5937L95.354 29.4186C95.3192 30.6928 95.3061 31.967 95.2451 33.2436C95.1493 35.7991 95.0056 38.3451 94.7356 40.8934Z" fill="#191815"/>
<path d="M97.4665 35.4356C97.1921 33.798 97.0309 32.1605 96.9569 30.5229C96.8959 29.7053 96.8828 28.8854 96.848 28.0678L96.8132 25.6103L96.8436 23.1551C96.8828 22.3352 96.8915 21.5176 96.9525 20.6976C97.0483 19.0601 97.1921 17.4249 97.4665 15.7874C97.7365 17.4249 97.902 19.0601 97.976 20.6976C98.037 21.5176 98.0457 22.3352 98.0849 23.1551L98.1154 25.6103L98.0806 28.0678C98.0457 28.8854 98.0327 29.7053 97.9717 30.5229C97.8759 32.1605 97.7365 33.798 97.4665 35.4356Z" fill="#191815"/>
<path d="M108.377 44.8259C108.124 41.6225 107.955 38.4199 107.867 35.2181C107.811 33.6164 107.798 32.0147 107.759 30.4154L107.724 25.6103L107.759 20.8077C107.793 19.206 107.806 17.6043 107.867 16.005C107.955 12.8016 108.124 9.59901 108.377 6.39722C108.63 9.6006 108.8 12.8032 108.887 16.005C108.948 17.6043 108.961 19.206 108.996 20.8077L109.03 25.6103L108.996 30.4154C108.961 32.0147 108.948 33.6164 108.887 35.2181C108.8 38.4199 108.63 41.6225 108.377 44.8259Z" fill="#191815"/>
<path d="M116.561 40.8934C116.291 38.3475 116.152 35.7991 116.056 33.2436C115.995 31.9694 115.982 30.6952 115.947 29.4186L115.908 25.5937L115.943 21.7688C115.982 20.4946 115.99 19.2228 116.051 17.9438C116.147 15.3955 116.291 12.8495 116.561 10.2939C116.835 12.8399 116.975 15.3859 117.071 17.9438C117.132 19.218 117.145 20.4898 117.18 21.7688L117.214 25.5937L117.18 29.4186C117.145 30.6928 117.132 31.967 117.071 33.2436C116.975 35.7991 116.831 38.3475 116.561 40.8934Z" fill="#191815"/>
<path d="M135.651 35.0578C135.381 33.4824 135.216 31.9094 135.142 30.334C135.081 29.5475 135.068 28.7586 135.033 27.9721L134.998 25.6102L135.033 23.2483C135.068 22.4618 135.081 21.6753 135.142 20.8864C135.237 19.3134 135.377 17.738 135.651 16.165C135.921 17.738 136.087 19.3134 136.161 20.8864C136.222 21.6753 136.235 22.4618 136.27 23.2483L136.305 25.6102L136.265 27.9721C136.23 28.7586 136.217 29.5475 136.156 30.334C136.061 31.9094 135.921 33.4824 135.651 35.0578Z" fill="#191815"/>
<path d="M92.009 35.4356C91.739 33.798 91.5734 32.1605 91.4994 30.5229C91.4384 29.7053 91.4254 28.8854 91.3905 28.0678L91.3557 25.6103L91.3905 23.1551C91.4254 22.3352 91.4384 21.5176 91.4994 20.6976C91.5952 19.0601 91.7346 17.4249 92.009 15.7874C92.2791 17.4249 92.4446 19.0601 92.5186 20.6976C92.5796 21.5176 92.5883 22.3352 92.6275 23.1551L92.6623 25.6103L92.6232 28.0678C92.5883 28.8854 92.5752 29.7053 92.5143 30.5229C92.4184 32.1605 92.2791 33.798 92.009 35.4356Z" fill="#191815"/>
<path d="M100.193 33.4324C99.923 32.1271 99.7575 30.8242 99.6834 29.5214C99.6224 28.8687 99.6094 28.2185 99.5745 27.5659L99.5397 25.6104L99.5745 23.6549C99.6094 23.0046 99.6224 22.352 99.6834 21.7018C99.7792 20.3965 99.9186 19.0936 100.193 17.7908C100.463 19.0936 100.629 20.3965 100.703 21.7018C100.764 22.352 100.777 23.0046 100.811 23.6549L100.846 25.6104L100.811 27.5659C100.772 28.2185 100.759 28.8687 100.703 29.5214C100.607 30.8242 100.463 32.1271 100.193 33.4324Z" fill="#191815"/>
<path d="M89.2825 33.4324C89.0124 32.1271 88.873 30.8242 88.7772 29.5214C88.7162 28.8687 88.7032 28.2185 88.6683 27.5659L88.6291 25.6104L88.664 23.6549C88.7032 23.0046 88.7119 22.352 88.7728 21.7018C88.8687 20.3965 89.0124 19.0936 89.2825 17.7908C89.5569 19.0936 89.718 20.3965 89.7921 21.7018C89.8531 22.352 89.8661 23.0046 89.901 23.6549L89.9358 25.6104L89.901 27.5659C89.8661 28.2185 89.8531 28.8687 89.7921 29.5214C89.6919 30.8242 89.5481 32.1271 89.2825 33.4324Z" fill="#191815"/>
<path d="M83.825 33.4324C83.5506 32.1271 83.3895 30.8242 83.3154 29.5214C83.2545 28.8687 83.2414 28.2185 83.2065 27.5659L83.1717 25.6104L83.2022 23.6549C83.2414 23.0046 83.2501 22.352 83.3111 21.7018C83.4069 20.3965 83.5506 19.0936 83.825 17.7908C84.095 19.0936 84.2606 20.3965 84.3346 21.7018C84.3956 22.352 84.4043 23.0046 84.4435 23.6549L84.4783 25.6104L84.4391 27.5659C84.4043 28.2185 84.3912 28.8687 84.3302 29.5214C84.2344 30.8242 84.095 32.1271 83.825 33.4324Z" fill="#191815"/>
<path d="M78.3675 33.4324C78.0975 32.1271 77.932 30.8242 77.858 29.5214C77.797 28.8687 77.7839 28.2185 77.7491 27.5659L77.7142 25.6104L77.7491 23.6549C77.7839 23.0046 77.797 22.352 77.858 21.7018C77.9538 20.3965 78.0931 19.0936 78.3675 17.7908C78.6376 19.0936 78.8031 20.3965 78.8771 21.7018C78.9381 22.352 78.9468 23.0046 78.986 23.6549L79.0209 25.6104L78.9817 27.5659C78.9468 28.2185 78.9338 28.8687 78.8728 29.5214C78.777 30.8242 78.6376 32.1271 78.3675 33.4324Z" fill="#191815"/>
<path d="M81.0941 37.5083C80.824 35.5265 80.6847 33.5423 80.5889 31.5605C80.5279 30.5684 80.5148 29.5763 80.4756 28.5842L80.4408 25.6103L80.4756 22.6365C80.5105 21.6444 80.5235 20.6547 80.5845 19.6626C80.6803 17.6784 80.824 15.6966 81.0941 13.7124C81.3685 15.6966 81.5296 17.6784 81.6037 19.6626C81.6647 20.6547 81.6777 21.6444 81.7126 22.6365L81.7474 25.6103L81.7126 28.5842C81.6777 29.5763 81.6647 30.5684 81.6037 31.5605C81.5079 33.5447 81.3641 35.5265 81.0941 37.5083Z" fill="#191815"/>
<path d="M72.9101 35.0578C72.6401 33.4824 72.4745 31.9094 72.4005 30.334C72.3395 29.5475 72.3265 28.7586 72.2916 27.9721L72.2568 25.6102L72.2916 23.2483C72.3265 22.4618 72.3395 21.6753 72.4005 20.8864C72.4963 19.3134 72.6357 17.738 72.9101 16.165C73.1802 17.738 73.3239 19.3134 73.4197 20.8864C73.4807 21.6753 73.4937 22.4618 73.5286 23.2483L73.5634 25.6102L73.5286 27.9721C73.4937 28.7586 73.4763 29.5475 73.4197 30.334C73.3239 31.9094 73.1671 33.4824 72.9101 35.0578Z" fill="#191815"/>
<path d="M105.65 41.3716C105.38 38.7419 105.237 36.1123 105.141 33.4826C105.08 32.1702 105.067 30.853 105.032 29.5429L104.997 25.6033L105.032 21.6636C105.067 20.3511 105.08 19.0339 105.141 17.7239C105.237 15.0942 105.376 12.4646 105.65 9.83496C105.92 12.4646 106.086 15.0942 106.16 17.7239C106.221 19.0363 106.23 20.3535 106.269 21.6636L106.304 25.6033L106.265 29.5429C106.23 30.8578 106.217 32.1726 106.156 33.4826C106.06 36.117 105.92 38.7443 105.65 41.3716Z" fill="#191815"/>
<path d="M111.104 33.4635C110.834 32.1535 110.694 30.8458 110.598 29.5358C110.537 28.8832 110.524 28.2281 110.489 27.5731L110.455 25.6105L110.485 23.6478C110.524 22.9928 110.533 22.3401 110.594 21.6851C110.69 20.3775 110.834 19.0674 111.104 17.7598C111.378 19.0674 111.539 20.3775 111.618 21.6851C111.679 22.3401 111.687 22.9928 111.726 23.6478L111.757 25.6105L111.722 27.5731C111.687 28.2281 111.674 28.8832 111.613 29.5358C111.517 30.8458 111.378 32.1535 111.104 33.4635Z" fill="#191815"/>
<path d="M124.745 33.4635C124.475 32.1535 124.336 30.8458 124.24 29.5358C124.179 28.8832 124.166 28.2281 124.131 27.5731L124.092 25.6105L124.127 23.6478C124.166 22.9928 124.174 22.3401 124.235 21.6851C124.331 20.3775 124.475 19.0674 124.745 17.7598C125.019 19.0674 125.181 20.3775 125.259 21.6851C125.316 22.3401 125.329 22.9928 125.368 23.6478L125.398 25.6105L125.364 27.5731C125.329 28.2281 125.316 28.8832 125.255 29.5358C125.159 30.8458 125.019 32.1535 124.745 33.4635Z" fill="#191815"/>
<path d="M132.92 33.4635C132.65 32.1535 132.511 30.8458 132.415 29.5358C132.354 28.8832 132.341 28.2281 132.306 27.5731L132.267 25.6105L132.302 23.6478C132.341 22.9928 132.35 22.3401 132.411 21.6851C132.507 20.3775 132.65 19.0674 132.92 17.7598C133.195 19.0674 133.356 20.3775 133.434 21.6851C133.491 22.3401 133.504 22.9928 133.543 23.6478L133.574 25.6105L133.539 27.5731C133.504 28.2281 133.491 28.8832 133.43 29.5358C133.334 30.8458 133.195 32.1535 132.92 33.4635Z" fill="#191815"/>
<path d="M102.92 37.5083C102.65 35.5265 102.51 33.5423 102.414 31.5605C102.353 30.5684 102.34 29.5763 102.305 28.5842L102.266 25.6103L102.301 22.6365C102.34 21.6444 102.349 20.6547 102.41 19.6626C102.506 17.6784 102.65 15.6966 102.92 13.7124C103.194 15.6966 103.355 17.6784 103.429 19.6626C103.49 20.6547 103.503 21.6444 103.538 22.6365L103.573 25.6103L103.538 28.5842C103.503 29.5763 103.49 30.5684 103.429 31.5605C103.333 33.5447 103.19 35.5265 102.92 37.5083Z" fill="#191815"/>
<path d="M86.5515 30.6425C86.2957 29.8101 86.1256 28.9705 86.042 28.1276C85.9374 27.2885 85.9026 26.4542 85.8982 25.6103C85.8938 24.7664 85.9374 23.9369 86.042 23.0954C86.1235 22.2516 86.2936 21.4111 86.5515 20.5781C86.8073 21.4113 86.9775 22.2517 87.0611 23.0954C87.1657 23.9345 87.2049 24.7688 87.2049 25.6103C87.2049 26.4518 87.1613 27.2837 87.0611 28.1276C86.9775 28.9705 86.8073 29.8101 86.5515 30.6425Z" fill="#191815"/>
<path d="M75.6367 29.7317C75.3854 29.0517 75.2152 28.3633 75.1271 27.6711C75.0312 26.985 74.9877 26.2989 74.9834 25.6104C74.979 24.9219 75.0269 24.2382 75.1227 23.5497C75.2107 22.8573 75.3825 22.1689 75.6367 21.489C75.893 22.1687 76.0646 22.8572 76.1506 23.5497C76.2464 24.2382 76.2929 24.9251 76.29 25.6104C76.29 26.2989 76.2464 26.985 76.1506 27.6711C76.0631 28.3635 75.8915 29.0519 75.6367 29.7317Z" fill="#191815"/>
<path d="M70.1836 29.7317C69.9288 29.0519 69.7571 28.3635 69.6696 27.6711C69.5738 26.985 69.5302 26.2989 69.5302 25.6104C69.5302 24.9219 69.5738 24.2382 69.6696 23.5497C69.7556 22.8572 69.9273 22.1687 70.1836 21.489C70.4356 22.1691 70.6073 22.8574 70.6975 23.5497C70.7933 24.2382 70.8369 24.9243 70.8369 25.6104C70.8369 26.2965 70.789 26.985 70.6931 27.6711C70.605 28.3633 70.4348 29.0517 70.1836 29.7317Z" fill="#191815"/>
<path d="M59.2817 29.7317C59.0305 29.0517 58.8602 28.3633 58.7721 27.6711C58.6763 26.9858 58.6284 26.2989 58.6284 25.6104C58.6284 24.9243 58.6719 24.2382 58.7677 23.5497C58.8558 22.8573 59.0275 22.1689 59.2817 21.489C59.538 22.1687 59.7097 22.8572 59.7957 23.5497C59.8915 24.2382 59.9379 24.9251 59.935 25.6104C59.935 26.2989 59.8915 26.985 59.7957 27.6711C59.7082 28.3635 59.5365 29.0519 59.2817 29.7317Z" fill="#191815"/>
<path d="M51.0977 31.1062C50.8439 30.1958 50.6738 29.2791 50.5881 28.3594C50.5315 27.9004 50.5184 27.4438 50.4792 26.9848L50.4444 25.6102C50.4444 24.6946 50.4923 23.779 50.5881 22.8634C50.6719 21.9428 50.8419 21.0252 51.0977 20.1143C51.3556 21.0251 51.5257 21.9428 51.6073 22.8634C51.7031 23.779 51.7554 24.6946 51.751 25.6102L51.7162 26.9848C51.6814 27.4438 51.6683 27.9004 51.6073 28.3594C51.5238 29.2792 51.3537 30.196 51.0977 31.1062Z" fill="#191815"/>
<path d="M48.3798 30.0784C48.1244 29.34 47.9542 28.5934 47.8703 27.8432C47.7657 27.0997 47.7309 26.3562 47.7265 25.6104C47.7222 24.8645 47.7657 24.121 47.8703 23.3776C47.952 22.628 48.1222 21.8822 48.3798 21.1448C48.6353 21.8824 48.8055 22.6282 48.8894 23.3776C48.994 24.121 49.0332 24.8669 49.0332 25.6104C49.0332 26.3539 48.9896 27.0997 48.8894 27.8432C48.8055 28.5934 48.6353 29.34 48.3798 30.0784Z" fill="#191815"/>
<path d="M45.6532 28.644C45.4001 28.1481 45.2282 27.6409 45.1393 27.1283C45.0451 26.624 44.9985 26.1173 44.9999 25.6103C44.9963 25.1041 45.0429 24.5981 45.1393 24.0947C45.226 23.5811 45.398 23.073 45.6532 22.5767C45.9042 23.0736 46.0762 23.5815 46.1672 24.0947C46.2614 24.5982 46.3079 25.1041 46.3065 25.6103C46.3065 26.1171 46.2586 26.6215 46.1628 27.1283C46.0733 27.6407 45.9028 28.1478 45.6532 28.644Z" fill="#191815"/>
<path d="M67.4527 31.9024C67.1826 30.8529 67.0432 29.8059 66.9474 28.7564C66.8864 28.2328 66.8734 27.7093 66.8385 27.1834L66.7993 25.6104C66.7993 24.5633 66.8472 23.5138 66.943 22.4644C67.0389 21.4149 67.1826 20.3678 67.4527 19.3184C67.7271 20.3678 67.8665 21.4173 67.9623 22.4644C68.0581 23.5115 68.1103 24.5633 68.106 25.6104L68.0712 27.1834C68.0363 27.7093 68.0232 28.2328 67.9623 28.7564C67.8665 29.8059 67.7227 30.8529 67.4527 31.9024Z" fill="#191815"/>
<path d="M62.0126 31.9024C61.7426 30.8529 61.5771 29.8059 61.503 28.7564C61.442 28.2328 61.429 27.7093 61.3941 27.1834L61.3593 25.6104C61.3593 24.5633 61.4072 23.5138 61.503 22.4644C61.5988 21.4149 61.7382 20.3678 62.0126 19.3184C62.2827 20.3678 62.4264 21.4173 62.5222 22.4644C62.6181 23.5115 62.6703 24.5633 62.666 25.6104L62.6268 27.1834C62.5919 27.7093 62.5789 28.2328 62.5179 28.7564C62.4221 29.8059 62.2783 30.8529 62.0126 31.9024Z" fill="#191815"/>
<path d="M64.7305 33.4635C64.4604 32.1535 64.2949 30.8458 64.2208 29.5358C64.1599 28.8832 64.1468 28.2281 64.112 27.5731L64.0771 25.6105L64.112 23.6478C64.1468 22.9928 64.1599 22.3401 64.2208 21.6851C64.3167 20.3775 64.4561 19.0674 64.7305 17.7598C65.0005 19.0674 65.1443 20.3775 65.2401 21.6851C65.3011 22.3401 65.3141 22.9928 65.349 23.6478L65.3838 25.6105L65.349 27.5731C65.3098 28.2281 65.2967 28.8832 65.2401 29.5358C65.1399 30.8458 65.0005 32.1535 64.7305 33.4635Z" fill="#191815"/>
<path d="M56.5552 33.4635C56.2851 32.1535 56.1414 30.8458 56.0456 29.5358C55.9846 28.8832 55.9715 28.2281 55.9367 27.5731L55.9018 25.6105L55.9367 23.6478C55.9715 22.9928 55.9846 22.3401 56.0456 21.6851C56.1414 20.3775 56.2808 19.0674 56.5552 17.7598C56.8252 19.0674 56.9907 20.3775 57.0648 21.6851C57.1258 22.3401 57.1388 22.9928 57.1737 23.6478L57.2085 25.6105L57.1737 27.5731C57.1345 28.2281 57.1214 28.8832 57.0648 29.5358C56.9646 30.8458 56.8252 32.1535 56.5552 33.4635Z" fill="#191815"/>
<path d="M53.8286 35.0578C53.5542 33.4824 53.4149 31.9094 53.319 30.334C53.2581 29.5475 53.245 28.7586 53.2102 27.9721L53.1753 25.6102L53.2058 23.2483C53.245 22.4618 53.2537 21.6753 53.3147 20.8864C53.4105 19.3134 53.5542 17.738 53.8286 16.165C54.0986 17.738 54.2642 19.3134 54.3382 20.8864C54.3992 21.6753 54.4079 22.4618 54.4471 23.2483L54.4776 25.6102L54.4427 27.9721C54.4079 28.7586 54.3948 29.5475 54.3339 30.334C54.238 31.9094 54.0986 33.4824 53.8286 35.0578Z" fill="#191815"/>
<path d="M138.378 31.1062C138.123 30.196 137.955 29.2791 137.873 28.3594C137.812 27.9004 137.799 27.4438 137.764 26.9848L137.724 25.6102C137.724 24.6946 137.772 23.779 137.868 22.8634C137.952 21.9428 138.122 21.0252 138.378 20.1143C138.636 21.0251 138.806 21.9428 138.887 22.8634C138.983 23.779 139.035 24.6946 139.031 25.6102L138.996 26.9848C138.961 27.4438 138.948 27.9004 138.887 28.3594C138.804 29.2792 138.634 30.196 138.378 31.1062Z" fill="#191815"/>
<path d="M122.018 31.9024C121.748 30.8529 121.583 29.8059 121.509 28.7564C121.452 28.2328 121.439 27.7093 121.4 27.1834L121.365 25.6104C121.365 24.5633 121.413 23.5138 121.509 22.4644C121.605 21.4149 121.748 20.3678 122.018 19.3184C122.293 20.3678 122.432 21.4173 122.528 22.4644C122.624 23.5115 122.676 24.5633 122.672 25.6104L122.637 27.1834C122.602 27.7093 122.589 28.2328 122.528 28.7564C122.432 29.8059 122.289 30.8529 122.018 31.9024Z" fill="#191815"/>
<path d="M127.467 31.9024C127.197 30.8529 127.032 29.8059 126.958 28.7564C126.897 28.2328 126.884 27.7093 126.849 27.1834L126.814 25.6104C126.814 24.5633 126.862 23.5138 126.958 22.4644C127.053 21.4149 127.193 20.3678 127.467 19.3184C127.737 20.3678 127.881 21.4173 127.977 22.4644C128.073 23.5115 128.121 24.5633 128.121 25.6104L128.081 27.1834C128.046 27.7093 128.033 28.2328 127.972 28.7564C127.877 29.8059 127.737 30.8529 127.467 31.9024Z" fill="#191815"/>
<path d="M113.834 47.697C113.582 44.0155 113.412 40.334 113.325 36.6525C113.264 34.8141 113.251 32.9733 113.216 31.1326L113.181 25.6103L113.216 20.0905C113.251 18.2497 113.264 16.409 113.325 14.5682C113.409 10.8867 113.579 7.20603 113.834 3.52612C114.087 7.20762 114.257 10.8883 114.344 14.5682C114.405 16.409 114.418 18.2497 114.453 20.0905L114.488 25.6103L114.453 31.1326C114.414 32.9733 114.401 34.8141 114.344 36.6525C114.257 40.334 114.087 44.0155 113.834 47.697Z" fill="#191815"/>
<path d="M119.292 29.7317C119.037 29.0519 118.865 28.3635 118.778 27.6711C118.682 26.985 118.639 26.2989 118.639 25.6104C118.639 24.9219 118.682 24.2382 118.778 23.5497C118.864 22.8572 119.036 22.1687 119.292 21.489C119.546 22.1689 119.718 22.8573 119.806 23.5497C119.902 24.2382 119.945 24.9243 119.945 25.6104C119.945 26.2965 119.897 26.985 119.801 27.6711C119.713 28.3633 119.543 29.0517 119.292 29.7317Z" fill="#191815"/>
<path d="M130.194 29.7317C129.941 29.0517 129.769 28.3634 129.68 27.6711C129.584 26.985 129.54 26.2989 129.54 25.6104C129.54 24.9219 129.584 24.2382 129.68 23.5497C129.768 22.8573 129.94 22.1689 130.194 21.489C130.448 22.1689 130.62 22.8573 130.708 23.5497C130.804 24.2382 130.847 24.9243 130.847 25.6104C130.847 26.2965 130.804 26.985 130.708 27.6711C130.62 28.3635 130.449 29.0519 130.194 29.7317Z" fill="#191815"/>
<path d="M141.113 30.0784C140.859 29.3399 140.69 28.5934 140.608 27.8432C140.503 27.0997 140.464 26.3562 140.46 25.6104C140.455 24.8645 140.503 24.121 140.603 23.3776C140.687 22.6282 140.858 21.8824 141.113 21.1448C141.373 21.882 141.543 22.6279 141.623 23.3776C141.727 24.121 141.766 24.8669 141.766 25.6104C141.766 26.3539 141.727 27.0997 141.623 27.8432C141.539 28.5934 141.369 29.34 141.113 30.0784Z" fill="#191815"/>
<path d="M143.826 28.644C143.573 28.1481 143.401 27.6409 143.313 27.1283C143.127 26.1197 143.127 25.1033 143.313 24.0947C143.401 23.5813 143.573 23.0733 143.826 22.5767C144.08 23.0733 144.252 23.5813 144.34 24.0947C144.529 25.1032 144.529 26.1198 144.34 27.1283C144.25 27.6408 144.078 28.1479 143.826 28.644Z" fill="#191815"/>
<path d="M239.256 42.7055C238.986 39.856 238.846 37.0088 238.75 34.1592C238.689 32.7248 238.676 31.3096 238.642 29.8848L238.602 25.6105L238.637 21.3361C238.676 19.9137 238.685 18.4889 238.746 17.0641C238.842 14.2145 238.986 11.365 239.256 8.51538C239.53 11.365 239.691 14.2145 239.765 17.0641C239.826 18.4985 239.839 19.9137 239.874 21.3361L239.909 25.6105L239.874 29.8848C239.839 31.3192 239.826 32.7344 239.765 34.1592C239.669 37.0088 239.548 39.856 239.256 42.7055Z" fill="#191815"/>
<path d="M241.987 35.4356C241.717 33.798 241.573 32.1605 241.477 30.5229C241.416 29.7053 241.403 28.8854 241.368 28.0678L241.333 25.6103L241.368 23.1551C241.403 22.3352 241.416 21.5176 241.477 20.6976C241.573 19.0601 241.712 17.4249 241.987 15.7874C242.257 17.4249 242.422 19.0601 242.496 20.6976C242.557 21.5176 242.566 22.3352 242.605 23.1551L242.64 25.6103L242.601 28.0678C242.566 28.8854 242.553 29.7053 242.492 30.5229C242.396 32.1605 242.257 33.798 241.987 35.4356Z" fill="#191815"/>
<path d="M252.897 39.282C252.627 37.0014 252.488 34.7231 252.392 32.4425C252.331 31.3022 252.318 30.1619 252.283 29.024L252.244 25.6031L252.279 22.1845C252.318 21.0442 252.327 19.9039 252.388 18.766C252.483 16.4854 252.627 14.2047 252.897 11.9265C253.172 14.2047 253.311 16.4854 253.407 18.766C253.468 19.9039 253.481 21.0442 253.516 22.1845L253.55 25.6031L253.516 29.024C253.481 30.1619 253.468 31.3022 253.407 32.4425C253.311 34.7399 253.167 37.0085 252.897 39.282Z" fill="#191815"/>
<path d="M261.081 37.5083C260.811 35.5265 260.672 33.5423 260.576 31.5605C260.515 30.5684 260.502 29.5763 260.467 28.5842L260.432 25.6103L260.463 22.6365C260.502 21.6444 260.511 20.6547 260.572 19.6626C260.667 17.6784 260.811 15.6966 261.081 13.7124C261.356 15.6966 261.517 17.6784 261.595 19.6626C261.656 20.6547 261.665 21.6444 261.704 22.6365L261.734 25.6103L261.7 28.5842C261.665 29.5763 261.652 30.5684 261.591 31.5605C261.495 33.5447 261.356 35.5265 261.081 37.5083Z" fill="#191815"/>
<path d="M280.171 35.0578C279.901 33.4824 279.758 31.9094 279.662 30.334C279.605 29.5475 279.588 28.7586 279.553 27.9721L279.518 25.6102L279.553 23.2483C279.588 22.4618 279.601 21.6753 279.662 20.8864C279.758 19.3134 279.901 17.738 280.171 16.165C280.441 17.738 280.585 19.3134 280.681 20.8864C280.742 21.6753 280.755 22.4618 280.79 23.2483L280.825 25.6102L280.79 27.9721C280.755 28.7586 280.738 29.5475 280.681 30.334C280.585 31.9094 280.441 33.4824 280.171 35.0578Z" fill="#191815"/>
<path d="M236.529 35.4356C236.259 33.798 236.094 32.1605 236.02 30.5229C235.959 29.7053 235.946 28.8854 235.911 28.0678L235.876 25.6103L235.911 23.1551C235.946 22.3352 235.959 21.5176 236.02 20.6976C236.115 19.0601 236.255 17.4249 236.529 15.7874C236.799 17.4249 236.943 19.0601 237.039 20.6976C237.1 21.5176 237.113 22.3352 237.148 23.1551L237.183 25.6103L237.148 28.0678C237.108 28.8854 237.095 29.7053 237.039 30.5229C236.934 32.1605 236.799 33.798 236.529 35.4356Z" fill="#191815"/>
<path d="M244.713 33.4324C244.443 32.1271 244.304 30.8242 244.204 29.5214C244.147 28.8687 244.134 28.2185 244.095 27.5659L244.06 25.6104L244.095 23.6549C244.13 23.0046 244.143 22.352 244.204 21.7018C244.299 20.3965 244.443 19.0936 244.713 17.7908C244.988 19.0936 245.127 20.3965 245.223 21.7018C245.284 22.352 245.297 23.0046 245.332 23.6549L245.367 25.6104L245.332 27.5659C245.297 28.2185 245.284 28.8687 245.223 29.5214C245.127 30.8242 244.983 32.1271 244.713 33.4324Z" fill="#191815"/>
<path d="M233.803 33.4324C233.528 32.1271 233.389 30.8242 233.293 29.5214C233.232 28.8687 233.219 28.2185 233.184 27.5659L233.149 25.6104L233.18 23.6549C233.219 23.0046 233.228 22.352 233.289 21.7018C233.384 20.3965 233.528 19.0936 233.803 17.7908C234.073 19.0936 234.238 20.3965 234.312 21.7018C234.373 22.352 234.382 23.0046 234.421 23.6549L234.452 25.6104L234.417 27.5659C234.382 28.2185 234.369 28.8687 234.308 29.5214C234.212 30.8242 234.073 32.1271 233.803 33.4324Z" fill="#191815"/>
<path d="M228.345 41.3716C228.075 38.7419 227.91 36.1123 227.836 33.4826C227.775 32.1702 227.762 30.853 227.727 29.5429L227.692 25.6033L227.727 21.6636C227.762 20.3511 227.775 19.0339 227.836 17.7239C227.931 15.0942 228.071 12.4646 228.345 9.83496C228.615 12.4646 228.759 15.0942 228.855 17.7239C228.916 19.0363 228.924 20.3535 228.964 21.6636L228.998 25.6033L228.959 29.5429C228.924 30.8578 228.911 32.1726 228.85 33.4826C228.755 36.117 228.615 38.7443 228.345 41.3716Z" fill="#191815"/>
<path d="M222.888 42.7772C222.618 39.9085 222.474 37.0542 222.378 34.1926C222.317 32.7583 222.304 31.3239 222.269 29.8896L222.234 25.5865L222.269 21.2954C222.304 19.8611 222.317 18.4267 222.378 16.9924C222.474 14.1237 222.613 11.2717 222.888 8.41016C223.158 11.2789 223.301 14.1308 223.397 16.9924C223.458 18.4267 223.471 19.8611 223.506 21.2954L223.541 25.5865L223.506 29.8896C223.467 31.3239 223.454 32.7583 223.397 34.1926C223.301 37.0542 223.158 39.9157 222.888 42.7772Z" fill="#191815"/>
<path d="M225.61 47.697C225.357 44.0155 225.189 40.334 225.105 36.6525C225.044 34.8141 225.031 32.9733 224.996 31.1326L224.957 25.6103L224.991 20.0905C225.031 18.2497 225.039 16.409 225.1 14.5682C225.187 10.8867 225.357 7.20603 225.61 3.52612C225.865 7.20762 226.035 10.8883 226.119 14.5682C226.18 16.409 226.194 18.2497 226.228 20.0905L226.263 25.6103L226.228 31.1326C226.194 32.9733 226.18 34.8141 226.119 36.6525C226.035 40.334 225.865 44.0155 225.61 47.697Z" fill="#191815"/>
<path d="M217.43 35.0578C217.16 33.4824 217.021 31.9094 216.925 30.334C216.864 29.5475 216.851 28.7586 216.812 27.9721L216.777 25.6102L216.812 23.2483C216.847 22.4618 216.86 21.6753 216.921 20.8864C217.017 19.3134 217.16 17.738 217.43 16.165C217.705 17.738 217.866 19.3134 217.94 20.8864C218.001 21.6753 218.014 22.4618 218.049 23.2483L218.084 25.6102L218.049 27.9721C218.014 28.7586 218.001 29.5475 217.94 30.334C217.844 31.9094 217.7 33.4824 217.43 35.0578Z" fill="#191815"/>
<path d="M250.171 33.4635C249.901 32.1535 249.757 30.8458 249.661 29.5358C249.6 28.8832 249.587 28.2281 249.552 27.5731L249.517 25.6105L249.552 23.6478C249.587 22.9928 249.6 22.3401 249.661 21.6851C249.757 20.3775 249.896 19.0674 250.171 17.7598C250.441 19.0674 250.606 20.3775 250.68 21.6851C250.741 22.3401 250.754 22.9928 250.789 23.6478L250.824 25.6105L250.789 27.5731C250.75 28.2281 250.737 28.8832 250.68 29.5358C250.58 30.8458 250.436 32.1535 250.171 33.4635Z" fill="#191815"/>
<path d="M255.628 33.4635C255.358 32.1535 255.193 30.8458 255.118 29.5358C255.057 28.8832 255.044 28.2281 255.01 27.5731L254.975 25.6105L255.01 23.6478C255.044 22.9928 255.057 22.3401 255.118 21.6851C255.214 20.3775 255.354 19.0674 255.628 17.7598C255.898 19.0674 256.042 20.3775 256.138 21.6851C256.199 22.3401 256.207 22.9928 256.247 23.6478L256.281 25.6105L256.242 27.5731C256.207 28.2281 256.194 28.8832 256.133 29.5358C256.038 30.8458 255.898 32.1535 255.628 33.4635Z" fill="#191815"/>
<path d="M269.269 33.4635C268.999 32.1535 268.856 30.8458 268.76 29.5358C268.699 28.8832 268.686 28.2281 268.651 27.5731L268.616 25.6105L268.651 23.6478C268.686 22.9928 268.699 22.3401 268.76 21.6851C268.856 20.3775 268.995 19.0674 269.269 17.7598C269.54 19.0674 269.705 20.3775 269.779 21.6851C269.84 22.3401 269.849 22.9928 269.888 23.6478L269.923 25.6105L269.884 27.5731C269.849 28.2281 269.836 28.8832 269.775 29.5358C269.679 30.8458 269.54 32.1535 269.269 33.4635Z" fill="#191815"/>
<path d="M277.44 33.4635C277.17 32.1535 277.005 30.8458 276.931 29.5358C276.87 28.8832 276.857 28.2281 276.822 27.5731L276.787 25.6105L276.822 23.6478C276.857 22.9928 276.87 22.3401 276.931 21.6851C277.027 20.3775 277.166 19.0674 277.44 17.7598C277.71 19.0674 277.854 20.3775 277.95 21.6851C278.011 22.3401 278.02 22.9928 278.059 23.6478L278.094 25.6105L278.055 27.5731C278.02 28.2281 278.007 28.8832 277.946 29.5358C277.876 30.8458 277.715 32.1535 277.44 33.4635Z" fill="#191815"/>
<path d="M247.44 30.6425C247.186 29.81 247.017 28.9704 246.934 28.1276C246.83 27.2885 246.791 26.4542 246.786 25.6103C246.782 24.7664 246.83 23.9369 246.93 23.0954C247.014 22.2517 247.184 21.4113 247.44 20.5781C247.699 21.4111 247.871 22.2516 247.954 23.0954C248.054 23.9345 248.093 24.7688 248.097 25.6103C248.102 26.4518 248.054 27.2837 247.949 28.1276C247.868 28.9706 247.697 29.8102 247.44 30.6425Z" fill="#191815"/>
<path d="M231.072 30.6425C230.818 29.8099 230.648 28.9704 230.562 28.1276C230.462 27.2885 230.423 26.4542 230.418 25.6103C230.414 24.7664 230.458 23.9369 230.562 23.0954C230.646 22.2517 230.816 21.4113 231.072 20.5781C231.33 21.4111 231.5 22.2516 231.581 23.0954C231.686 23.9345 231.725 24.7688 231.725 25.6103C231.725 26.4518 231.686 27.2837 231.581 28.1276C231.497 28.9705 231.327 29.8101 231.072 30.6425Z" fill="#191815"/>
<path d="M220.161 39.282C219.887 37.0014 219.747 34.7231 219.652 32.4425C219.591 31.3022 219.578 30.1619 219.543 29.024L219.508 25.6031L219.538 22.1845C219.578 21.0442 219.591 19.9039 219.647 18.766C219.743 16.4854 219.887 14.2047 220.161 11.9265C220.431 14.2047 220.597 16.4854 220.671 18.766C220.732 19.9039 220.74 21.0442 220.78 22.1845L220.814 25.6031L220.775 29.024C220.74 30.1619 220.727 31.3022 220.666 32.4425C220.571 34.7399 220.431 37.0085 220.161 39.282Z" fill="#191815"/>
<path d="M214.721 29.7317C214.466 29.0519 214.295 28.3635 214.207 27.6711C214.111 26.985 214.068 26.2989 214.068 25.6104C214.068 24.9219 214.111 24.2382 214.207 23.5497C214.295 22.8573 214.467 22.1689 214.721 21.489C214.975 22.1689 215.147 22.8573 215.235 23.5497C215.331 24.2382 215.374 24.9243 215.374 25.6104C215.374 26.2965 215.327 26.985 215.231 27.6711C215.143 28.3633 214.972 29.0517 214.721 29.7317Z" fill="#191815"/>
<path d="M203.806 29.7317C203.551 29.0519 203.38 28.3635 203.292 27.6711C203.196 26.985 203.153 26.2989 203.153 25.6104C203.153 24.9219 203.196 24.2382 203.292 23.5497C203.378 22.8572 203.55 22.1687 203.806 21.489C204.059 22.169 204.229 22.8574 204.316 23.5497C204.412 24.2382 204.46 24.9251 204.46 25.6104C204.46 26.2989 204.412 26.985 204.316 27.6711C204.228 28.3633 204.057 29.0517 203.806 29.7317Z" fill="#191815"/>
<path d="M195.618 31.1062C195.363 30.196 195.195 29.2791 195.113 28.3594C195.052 27.9004 195.039 27.4438 195.004 26.9848L194.965 25.6102C194.965 24.6946 195.012 23.779 195.108 22.8634C195.192 21.9428 195.362 21.0252 195.618 20.1143C195.876 21.0251 196.046 21.9428 196.128 22.8634C196.223 23.779 196.276 24.6946 196.271 25.6102L196.236 26.9848C196.202 27.4438 196.188 27.9004 196.128 28.3594C196.044 29.2792 195.874 30.196 195.618 31.1062Z" fill="#191815"/>
<path d="M192.9 30.0784C192.647 29.3398 192.477 28.5933 192.39 27.8432C192.29 27.0997 192.251 26.3562 192.247 25.6104C192.242 24.8645 192.286 24.121 192.39 23.3776C192.474 22.6282 192.645 21.8824 192.9 21.1448C193.158 21.8822 193.328 22.628 193.41 23.3776C193.514 24.121 193.553 24.8669 193.553 25.6104C193.553 26.3539 193.514 27.0997 193.41 27.8432C193.326 28.5934 193.155 29.34 192.9 30.0784Z" fill="#191815"/>
<path d="M190.173 28.644C189.92 28.1481 189.748 27.6409 189.66 27.1283C189.474 26.1197 189.474 25.1033 189.66 24.0947C189.748 23.5813 189.92 23.0733 190.173 22.5767C190.427 23.0733 190.599 23.5813 190.687 24.0947C190.876 25.1032 190.876 26.1198 190.687 27.1283C190.597 27.6408 190.425 28.1479 190.173 28.644Z" fill="#191815"/>
<path d="M211.973 31.9024C211.703 30.8529 211.563 29.8059 211.468 28.7564C211.407 28.2328 211.394 27.7093 211.359 27.1834L211.319 25.6104C211.319 24.5633 211.372 23.5138 211.463 22.4644C211.555 21.4149 211.703 20.3678 211.973 19.3184C212.247 20.3678 212.387 21.4173 212.482 22.4644C212.578 23.5115 212.63 24.5633 212.626 25.6104L212.591 27.1834C212.557 27.7093 212.543 28.2328 212.482 28.7564C212.387 29.8059 212.243 30.8529 211.973 31.9024Z" fill="#191815"/>
<path d="M206.533 31.9024C206.263 30.8529 206.119 29.8059 206.023 28.7564C205.962 28.2328 205.949 27.7093 205.914 27.1834L205.879 25.6104C205.879 24.5633 205.927 23.5138 206.023 22.4644C206.119 21.4149 206.258 20.3678 206.533 19.3184C206.803 20.3678 206.968 21.4173 207.042 22.4644C207.116 23.5115 207.19 24.5633 207.186 25.6104L207.151 27.1834C207.112 27.7093 207.099 28.2328 207.042 28.7564C206.942 29.8059 206.803 30.8529 206.533 31.9024Z" fill="#191815"/>
<path d="M209.251 33.4635C208.981 32.1535 208.841 30.8458 208.741 29.5358C208.684 28.8832 208.671 28.2281 208.632 27.5731L208.597 25.6105L208.632 23.6478C208.667 22.9928 208.68 22.3401 208.741 21.6851C208.837 20.3775 208.981 19.0674 209.251 17.7598C209.525 19.0674 209.664 20.3775 209.76 21.6851C209.821 22.3401 209.834 22.9928 209.869 23.6478L209.904 25.6105L209.869 27.5731C209.834 28.2281 209.821 28.8832 209.76 29.5358C209.664 30.8458 209.521 32.1535 209.251 33.4635Z" fill="#191815"/>
<path d="M201.075 33.4635C200.805 32.1535 200.666 30.8458 200.566 29.5358C200.509 28.8832 200.496 28.2281 200.457 27.5731L200.422 25.6105L200.457 23.6478C200.492 22.9928 200.505 22.3401 200.566 21.6851C200.662 20.3775 200.805 19.0674 201.075 17.7598C201.35 19.0674 201.489 20.3775 201.585 21.6851C201.646 22.3401 201.659 22.9928 201.694 23.6478L201.729 25.6105L201.694 27.5731C201.659 28.2281 201.646 28.8832 201.585 29.5358C201.489 30.8458 201.345 32.1535 201.075 33.4635Z" fill="#191815"/>
<path d="M198.349 35.0578C198.079 33.4824 197.935 31.9094 197.839 30.334C197.778 29.5475 197.765 28.7586 197.73 27.9721L197.695 25.6102L197.73 23.2483C197.765 22.4618 197.778 21.6753 197.839 20.8864C197.935 19.3134 198.074 17.738 198.349 16.165C198.619 17.738 198.784 19.3134 198.858 20.8864C198.919 21.6753 198.928 22.4618 198.967 23.2483L199.002 25.6102L198.963 27.9721C198.928 28.7586 198.915 29.5475 198.854 30.334C198.758 31.9094 198.606 33.4824 198.349 35.0578Z" fill="#191815"/>
<path d="M282.898 31.1062C282.643 30.196 282.475 29.2791 282.393 28.3594C282.332 27.9004 282.319 27.4438 282.284 26.9848L282.245 25.6102C282.245 24.6946 282.297 23.779 282.388 22.8634C282.472 21.9428 282.642 21.0252 282.898 20.1143C283.157 21.025 283.329 21.9427 283.412 22.8634C283.503 23.779 283.556 24.6946 283.551 25.6102L283.516 26.9848C283.482 27.4438 283.468 27.9004 283.408 28.3594C283.326 29.2793 283.156 30.1961 282.898 31.1062Z" fill="#191815"/>
<path d="M266.552 31.9024C266.282 30.8529 266.142 29.8059 266.046 28.7564C265.985 28.2328 265.972 27.7093 265.938 27.1834L265.898 25.6104C265.898 24.5633 265.946 23.5138 266.042 22.4644C266.138 21.4149 266.282 20.3678 266.552 19.3184C266.826 20.3678 266.987 21.4173 267.061 22.4644C267.135 23.5115 267.209 24.5633 267.205 25.6104L267.17 27.1834C267.135 27.7093 267.122 28.2328 267.061 28.7564C266.952 29.8059 266.809 30.8529 266.552 31.9024Z" fill="#191815"/>
<path d="M271.987 31.9024C271.717 30.8529 271.574 29.8059 271.478 28.7564C271.417 28.2328 271.404 27.7093 271.369 27.1834L271.334 25.6104C271.334 24.5633 271.382 23.5138 271.478 22.4644C271.574 21.4149 271.713 20.3678 271.987 19.3184C272.257 20.3678 272.401 21.4173 272.497 22.4644C272.593 23.5115 272.645 24.5633 272.641 25.6104L272.606 27.1834C272.567 27.7093 272.553 28.2328 272.493 28.7564C272.397 29.8059 272.257 30.8529 271.987 31.9024Z" fill="#191815"/>
<path d="M258.355 29.7317C258.102 29.0517 257.93 28.3634 257.841 27.6711C257.745 26.985 257.701 26.2989 257.701 25.6104C257.701 24.9219 257.745 24.2382 257.841 23.5497C257.929 22.8573 258.1 22.1689 258.355 21.489C258.609 22.1689 258.781 22.8573 258.869 23.5497C258.964 24.2382 259.008 24.9243 259.008 25.6104C259.008 26.2965 258.964 26.985 258.869 27.6711C258.781 28.3635 258.609 29.0519 258.355 29.7317Z" fill="#191815"/>
<path d="M263.812 29.7317C263.557 29.0519 263.386 28.3635 263.298 27.6711C263.202 26.985 263.159 26.2989 263.159 25.6104C263.159 24.9219 263.202 24.2382 263.298 23.5497C263.386 22.8573 263.558 22.1689 263.812 21.489C264.066 22.1689 264.238 22.8573 264.326 23.5497C264.422 24.2382 264.465 24.9243 264.465 25.6104C264.465 26.2965 264.417 26.985 264.322 27.6711C264.236 28.3634 264.065 29.0519 263.812 29.7317Z" fill="#191815"/>
<path d="M274.714 29.7317C274.463 29.0517 274.292 28.3633 274.204 27.6711C274.108 26.9858 274.061 26.2989 274.061 25.6104C274.061 24.9243 274.104 24.2382 274.2 23.5497C274.288 22.8573 274.46 22.1689 274.714 21.489C274.968 22.1689 275.14 22.8573 275.228 23.5497C275.324 24.2382 275.367 24.9243 275.367 25.6104C275.367 26.2965 275.324 26.985 275.228 27.6711C275.14 28.3635 274.969 29.0519 274.714 29.7317Z" fill="#191815"/>
<path d="M285.62 30.076C285.364 29.3384 285.194 28.5926 285.111 27.8432C285.006 27.0997 284.967 26.3562 284.967 25.6104C284.967 24.8645 285.006 24.121 285.111 23.3776C285.19 22.6279 285.36 21.882 285.62 21.1448C285.876 21.8824 286.046 22.6282 286.13 23.3776C286.23 24.121 286.269 24.8669 286.273 25.6104C286.278 26.3539 286.23 27.0997 286.125 27.8432C286.043 28.5926 285.874 29.3383 285.62 30.076Z" fill="#191815"/>
<path d="M288.329 28.644C288.076 28.1481 287.904 27.6409 287.815 27.1283C287.629 26.1197 287.629 25.1033 287.815 24.0947C287.904 23.5813 288.076 23.0733 288.329 22.5767C288.582 23.0733 288.754 23.5813 288.843 24.0947C289.029 25.1033 289.029 26.1197 288.843 27.1283C288.754 27.6409 288.582 28.1481 288.329 28.644Z" fill="#191815"/>
<path d="M168.352 52C168.1 47.6667 167.931 43.3333 167.847 39C167.786 36.8341 167.773 34.6659 167.738 32.5L167.699 26L167.734 19.5C167.773 17.3341 167.782 15.1659 167.843 13C167.93 8.66667 168.1 4.33333 168.352 0C168.611 4.33493 168.781 8.66826 168.862 13C168.923 15.1659 168.936 17.3341 168.971 19.5L169.006 26L168.971 32.5C168.936 34.6659 168.923 36.8341 168.862 39C168.775 43.3317 168.605 47.6651 168.352 52Z" fill="#191815"/>
<path d="M171.083 47.9647C170.831 44.2991 170.661 40.6383 170.574 36.9823C170.513 35.1511 170.5 33.3223 170.465 31.484L170.43 25.9856L170.465 20.4873C170.5 18.6561 170.513 16.8273 170.574 14.9889C170.658 11.3234 170.828 7.66259 171.083 4.00659C171.336 7.67215 171.506 11.3329 171.593 14.9889C171.654 16.8201 171.663 18.6489 171.702 20.4873L171.737 25.9856L171.697 31.484C171.663 33.3152 171.649 35.144 171.589 36.9823C171.507 40.6431 171.339 44.3039 171.083 47.9647Z" fill="#191815"/>
<path d="M181.994 47.1208C181.741 43.5986 181.573 40.0781 181.489 36.5592C181.428 34.7997 181.415 33.0402 181.38 31.2808L181.341 26L181.375 20.7191C181.415 18.9597 181.423 17.2002 181.484 15.4407C181.571 11.9186 181.741 8.39809 181.994 4.87915C182.249 8.40128 182.419 11.9218 182.503 15.4407C182.564 17.2002 182.578 18.9597 182.612 20.7191L182.647 26L182.612 31.2808C182.578 33.0402 182.564 34.7997 182.503 36.5592C182.416 40.0813 182.247 43.6018 181.994 47.1208Z" fill="#191815"/>
<path d="M190.178 47.1208C189.925 43.5986 189.757 40.0781 189.673 36.5592C189.612 34.7997 189.599 33.0402 189.564 31.2808L189.525 26L189.559 20.7191C189.599 18.9597 189.607 17.2002 189.668 15.4407C189.755 11.9186 189.925 8.39809 190.178 4.87915C190.433 8.40128 190.603 11.9218 190.687 15.4407C190.748 17.2002 190.762 18.9597 190.796 20.7191L190.831 26L190.796 31.2808C190.762 33.0402 190.748 34.7997 190.687 36.5592C190.6 40.0813 190.43 43.6018 190.178 47.1208Z" fill="#191815"/>
<path d="M209.268 43.5542C208.998 40.6281 208.854 37.702 208.758 34.7783C208.698 33.3153 208.684 31.8523 208.65 30.3892L208.615 26.0001L208.65 21.611C208.684 20.148 208.698 18.6849 208.758 17.2243C208.854 14.2982 208.994 11.3721 209.268 8.44604C209.538 11.3721 209.682 14.2982 209.778 17.2243C209.839 18.6849 209.852 20.148 209.886 21.611L209.921 26.0001L209.886 30.3892C209.847 31.8523 209.834 33.3153 209.778 34.7783C209.682 37.702 209.538 40.6281 209.268 43.5542Z" fill="#191815"/>
<path d="M165.626 47.9647C165.373 44.2991 165.203 40.6383 165.116 36.9823C165.055 35.1511 165.042 33.3223 165.007 31.484L164.973 25.9856L165.007 20.4873C165.042 18.6561 165.055 16.8273 165.116 14.9889C165.201 11.3234 165.37 7.66259 165.626 4.00659C165.878 7.67215 166.048 11.3329 166.135 14.9889C166.196 16.8201 166.209 18.6489 166.244 20.4873L166.279 25.9856L166.244 31.484C166.205 33.3152 166.192 35.144 166.135 36.9823C166.048 40.6431 165.878 44.3039 165.626 47.9647Z" fill="#191815"/>
<path d="M173.81 43.4849C173.54 40.5707 173.374 37.6566 173.3 34.7425C173.244 33.2866 173.226 31.8284 173.191 30.3725L173.157 26.0001L173.191 21.6301C173.226 20.1719 173.239 18.716 173.3 17.2578C173.396 14.3436 173.54 11.4295 173.81 8.51538C174.084 11.4295 174.224 14.3436 174.319 17.2578C174.38 18.716 174.393 20.1719 174.428 21.6301L174.463 26.0001L174.428 30.3725C174.393 31.8284 174.38 33.2866 174.319 34.7425C174.215 37.6566 174.08 40.5707 173.81 43.4849Z" fill="#191815"/>
<path d="M162.891 43.4849C162.621 40.5707 162.481 37.6566 162.385 34.7425C162.324 33.2866 162.311 31.8284 162.276 30.3725L162.242 26.0001L162.272 21.6301C162.311 20.1719 162.32 18.716 162.381 17.2578C162.477 14.3436 162.621 11.4295 162.891 8.51538C163.165 11.4295 163.326 14.3436 163.404 17.2578C163.465 18.716 163.474 20.1719 163.513 21.6301L163.544 26.0001L163.509 30.3725C163.474 31.8284 163.461 33.2866 163.4 34.7425C163.326 37.6566 163.169 40.5707 162.891 43.4849Z" fill="#191815"/>
<path d="M157.442 43.4849C157.172 40.5707 157.028 37.6566 156.932 34.7425C156.871 33.2866 156.858 31.8284 156.823 30.3725L156.789 26.0001L156.823 21.6301C156.858 20.1719 156.871 18.716 156.932 17.2578C157.028 14.3436 157.167 11.4295 157.442 8.51538C157.712 11.4295 157.877 14.3436 157.951 17.2578C158.012 18.716 158.021 20.1719 158.06 21.6301L158.095 26.0001L158.056 30.3725C158.021 31.8284 158.008 33.2866 157.947 34.7425C157.851 37.6566 157.712 40.5707 157.442 43.4849Z" fill="#191815"/>
<path d="M152.002 43.4849C151.732 40.5707 151.566 37.6566 151.492 34.7425C151.431 33.2866 151.418 31.8284 151.383 30.3725L151.348 26.0001L151.383 21.6301C151.418 20.1719 151.431 18.716 151.492 17.2578C151.588 14.3436 151.727 11.4295 152.002 8.51538C152.272 11.4295 152.437 14.3436 152.511 17.2578C152.572 18.716 152.585 20.1719 152.62 21.6301L152.655 26.0001L152.62 30.3725C152.581 31.8284 152.568 33.2866 152.511 34.7425C152.394 37.6566 152.254 40.5707 152.002 43.4849Z" fill="#191815"/>
<path d="M154.711 47.1208C154.458 43.5986 154.29 40.0781 154.206 36.5592C154.145 34.7997 154.132 33.0402 154.097 31.2808L154.058 26L154.092 20.7191C154.132 18.9597 154.14 17.2002 154.201 15.4407C154.288 11.9186 154.458 8.39809 154.711 4.87915C154.966 8.40128 155.136 11.9218 155.221 15.4407C155.282 17.2002 155.295 18.9597 155.329 20.7191L155.364 26L155.329 31.2808C155.295 33.0402 155.282 34.7997 155.221 36.5592C155.133 40.0813 154.964 43.6018 154.711 47.1208Z" fill="#191815"/>
<path d="M146.527 47.1208C146.274 43.5986 146.104 40.0781 146.017 36.5592C145.961 34.7997 145.948 33.0402 145.908 31.2808L145.874 26L145.908 20.7191C145.943 18.9597 145.956 17.2002 146.017 15.4407C146.104 11.9186 146.274 8.39809 146.527 4.87915C146.78 8.40128 146.949 11.9218 147.036 15.4407C147.097 17.2002 147.111 18.9597 147.145 20.7191L147.18 26L147.145 31.2808C147.111 33.0402 147.097 34.7997 147.036 36.5592C146.949 40.0813 146.78 43.6018 146.527 47.1208Z" fill="#191815"/>
<path d="M179.267 43.5542C178.997 40.6281 178.854 37.702 178.758 34.7783C178.697 33.3153 178.684 31.8523 178.649 30.3892L178.614 26.0001L178.649 21.611C178.684 20.148 178.697 18.6849 178.758 17.2243C178.854 14.2982 178.993 11.3721 179.267 8.44604C179.537 11.3721 179.703 14.2982 179.777 17.2243C179.838 18.6849 179.851 20.148 179.886 21.611L179.921 26.0001L179.877 30.3892C179.842 31.8523 179.829 33.3153 179.768 34.7783C179.677 37.702 179.537 40.6281 179.267 43.5542Z" fill="#191815"/>
<path d="M184.725 43.5542C184.455 40.6281 184.289 37.702 184.215 34.7783C184.154 33.3153 184.141 31.8523 184.106 30.3892L184.071 26.0001L184.106 21.611C184.141 20.148 184.154 18.6849 184.215 17.2243C184.311 14.2982 184.45 11.3721 184.725 8.44604C184.995 11.3721 185.139 14.2982 185.234 17.2243C185.295 18.6849 185.304 20.148 185.343 21.611L185.378 26.0001L185.339 30.3892C185.304 31.8523 185.291 33.3153 185.23 34.7783C185.134 37.702 184.995 40.6281 184.725 43.5542Z" fill="#191815"/>
<path d="M198.366 43.5542C198.092 40.6281 197.952 37.702 197.857 34.7783C197.796 33.3153 197.783 31.8523 197.748 30.3892L197.713 26.0001L197.748 21.611C197.783 20.148 197.796 18.6849 197.852 17.2243C197.948 14.2982 198.092 11.3721 198.366 8.44604C198.636 11.3721 198.802 14.2982 198.876 17.2243C198.937 18.6849 198.946 20.148 198.985 21.611L199.019 26.0001L198.98 30.3892C198.946 31.8523 198.932 33.3153 198.871 34.7783C198.776 37.702 198.636 40.6281 198.366 43.5542Z" fill="#191815"/>
<path d="M176.536 37.2502C176.266 35.376 176.127 33.4994 176.031 31.6251C175.97 30.688 175.957 29.7509 175.922 28.8138L175.883 26.0001L175.918 23.1888C175.957 22.2493 175.966 21.3121 176.027 20.375C176.123 18.5008 176.266 16.6242 176.536 14.75C176.811 16.6242 176.972 18.5008 177.05 20.375C177.107 21.3121 177.12 22.2493 177.159 23.1888L177.19 26.0001L177.155 28.8138C177.12 29.7509 177.107 30.688 177.046 31.6251C176.95 33.4994 176.828 35.376 176.536 37.2502Z" fill="#191815"/>
<path d="M160.168 37.2502C159.898 35.376 159.759 33.4994 159.659 31.6251C159.602 30.688 159.589 29.7509 159.55 28.8138L159.515 26.0001L159.55 23.1888C159.585 22.2493 159.598 21.3121 159.659 20.375C159.755 18.5008 159.898 16.6242 160.168 14.75C160.443 16.6242 160.582 18.5008 160.678 20.375C160.739 21.3121 160.752 22.2493 160.787 23.1888L160.822 26.0001L160.787 28.8138C160.752 29.7509 160.739 30.688 160.678 31.6251C160.582 33.4994 160.438 35.376 160.168 37.2502Z" fill="#191815"/>
<path d="M149.253 35.2181C148.983 33.6809 148.844 32.1462 148.748 30.609C148.687 29.8417 148.674 29.0743 148.639 28.3069L148.604 26.0024L148.635 23.6979C148.674 22.9305 148.683 22.1631 148.744 21.3957C148.84 19.8586 148.983 18.3238 149.253 16.7891C149.528 18.3238 149.689 19.8586 149.767 21.3957C149.828 22.1631 149.837 22.9305 149.876 23.6979L149.907 26.0024L149.872 28.3069C149.837 29.0743 149.824 29.8417 149.763 30.609C149.667 32.1438 149.528 33.6786 149.253 35.2181Z" fill="#191815"/>
<path d="M143.8 35.2181C143.53 33.6809 143.365 32.1462 143.291 30.609C143.23 29.8417 143.217 29.0743 143.182 28.3069L143.147 26.0024L143.182 23.6979C143.217 22.9305 143.23 22.1631 143.291 21.3957C143.387 19.8586 143.526 18.3238 143.8 16.7891C144.07 18.3238 144.214 19.8586 144.31 21.3957C144.371 22.1631 144.38 22.9305 144.419 23.6979L144.454 26.0024L144.415 28.3069C144.38 29.0743 144.367 29.8417 144.306 30.609C144.21 32.1438 144.07 33.6786 143.8 35.2181Z" fill="#191815"/>
<path d="M132.899 35.2181C132.628 33.6809 132.489 32.1462 132.393 30.609C132.332 29.8417 132.319 29.0743 132.284 28.3069L132.245 26.0024L132.28 23.6979C132.319 22.9305 132.328 22.1631 132.389 21.3957C132.485 19.8586 132.628 18.3238 132.899 16.7891C133.173 18.3238 133.334 19.8586 133.412 21.3957C133.469 22.1631 133.482 22.9305 133.521 23.6979L133.552 26.0024L133.517 28.3069C133.482 29.0743 133.469 29.8417 133.408 30.609C133.312 32.1438 133.173 33.6786 132.899 35.2181Z" fill="#191815"/>
<path d="M124.715 38.2876C124.444 36.2389 124.305 34.1925 124.209 32.1438C124.148 31.1206 124.135 30.0951 124.1 29.0719L124.061 26L124.096 22.9281C124.135 21.9049 124.144 20.8818 124.205 19.8562C124.301 17.8099 124.444 15.7611 124.715 13.7124C124.989 15.7611 125.15 17.8099 125.224 19.8562C125.285 20.8818 125.298 21.9049 125.333 22.9281L125.368 26L125.333 29.0719C125.298 30.0951 125.285 31.1206 125.224 32.1438C125.128 34.1925 124.998 36.2389 124.715 38.2876Z" fill="#191815"/>
<path d="M121.997 35.9854C121.727 34.3119 121.587 32.6577 121.487 30.9938C121.43 30.1595 121.417 29.3204 121.378 28.4957L121.343 25.9999L121.378 23.5041C121.413 22.6722 121.426 21.8307 121.487 21.0083C121.583 19.3349 121.727 17.6783 121.997 16.0144C122.271 17.6878 122.432 19.3421 122.506 21.0083C122.567 21.8403 122.58 22.6817 122.615 23.5041L122.65 25.9999L122.615 28.4957C122.58 29.3276 122.567 30.1691 122.506 30.9938C122.41 32.6577 122.267 34.3215 121.997 35.9854Z" fill="#191815"/>
<path d="M119.27 32.7846C119 31.6538 118.856 30.5231 118.761 29.3923C118.7 28.8258 118.687 28.2616 118.652 27.695L118.617 26.0001L118.652 24.3052C118.687 23.7386 118.7 23.1744 118.761 22.6079C118.856 21.4771 118.996 20.3464 119.27 19.218C119.54 20.3464 119.706 21.4771 119.78 22.6079C119.841 23.1744 119.849 23.7386 119.889 24.3052L119.923 26.0001L119.884 27.695C119.849 28.2616 119.836 28.8258 119.775 29.3923C119.68 30.5231 119.54 31.6538 119.27 32.7846Z" fill="#191815"/>
<path d="M141.069 40.0663C140.799 37.7235 140.66 35.3783 140.564 33.0331C140.503 31.8618 140.49 30.688 140.455 29.5166L140.416 26L140.451 22.4835C140.49 21.3121 140.499 20.1383 140.56 18.9669C140.656 16.6218 140.799 14.279 141.069 11.9338C141.344 14.279 141.483 16.6218 141.579 18.9669C141.64 20.1383 141.653 21.3121 141.688 22.4835L141.723 26L141.688 29.5166C141.653 30.688 141.64 31.8618 141.579 33.0331C141.483 35.3783 141.34 37.7235 141.069 40.0663Z" fill="#191815"/>
<path d="M135.629 40.0663C135.359 37.7235 135.194 35.3783 135.12 33.0331C135.059 31.8618 135.046 30.688 135.011 29.5166L134.976 26L135.011 22.4835C135.046 21.3121 135.059 20.1383 135.12 18.9669C135.216 16.6218 135.355 14.279 135.629 11.9338C135.9 14.279 136.043 16.6218 136.139 18.9669C136.2 20.1383 136.213 21.3121 136.248 22.4835L136.283 26L136.248 29.5166C136.209 30.688 136.196 31.8618 136.135 33.0331C136.039 35.3783 135.886 37.7235 135.629 40.0663Z" fill="#191815"/>
<path d="M138.347 43.5542C138.077 40.6281 137.912 37.702 137.838 34.7783C137.781 33.3153 137.764 31.8523 137.729 30.3892L137.694 26.0001L137.729 21.611C137.764 20.148 137.777 18.6849 137.838 17.2243C137.934 14.2982 138.077 11.3721 138.347 8.44604C138.617 11.3721 138.761 14.2982 138.857 17.2243C138.918 18.6849 138.931 20.148 138.966 21.611L139.001 26.0001L138.966 30.3892C138.931 31.8523 138.913 33.3153 138.857 34.7783C138.761 37.702 138.617 40.6281 138.347 43.5542Z" fill="#191815"/>
<path d="M130.172 43.5542C129.902 40.6281 129.736 37.7044 129.662 34.7783C129.606 33.3153 129.593 31.8523 129.554 30.3892L129.519 26.0001L129.554 21.611C129.588 20.148 129.601 18.6849 129.662 17.2243C129.758 14.2982 129.902 11.3721 130.172 8.44604C130.446 11.3721 130.586 14.2982 130.682 17.2243C130.743 18.6849 130.756 20.148 130.791 21.611L130.825 26.0001L130.791 30.3892C130.756 31.8523 130.743 33.3153 130.682 34.7783C130.586 37.7044 130.442 40.6281 130.172 43.5542Z" fill="#191815"/>
<path d="M211.995 38.2876C211.725 36.2389 211.585 34.1902 211.489 32.1438C211.428 31.1206 211.415 30.0951 211.38 29.0719L211.341 26L211.376 22.9281C211.415 21.9049 211.424 20.8818 211.485 19.8562C211.581 17.8099 211.725 15.7611 211.995 13.7124C212.269 15.7611 212.43 17.8099 212.504 19.8562C212.565 20.8818 212.578 21.9049 212.613 22.9281L212.648 26L212.613 29.0719C212.578 30.0951 212.565 31.1206 212.504 32.1438C212.408 34.1902 212.265 36.2389 211.995 38.2876Z" fill="#191815"/>
<path d="M195.635 40.0663C195.365 37.7235 195.226 35.3783 195.13 33.0331C195.069 31.8618 195.056 30.688 195.021 29.5166L194.982 26L195.017 22.4835C195.052 21.3121 195.065 20.1383 195.126 18.9669C195.222 16.6218 195.365 14.279 195.635 11.9338C195.91 14.279 196.071 16.6218 196.145 18.9669C196.206 20.1383 196.219 21.3121 196.254 22.4835L196.289 26L196.254 29.5166C196.219 30.688 196.206 31.8618 196.145 33.0331C196.049 35.3783 195.905 37.7235 195.635 40.0663Z" fill="#191815"/>
<path d="M201.084 40.0663C200.814 37.7235 200.648 35.3783 200.574 33.0331C200.513 31.8618 200.5 30.688 200.466 29.5166L200.431 26L200.466 22.4835C200.5 21.3121 200.513 20.1383 200.574 18.9669C200.67 16.6218 200.81 14.279 201.084 11.9338C201.354 14.279 201.498 16.6218 201.594 18.9669C201.655 20.1383 201.663 21.3121 201.703 22.4835L201.737 26L201.698 29.5166C201.663 30.688 201.65 31.8618 201.589 33.0331C201.493 35.3783 201.354 37.7235 201.084 40.0663Z" fill="#191815"/>
<path d="M187.451 35.2181C187.181 33.6809 187.038 32.1462 186.942 30.609C186.885 29.8417 186.868 29.0743 186.833 28.3069L186.798 26.0024L186.833 23.6979C186.868 22.9305 186.881 22.1631 186.942 21.3957C187.038 19.8586 187.181 18.3238 187.451 16.7891C187.721 18.3238 187.887 19.8586 187.961 21.3957C188.022 22.1631 188.035 22.9305 188.07 23.6979L188.105 26.0024L188.07 28.3069C188.035 29.0743 188.018 29.8417 187.961 30.609C187.865 32.1438 187.717 33.6786 187.451 35.2181Z" fill="#191815"/>
<path d="M192.909 35.2181C192.639 33.6809 192.473 32.1462 192.399 30.609C192.338 29.8417 192.325 29.0743 192.29 28.3069L192.255 26.0024L192.29 23.6979C192.325 22.9305 192.338 22.1631 192.399 21.3957C192.495 19.8586 192.634 18.3238 192.909 16.7891C193.179 18.3238 193.323 19.8586 193.418 21.3957C193.479 22.1631 193.492 22.9305 193.527 23.6979L193.562 26.0024L193.523 28.3069C193.488 29.0743 193.475 29.8417 193.414 30.609C193.318 32.1438 193.179 33.6786 192.909 35.2181Z" fill="#191815"/>
<path d="M203.832 35.2181C203.562 33.6809 203.423 32.1462 203.327 30.609C203.266 29.8417 203.253 29.0743 203.214 28.3069L203.179 26.0024L203.214 23.6979C203.249 22.9305 203.262 22.1631 203.323 21.3957C203.419 19.8586 203.562 18.3238 203.832 16.7891C204.107 18.3238 204.268 19.8586 204.342 21.3957C204.403 22.1631 204.416 22.9305 204.451 23.6979L204.486 26.0024L204.451 28.3069C204.416 29.0743 204.403 29.8417 204.342 30.609C204.224 32.1438 204.081 33.6786 203.832 35.2181Z" fill="#191815"/>
<path d="M214.721 35.9854C214.447 34.3119 214.307 32.6577 214.212 30.9938C214.151 30.1595 214.138 29.3204 214.103 28.4957L214.068 25.9999L214.098 23.5041C214.138 22.6722 214.146 21.8307 214.207 21.0083C214.303 19.3349 214.447 17.6783 214.721 16.0144C214.991 17.6878 215.157 19.3421 215.231 21.0083C215.292 21.8403 215.3 22.6817 215.34 23.5041L215.37 25.9999L215.335 28.4957C215.3 29.3276 215.287 30.1691 215.226 30.9938C215.126 32.6577 214.987 34.3215 214.721 35.9854Z" fill="#191815"/>
<path d="M217.443 32.7846C217.173 31.6538 217.03 30.5231 216.934 29.3923C216.873 28.8258 216.86 28.2616 216.825 27.695L216.79 26.0001L216.825 24.3052C216.86 23.7386 216.873 23.1744 216.934 22.6079C217.03 21.4771 217.169 20.3464 217.443 19.218C217.713 20.3464 217.857 21.4771 217.953 22.6079C218.014 23.1744 218.027 23.7386 218.062 24.3052L218.097 26.0001L218.062 27.695C218.023 28.2616 218.009 28.8258 217.953 29.3923C217.857 30.5231 217.713 31.6538 217.443 32.7846Z" fill="#191815"/>
</g>
<path d="M303.568 29H304.576V20.42H303.592C303.508 21.26 302.86 21.884 301.84 21.884H301.624V22.796H302.032C302.716 22.796 303.268 22.556 303.568 21.98V29ZM306.938 28.352C306.938 28.056 307.01 27.848 307.154 27.728C307.298 27.608 307.47 27.548 307.67 27.548C307.878 27.548 308.054 27.608 308.198 27.728C308.35 27.848 308.426 28.056 308.426 28.352C308.426 28.64 308.35 28.848 308.198 28.976C308.054 29.104 307.878 29.168 307.67 29.168C307.47 29.168 307.298 29.104 307.154 28.976C307.01 28.848 306.938 28.64 306.938 28.352ZM306.938 23.216C306.938 22.912 307.01 22.7 307.154 22.58C307.298 22.46 307.47 22.4 307.67 22.4C307.878 22.4 308.054 22.46 308.198 22.58C308.35 22.7 308.426 22.912 308.426 23.216C308.426 23.504 308.35 23.712 308.198 23.84C308.054 23.968 307.878 24.032 307.67 24.032C307.47 24.032 307.298 23.968 307.154 23.84C307.01 23.712 306.938 23.504 306.938 23.216ZM312.945 29.18C314.877 29.18 315.981 27.512 315.981 24.728C315.981 21.992 314.877 20.24 312.945 20.24C311.025 20.24 309.909 21.98 309.909 24.728C309.909 27.524 311.025 29.18 312.945 29.18ZM312.945 28.28C311.613 28.28 310.929 26.996 310.929 24.74C310.929 22.484 311.613 21.14 312.945 21.14C314.277 21.14 314.961 22.484 314.961 24.74C314.961 26.996 314.277 28.28 312.945 28.28ZM320.269 29.18C322.201 29.18 323.305 27.512 323.305 24.728C323.305 21.992 322.201 20.24 320.269 20.24C318.349 20.24 317.233 21.98 317.233 24.728C317.233 27.524 318.349 29.18 320.269 29.18ZM320.269 28.28C318.937 28.28 318.253 26.996 318.253 24.74C318.253 22.484 318.937 21.14 320.269 21.14C321.601 21.14 322.285 22.484 322.285 24.74C322.285 26.996 321.601 28.28 320.269 28.28ZM324.798 28.352C324.798 28.056 324.87 27.848 325.014 27.728C325.158 27.608 325.33 27.548 325.53 27.548C325.738 27.548 325.914 27.608 326.058 27.728C326.21 27.848 326.286 28.056 326.286 28.352C326.286 28.64 326.21 28.848 326.058 28.976C325.914 29.104 325.738 29.168 325.53 29.168C325.33 29.168 325.158 29.104 325.014 28.976C324.87 28.848 324.798 28.64 324.798 28.352ZM324.798 23.216C324.798 22.912 324.87 22.7 325.014 22.58C325.158 22.46 325.33 22.4 325.53 22.4C325.738 22.4 325.914 22.46 326.058 22.58C326.21 22.7 326.286 22.912 326.286 23.216C326.286 23.504 326.21 23.712 326.058 23.84C325.914 23.968 325.738 24.032 325.53 24.032C325.33 24.032 325.158 23.968 325.014 23.84C324.87 23.712 324.798 23.504 324.798 23.216ZM330.805 29.18C332.737 29.18 333.841 27.512 333.841 24.728C333.841 21.992 332.737 20.24 330.805 20.24C328.885 20.24 327.769 21.98 327.769 24.728C327.769 27.524 328.885 29.18 330.805 29.18ZM330.805 28.28C329.473 28.28 328.789 26.996 328.789 24.74C328.789 22.484 329.473 21.14 330.805 21.14C332.137 21.14 332.821 22.484 332.821 24.74C332.821 26.996 332.137 28.28 330.805 28.28ZM338.129 29.18C340.061 29.18 341.165 27.512 341.165 24.728C341.165 21.992 340.061 20.24 338.129 20.24C336.209 20.24 335.093 21.98 335.093 24.728C335.093 27.524 336.209 29.18 338.129 29.18ZM338.129 28.28C336.797 28.28 336.113 26.996 336.113 24.74C336.113 22.484 336.797 21.14 338.129 21.14C339.461 21.14 340.145 22.484 340.145 24.74C340.145 26.996 339.461 28.28 338.129 28.28Z" fill="#191815"/>
<defs>
<clipPath id="clip0_212_1219">
<rect width="244" height="52" fill="white" transform="translate(45)"/>
</clipPath>
</defs>
</svg>
