<svg width="227" height="258" viewBox="0 0 227 258" fill="none" xmlns="http://www.w3.org/2000/svg">
<rect x="0.5" y="0.5" width="226" height="256.675" rx="29.5" fill="#E0F5DA" stroke="black"/>
<line x1="2.99451" y1="44.5" x2="186.005" y2="44.5" stroke="black"/>
<path d="M3 95H227M3 45H227" stroke="black"/>
<path d="M0 147H227" stroke="black"/>
<line y1="196.5" x2="227" y2="196.5" stroke="black"/>
<path d="M18.24 20.18H35.88V21.58H18.24V20.18ZM29.96 18.62H31.5V25.82C31.5 26.2467 31.4267 26.5733 31.28 26.8C31.1467 27.04 30.9 27.2067 30.54 27.3C30.18 27.4067 29.6867 27.4667 29.06 27.48C28.4333 27.5067 27.64 27.52 26.68 27.52C26.64 27.3333 26.5667 27.1067 26.46 26.84C26.3533 26.5867 26.2467 26.3667 26.14 26.18C26.6333 26.1933 27.1067 26.2 27.56 26.2C28.0133 26.2 28.4067 26.2 28.74 26.2C29.0867 26.2 29.32 26.2 29.44 26.2C29.64 26.1867 29.7733 26.1467 29.84 26.08C29.92 26.0267 29.96 25.9267 29.96 25.78V18.62ZM21.22 22.36L22.26 21.46C22.6867 21.7933 23.1133 22.1733 23.54 22.6C23.98 23.0133 24.38 23.4267 24.74 23.84C25.1 24.2533 25.3867 24.6333 25.6 24.98L24.48 25.98C24.2933 25.62 24.02 25.2267 23.66 24.8C23.3 24.3733 22.9067 23.9467 22.48 23.52C22.0667 23.0933 21.6467 22.7067 21.22 22.36ZM19.7 10.6H21.26V15.82C21.26 16.1 21.3267 16.32 21.46 16.48C21.5933 16.6267 21.8467 16.7333 22.22 16.8C22.5933 16.8533 23.1467 16.88 23.88 16.88C24.0533 16.88 24.34 16.88 24.74 16.88C25.14 16.88 25.6 16.88 26.12 16.88C26.64 16.88 27.18 16.88 27.74 16.88C28.3133 16.88 28.8733 16.88 29.42 16.88C29.9667 16.88 30.4533 16.88 30.88 16.88C31.3067 16.88 31.64 16.88 31.88 16.88C32.4267 16.88 32.84 16.84 33.12 16.76C33.4 16.6667 33.5933 16.4933 33.7 16.24C33.82 15.9733 33.9067 15.6 33.96 15.12C34.16 15.2267 34.3933 15.32 34.66 15.4C34.94 15.48 35.1933 15.54 35.42 15.58C35.34 16.26 35.1867 16.7867 34.96 17.16C34.7467 17.52 34.4067 17.7733 33.94 17.92C33.4733 18.0533 32.82 18.12 31.98 18.12C31.8467 18.12 31.5733 18.12 31.16 18.12C30.76 18.12 30.28 18.12 29.72 18.12C29.16 18.12 28.5733 18.12 27.96 18.12C27.3467 18.12 26.76 18.12 26.2 18.12C25.6533 18.12 25.18 18.12 24.78 18.12C24.38 18.12 24.12 18.12 24 18.12C22.8933 18.12 22.0267 18.06 21.4 17.94C20.7867 17.82 20.3467 17.6 20.08 17.28C19.8267 16.9467 19.7 16.4667 19.7 15.84V10.6ZM20.24 13.42H32.04V11.32H19.7V10H33.52V14.76H20.24V13.42ZM41.56 10.42H47.22V11.94H41.56V10.42ZM46.46 10.42H47.98C47.98 11.0067 48.0067 11.7 48.06 12.5C48.1133 13.3 48.2267 14.16 48.4 15.08C48.5733 15.9867 48.84 16.9333 49.2 17.92C49.56 18.9067 50.0467 19.8933 50.66 20.88C51.2733 21.8533 52.04 22.8 52.96 23.72C53.8933 24.64 55.02 25.4867 56.34 26.26C56.2333 26.3533 56.0933 26.4733 55.92 26.62C55.76 26.78 55.6067 26.94 55.46 27.1C55.3267 27.2733 55.2133 27.42 55.12 27.54C53.7867 26.7267 52.64 25.8333 51.68 24.86C50.7333 23.8733 49.94 22.8467 49.3 21.78C48.6733 20.7133 48.1667 19.6467 47.78 18.58C47.4067 17.5 47.12 16.46 46.92 15.46C46.7333 14.4467 46.6067 13.5067 46.54 12.64C46.4867 11.7733 46.46 11.0333 46.46 10.42ZM45.88 14.34L47.58 14.64C47.1 16.6667 46.4733 18.4933 45.7 20.12C44.94 21.7467 44.0133 23.18 42.92 24.42C41.84 25.6467 40.56 26.6933 39.08 27.56C39 27.4533 38.8733 27.3267 38.7 27.18C38.54 27.0333 38.3667 26.88 38.18 26.72C38.0067 26.5733 37.8533 26.4533 37.72 26.36C39.9467 25.1867 41.7133 23.6 43.02 21.6C44.3267 19.5867 45.28 17.1667 45.88 14.34Z" fill="black"/>
<path d="M17.94 61.6H24.34V62.96H17.94V61.6ZM21.38 64.7H22.7V77.58H21.38V64.7ZM17.84 72.66C18.6667 72.5 19.6467 72.2867 20.78 72.02C21.9133 71.7533 23.0667 71.4867 24.24 71.22L24.36 72.48C23.28 72.7733 22.2 73.06 21.12 73.34C20.04 73.6067 19.06 73.8533 18.18 74.08L17.84 72.66ZM18.42 69.4C18.3933 69.3067 18.3533 69.1867 18.3 69.04C18.2467 68.88 18.1867 68.72 18.12 68.56C18.0667 68.3867 18.0133 68.2467 17.96 68.14C18.1333 68.1 18.2867 67.9333 18.42 67.64C18.5533 67.3333 18.6867 66.9533 18.82 66.5C18.9 66.2733 19.0067 65.9133 19.14 65.42C19.2733 64.9267 19.42 64.34 19.58 63.66C19.74 62.98 19.8867 62.26 20.02 61.5C20.1533 60.74 20.2533 59.98 20.32 59.22L21.72 59.46C21.5733 60.5133 21.3733 61.5933 21.12 62.7C20.8667 63.7933 20.58 64.8467 20.26 65.86C19.9533 66.8733 19.6333 67.78 19.3 68.58V68.62C19.3 68.62 19.2533 68.6467 19.16 68.7C19.0667 68.7533 18.96 68.82 18.84 68.9C18.7333 68.98 18.6333 69.0667 18.54 69.16C18.46 69.24 18.42 69.32 18.42 69.4ZM18.42 69.4V68.14L19.2 67.74H24.3V69.12H19.8C19.48 69.12 19.1867 69.1467 18.92 69.2C18.6667 69.2533 18.5 69.32 18.42 69.4ZM26.54 64.12H33.94V65.36H26.54V64.12ZM25.3 66.68H29.68V67.88H26.54V77.52H25.3V66.68ZM29.28 66.68H30.54V76.02C30.54 76.34 30.5067 76.5933 30.44 76.78C30.3733 76.98 30.2333 77.14 30.02 77.26C29.82 77.3533 29.56 77.4133 29.24 77.44C28.9333 77.4667 28.56 77.48 28.12 77.48C28.1067 77.3067 28.06 77.1 27.98 76.86C27.9133 76.62 27.8333 76.4133 27.74 76.24C28.0467 76.2533 28.32 76.26 28.56 76.26C28.8 76.26 28.9667 76.26 29.06 76.26C29.2067 76.2467 29.28 76.1667 29.28 76.02V66.68ZM26.18 69.46H30.16V70.62H26.18V69.46ZM26.16 72.26H30.14V73.4H26.16V72.26ZM31.68 67.06H32.86V74.3H31.68V67.06ZM34.22 66.32H35.44V75.9C35.44 76.26 35.3933 76.5333 35.3 76.72C35.22 76.92 35.0533 77.08 34.8 77.2C34.56 77.2933 34.24 77.3533 33.84 77.38C33.44 77.4067 32.94 77.42 32.34 77.42C32.3267 77.2467 32.28 77.04 32.2 76.8C32.12 76.5733 32.0333 76.3667 31.94 76.18C32.4067 76.1933 32.82 76.2 33.18 76.2C33.54 76.2 33.7867 76.2 33.92 76.2C34.12 76.1867 34.22 76.0867 34.22 75.9V66.32ZM30.18 59.14L31.4 59.68C30.9067 60.4533 30.3133 61.2067 29.62 61.94C28.94 62.66 28.2 63.32 27.4 63.92C26.6 64.52 25.78 65.0333 24.94 65.46C24.82 65.2867 24.6667 65.0933 24.48 64.88C24.3067 64.6667 24.1333 64.4867 23.96 64.34C24.76 63.9533 25.5533 63.4933 26.34 62.96C27.1267 62.4133 27.8533 61.8133 28.52 61.16C29.1867 60.5067 29.74 59.8333 30.18 59.14ZM30.66 60C31.4467 60.96 32.3333 61.76 33.32 62.4C34.32 63.04 35.3733 63.6 36.48 64.08C36.3067 64.2267 36.1267 64.4067 35.94 64.62C35.7533 64.8333 35.6133 65.0467 35.52 65.26C34.36 64.66 33.28 63.9867 32.28 63.24C31.28 62.4933 30.3467 61.5733 29.48 60.48L30.66 60ZM41.56 60.42H47.22V61.94H41.56V60.42ZM46.46 60.42H47.98C47.98 61.0067 48.0067 61.7 48.06 62.5C48.1133 63.3 48.2267 64.16 48.4 65.08C48.5733 65.9867 48.84 66.9333 49.2 67.92C49.56 68.9067 50.0467 69.8933 50.66 70.88C51.2733 71.8533 52.04 72.8 52.96 73.72C53.8933 74.64 55.02 75.4867 56.34 76.26C56.2333 76.3533 56.0933 76.4733 55.92 76.62C55.76 76.78 55.6067 76.94 55.46 77.1C55.3267 77.2733 55.2133 77.42 55.12 77.54C53.7867 76.7267 52.64 75.8333 51.68 74.86C50.7333 73.8733 49.94 72.8467 49.3 71.78C48.6733 70.7133 48.1667 69.6467 47.78 68.58C47.4067 67.5 47.12 66.46 46.92 65.46C46.7333 64.4467 46.6067 63.5067 46.54 62.64C46.4867 61.7733 46.46 61.0333 46.46 60.42ZM45.88 64.34L47.58 64.64C47.1 66.6667 46.4733 68.4933 45.7 70.12C44.94 71.7467 44.0133 73.18 42.92 74.42C41.84 75.6467 40.56 76.6933 39.08 77.56C39 77.4533 38.8733 77.3267 38.7 77.18C38.54 77.0333 38.3667 76.88 38.18 76.72C38.0067 76.5733 37.8533 76.4533 37.72 76.36C39.9467 75.1867 41.7133 73.6 43.02 71.6C44.3267 69.5867 45.28 67.1667 45.88 64.34ZM71.5 63.34L73.08 63.82C72.24 66.26 71.16 68.3667 69.84 70.14C68.5333 71.9133 66.96 73.4067 65.12 74.62C63.2933 75.8333 61.1667 76.8333 58.74 77.62C58.6867 77.4867 58.6 77.3333 58.48 77.16C58.3733 76.9867 58.2533 76.8067 58.12 76.62C58 76.4333 57.8867 76.2867 57.78 76.18C60.1533 75.4867 62.2267 74.58 64 73.46C65.7733 72.3267 67.28 70.9333 68.52 69.28C69.76 67.6133 70.7533 65.6333 71.5 63.34ZM62.4 63.46C63.1333 65.5933 64.12 67.5133 65.36 69.22C66.6133 70.9133 68.1467 72.3467 69.96 73.52C71.7733 74.6933 73.8867 75.5667 76.3 76.14C76.18 76.2467 76.0467 76.3867 75.9 76.56C75.7667 76.7467 75.6333 76.9333 75.5 77.12C75.38 77.3067 75.28 77.4667 75.2 77.6C72.7333 76.96 70.58 76.0133 68.74 74.76C66.9133 73.4933 65.36 71.9533 64.08 70.14C62.8 68.3133 61.7467 66.2333 60.92 63.9L62.4 63.46ZM58 62.6H76.08V64.06H58V62.6ZM66.2 59.2H67.74V63.48H66.2V59.2ZM78.3 63.42H95.74V64.94H78.3V63.42ZM82.28 72.34H91.6V73.86H82.28V72.34ZM86.2 59.22H87.78V77.6H86.2V59.22ZM85.72 63.92L87.08 64.36C86.48 65.7733 85.7467 67.1267 84.88 68.42C84.0133 69.7 83.0533 70.86 82 71.9C80.9467 72.9267 79.8467 73.7733 78.7 74.44C78.62 74.32 78.5133 74.1867 78.38 74.04C78.2467 73.88 78.1133 73.7267 77.98 73.58C77.86 73.4333 77.74 73.3067 77.62 73.2C78.46 72.76 79.2733 72.2133 80.06 71.56C80.86 70.9067 81.6133 70.1733 82.32 69.36C83.04 68.5333 83.6867 67.66 84.26 66.74C84.8333 65.82 85.32 64.88 85.72 63.92ZM88.26 63.98C88.7933 65.2467 89.48 66.4733 90.32 67.66C91.16 68.8333 92.1 69.8933 93.14 70.84C94.1933 71.7733 95.2933 72.52 96.44 73.08C96.32 73.1867 96.1867 73.3133 96.04 73.46C95.9067 73.6067 95.7733 73.7667 95.64 73.94C95.5067 74.1 95.3933 74.2533 95.3 74.4C94.14 73.7467 93.0267 72.9133 91.96 71.9C90.9067 70.8733 89.9533 69.72 89.1 68.44C88.2467 67.16 87.5267 65.8267 86.94 64.44L88.26 63.98Z" fill="black"/>
<path d="M17.78 121.78C18.42 121.62 19.1467 121.433 19.96 121.22C20.7733 120.993 21.6333 120.753 22.54 120.5C23.4467 120.233 24.3533 119.973 25.26 119.72L25.46 121.14C24.1933 121.513 22.92 121.893 21.64 122.28C20.3733 122.667 19.24 123 18.24 123.28L17.78 121.78ZM17.96 115.24H25.24V116.68H17.96V115.24ZM20.98 111.2H22.46V127.62C22.46 128.033 22.4067 128.353 22.3 128.58C22.1933 128.807 22.0067 128.987 21.74 129.12C21.4733 129.24 21.12 129.313 20.68 129.34C20.24 129.38 19.6733 129.4 18.98 129.4C18.9533 129.2 18.8933 128.96 18.8 128.68C18.7067 128.413 18.6067 128.18 18.5 127.98C18.9667 127.993 19.3933 128 19.78 128C20.18 128 20.4467 127.993 20.58 127.98C20.8467 127.98 20.98 127.853 20.98 127.6V111.2ZM25.36 112.88H36.22V114.38H25.36V112.88ZM31.06 113.42H32.66V127.4C32.66 127.907 32.5867 128.3 32.44 128.58C32.2933 128.86 32.04 129.067 31.68 129.2C31.3067 129.333 30.8 129.413 30.16 129.44C29.52 129.467 28.7267 129.48 27.78 129.48C27.7533 129.333 27.7067 129.16 27.64 128.96C27.5733 128.773 27.5 128.58 27.42 128.38C27.34 128.18 27.2533 128.007 27.16 127.86C27.6667 127.873 28.1467 127.887 28.6 127.9C29.0533 127.913 29.4467 127.92 29.78 127.92C30.1267 127.907 30.3733 127.893 30.52 127.88C30.72 127.88 30.86 127.847 30.94 127.78C31.02 127.7 31.06 127.567 31.06 127.38V113.42ZM38.78 112.5H55.36V113.94H38.78V112.5ZM38.04 119.64H55.98V121.08H38.04V119.64ZM49.98 113.26H51.52V129.62H49.98V113.26ZM42.86 113.24H44.38V118.78C44.38 119.753 44.3267 120.733 44.22 121.72C44.1133 122.707 43.8867 123.673 43.54 124.62C43.2067 125.553 42.7 126.453 42.02 127.32C41.34 128.173 40.4267 128.96 39.28 129.68C39.1867 129.547 39.0733 129.413 38.94 129.28C38.8067 129.147 38.66 129.013 38.5 128.88C38.3533 128.747 38.2133 128.64 38.08 128.56C39.16 127.893 40.02 127.173 40.66 126.4C41.3 125.627 41.7733 124.82 42.08 123.98C42.4 123.14 42.6067 122.28 42.7 121.4C42.8067 120.52 42.86 119.647 42.86 118.78V113.24ZM64.2 113.64L65.58 113.68C65.4867 115.733 65.3267 117.627 65.1 119.36C64.8733 121.08 64.52 122.64 64.04 124.04C63.5733 125.427 62.92 126.653 62.08 127.72C62.0133 127.64 61.9067 127.54 61.76 127.42C61.6133 127.3 61.46 127.187 61.3 127.08C61.1533 126.973 61.0267 126.887 60.92 126.82C61.7467 125.873 62.38 124.74 62.82 123.42C63.2733 122.1 63.6 120.613 63.8 118.96C64.0133 117.307 64.1467 115.533 64.2 113.64ZM69.52 113.64L70.9 113.68C70.82 115.76 70.6733 117.673 70.46 119.42C70.2467 121.153 69.9 122.72 69.42 124.12C68.94 125.507 68.2667 126.72 67.4 127.76C67.3333 127.68 67.2267 127.587 67.08 127.48C66.9333 127.36 66.78 127.247 66.62 127.14C66.4733 127.02 66.34 126.927 66.22 126.86C67.0867 125.913 67.7467 124.787 68.2 123.48C68.6533 122.16 68.9733 120.673 69.16 119.02C69.3467 117.367 69.4667 115.573 69.52 113.64ZM60.98 117.78L61.8 116.88C62.48 117.507 63.16 118.187 63.84 118.92C64.5333 119.653 65.1667 120.38 65.74 121.1C66.3133 121.807 66.7733 122.447 67.12 123.02L66.22 124.08C65.8733 123.493 65.4133 122.833 64.84 122.1C64.2667 121.353 63.64 120.607 62.96 119.86C62.2933 119.1 61.6333 118.407 60.98 117.78ZM66.44 117.56L67.28 116.66C67.8133 117.153 68.3533 117.687 68.9 118.26C69.4467 118.82 69.9733 119.393 70.48 119.98C70.9867 120.553 71.4467 121.113 71.86 121.66C72.2733 122.193 72.62 122.68 72.9 123.12L71.98 124.2C71.7 123.747 71.3533 123.24 70.94 122.68C70.5267 122.12 70.0667 121.54 69.56 120.94C69.0667 120.34 68.5533 119.753 68.02 119.18C67.4867 118.593 66.96 118.053 66.44 117.56ZM58.76 112.4H74.68V113.84H60.22V129.56H58.76V112.4ZM73.88 112.4H75.34V127.66C75.34 128.113 75.2733 128.46 75.14 128.7C75.02 128.953 74.8133 129.147 74.52 129.28C74.2133 129.4 73.8 129.473 73.28 129.5C72.76 129.54 72.0733 129.553 71.22 129.54C71.1933 129.42 71.1467 129.267 71.08 129.08C71.0267 128.907 70.9667 128.733 70.9 128.56C70.8333 128.387 70.7667 128.233 70.7 128.1C71.3133 128.113 71.8733 128.12 72.38 128.12C72.8867 128.12 73.2267 128.12 73.4 128.12C73.5733 128.107 73.6933 128.067 73.76 128C73.84 127.947 73.88 127.833 73.88 127.66V112.4ZM90.62 118.12H95.94V119.58H90.62V118.12ZM83.24 127.44H96.24V128.88H83.24V127.44ZM90.1 111.34H91.62V128.18H90.1V111.34ZM85.68 115.58H87.16V128.1H85.68V115.58ZM77.9 116.02H84.66V117.44H77.9V116.02ZM80.64 111.46H82.04V124.26H80.64V111.46ZM77.68 124.74C78.2667 124.54 78.9333 124.3 79.68 124.02C80.44 123.727 81.24 123.42 82.08 123.1C82.92 122.767 83.76 122.433 84.6 122.1L84.86 123.42C83.7267 123.913 82.5733 124.407 81.4 124.9C80.2267 125.393 79.1733 125.833 78.24 126.22L77.68 124.74Z" fill="black"/>
<path d="M17.64 171.78C18.2267 171.647 18.8867 171.48 19.62 171.28C20.3533 171.08 21.1267 170.867 21.94 170.64C22.7533 170.4 23.5733 170.167 24.4 169.94L24.58 171.36C23.4467 171.707 22.3067 172.053 21.16 172.4C20.0133 172.747 18.9733 173.053 18.04 173.32L17.64 171.78ZM17.94 165.24H24.4V166.7H17.94V165.24ZM20.56 161.2H22.08V177.8C22.08 178.227 22.0267 178.553 21.92 178.78C21.8133 179.007 21.62 179.18 21.34 179.3C21.0733 179.42 20.7267 179.5 20.3 179.54C19.8733 179.58 19.3133 179.593 18.62 179.58C18.6067 179.393 18.5533 179.16 18.46 178.88C18.3667 178.613 18.2733 178.373 18.18 178.16C18.6333 178.173 19.0467 178.18 19.42 178.18C19.7933 178.18 20.0467 178.18 20.18 178.18C20.3133 178.167 20.4067 178.133 20.46 178.08C20.5267 178.04 20.56 177.94 20.56 177.78V161.2ZM25.44 164.8H35.2V179.42H33.66V166.22H26.94V179.54H25.44V164.8ZM26.36 170.86H34.28V172.28H26.36V170.86ZM26.36 177.02H34.28V178.46H26.36V177.02ZM29.68 161.22L31.42 161.46C31.2067 162.18 30.9733 162.927 30.72 163.7C30.4667 164.46 30.22 165.107 29.98 165.64L28.62 165.38C28.7667 165.007 28.9067 164.573 29.04 164.08C29.1733 163.587 29.2933 163.093 29.4 162.6C29.52 162.093 29.6133 161.633 29.68 161.22ZM38.86 162.06H40.28V174.54H38.86V162.06ZM39.62 162.06H44.68V173.52H39.62V172.16H43.28V163.4H39.62V162.06ZM39.6 166.92H44V168.24H39.6V166.92ZM45.56 162.02H54.52V163.36H45.56V162.02ZM54.04 162.02H55.48C55.48 162.02 55.4733 162.093 55.46 162.24C55.46 162.387 55.4533 162.507 55.44 162.6C55.3867 163.56 55.32 164.353 55.24 164.98C55.1733 165.593 55.0867 166.073 54.98 166.42C54.8867 166.753 54.7733 167 54.64 167.16C54.48 167.32 54.3067 167.433 54.12 167.5C53.9333 167.567 53.7133 167.613 53.46 167.64C53.2333 167.653 52.9133 167.66 52.5 167.66C52.0867 167.66 51.6467 167.647 51.18 167.62C51.1667 167.433 51.1267 167.227 51.06 167C50.9933 166.76 50.9067 166.553 50.8 166.38C51.24 166.42 51.6467 166.447 52.02 166.46C52.3933 166.46 52.66 166.46 52.82 166.46C52.9533 166.46 53.0667 166.453 53.16 166.44C53.2667 166.413 53.3533 166.367 53.42 166.3C53.5267 166.193 53.6133 166 53.68 165.72C53.7467 165.427 53.8067 165 53.86 164.44C53.9267 163.88 53.9867 163.147 54.04 162.24V162.02ZM49.04 162.44H50.52C50.44 163.173 50.3 163.847 50.1 164.46C49.9133 165.06 49.64 165.607 49.28 166.1C48.9333 166.58 48.4733 167.007 47.9 167.38C47.3267 167.753 46.6133 168.073 45.76 168.34C45.68 168.167 45.5533 167.967 45.38 167.74C45.22 167.513 45.0667 167.34 44.92 167.22C45.68 166.993 46.3133 166.733 46.82 166.44C47.3267 166.147 47.7267 165.807 48.02 165.42C48.3133 165.02 48.54 164.573 48.7 164.08C48.86 163.587 48.9733 163.04 49.04 162.44ZM47.56 169.86V172.9H53.42V169.86H47.56ZM46.16 168.6H54.9V174.16H46.16V168.6ZM43.8 175.5L45.18 175.36C45.3133 176 45.4267 176.693 45.52 177.44C45.6133 178.187 45.6667 178.807 45.68 179.3L44.22 179.52C44.22 179.187 44.2 178.787 44.16 178.32C44.12 177.867 44.0733 177.393 44.02 176.9C43.9667 176.407 43.8933 175.94 43.8 175.5ZM48.08 175.44L49.48 175.18C49.6667 175.607 49.8467 176.06 50.02 176.54C50.1933 177.007 50.3467 177.473 50.48 177.94C50.6133 178.393 50.7133 178.8 50.78 179.16L49.3 179.48C49.2333 179.133 49.14 178.727 49.02 178.26C48.9 177.793 48.76 177.313 48.6 176.82C48.44 176.327 48.2667 175.867 48.08 175.44ZM52.16 175.34L53.52 174.78C53.84 175.207 54.1667 175.68 54.5 176.2C54.8467 176.707 55.16 177.207 55.44 177.7C55.7333 178.18 55.96 178.613 56.12 179L54.7 179.64C54.54 179.253 54.32 178.807 54.04 178.3C53.7733 177.807 53.4733 177.3 53.14 176.78C52.8067 176.26 52.48 175.78 52.16 175.34ZM40.48 174.92L41.92 175.34C41.56 176.087 41.1467 176.86 40.68 177.66C40.2133 178.447 39.7533 179.127 39.3 179.7L37.86 179.06C38.1667 178.727 38.48 178.333 38.8 177.88C39.12 177.413 39.4267 176.927 39.72 176.42C40.0133 175.913 40.2667 175.413 40.48 174.92Z" fill="black"/>
<path d="M18.68 212.08H35.34V229.6H33.84V213.44H20.12V229.6H18.68V212.08ZM19.52 227.42H34.7V228.76H19.52V227.42ZM24.5 222.42L25.14 221.5C25.6733 221.607 26.2333 221.747 26.82 221.92C27.4067 222.08 27.9667 222.26 28.5 222.46C29.0467 222.647 29.5067 222.827 29.88 223L29.26 224.02C28.8867 223.833 28.4267 223.64 27.88 223.44C27.3467 223.227 26.78 223.033 26.18 222.86C25.5933 222.687 25.0333 222.54 24.5 222.42ZM25.28 213.84L26.54 214.28C26.1667 214.88 25.72 215.473 25.2 216.06C24.6933 216.633 24.1533 217.167 23.58 217.66C23.02 218.153 22.46 218.587 21.9 218.96C21.8333 218.867 21.7333 218.767 21.6 218.66C21.4667 218.54 21.3333 218.427 21.2 218.32C21.0667 218.213 20.9467 218.127 20.84 218.06C21.6933 217.553 22.52 216.933 23.32 216.2C24.12 215.453 24.7733 214.667 25.28 213.84ZM30.62 215.44H30.9L31.12 215.38L31.98 215.88C31.4733 216.707 30.8133 217.467 30 218.16C29.2 218.84 28.3067 219.447 27.32 219.98C26.3467 220.513 25.3333 220.973 24.28 221.36C23.24 221.747 22.2133 222.06 21.2 222.3C21.1467 222.18 21.08 222.04 21 221.88C20.9333 221.72 20.8533 221.573 20.76 221.44C20.6667 221.293 20.5733 221.173 20.48 221.08C21.4667 220.88 22.4667 220.613 23.48 220.28C24.4933 219.947 25.46 219.547 26.38 219.08C27.3133 218.613 28.1467 218.093 28.88 217.52C29.6133 216.947 30.1933 216.327 30.62 215.66V215.44ZM24.4 216.54C24.9867 217.233 25.76 217.873 26.72 218.46C27.68 219.047 28.74 219.553 29.9 219.98C31.0733 220.393 32.26 220.713 33.46 220.94C33.3267 221.06 33.1733 221.233 33 221.46C32.84 221.687 32.7133 221.893 32.62 222.08C31.4067 221.813 30.2067 221.44 29.02 220.96C27.8467 220.48 26.76 219.907 25.76 219.24C24.7733 218.573 23.9533 217.84 23.3 217.04L24.4 216.54ZM24.82 215.44H31.08V216.6H24.02L24.82 215.44ZM22.5 224.96L23.2 223.94C23.88 224.02 24.5867 224.127 25.32 224.26C26.0667 224.38 26.8067 224.52 27.54 224.68C28.2733 224.827 28.96 224.987 29.6 225.16C30.2533 225.333 30.82 225.5 31.3 225.66L30.64 226.78C30 226.553 29.22 226.327 28.3 226.1C27.38 225.86 26.4133 225.64 25.4 225.44C24.3867 225.227 23.42 225.067 22.5 224.96ZM42.2 217.02H55.24V218.38H42.2V217.02ZM41.64 225.12H56.08V226.52H41.64V225.12ZM48.86 219.36H50.34V229.58H48.86V219.36ZM43.5 223.1C43.4733 222.993 43.4267 222.853 43.36 222.68C43.3067 222.493 43.2467 222.307 43.18 222.12C43.1133 221.933 43.0467 221.773 42.98 221.64C43.1667 221.6 43.3467 221.48 43.52 221.28C43.6933 221.067 43.88 220.793 44.08 220.46C44.1867 220.313 44.34 220.06 44.54 219.7C44.7533 219.327 44.9867 218.893 45.24 218.4C45.4933 217.893 45.74 217.353 45.98 216.78C46.2333 216.207 46.4533 215.627 46.64 215.04L48.18 215.58C47.8467 216.38 47.4733 217.187 47.06 218C46.66 218.8 46.24 219.567 45.8 220.3C45.36 221.02 44.9267 221.673 44.5 222.26V222.28C44.5 222.28 44.4467 222.307 44.34 222.36C44.2467 222.413 44.1333 222.487 44 222.58C43.8667 222.66 43.7467 222.747 43.64 222.84C43.5467 222.933 43.5 223.02 43.5 223.1ZM43.5 223.1V221.92L44.36 221.46H54.76V222.82H45.38C44.8733 222.82 44.4533 222.847 44.12 222.9C43.8 222.953 43.5933 223.02 43.5 223.1ZM40.16 213.22H56.04V214.64H40.16V213.22ZM39.42 213.22H40.9V219C40.9 219.773 40.8733 220.62 40.82 221.54C40.78 222.46 40.6933 223.407 40.56 224.38C40.4267 225.34 40.2267 226.273 39.96 227.18C39.6933 228.087 39.34 228.927 38.9 229.7C38.82 229.607 38.7 229.5 38.54 229.38C38.38 229.273 38.22 229.167 38.06 229.06C37.9 228.953 37.7533 228.88 37.62 228.84C38.0333 228.12 38.36 227.347 38.6 226.52C38.84 225.68 39.02 224.82 39.14 223.94C39.26 223.06 39.3333 222.2 39.36 221.36C39.4 220.507 39.42 219.72 39.42 219V213.22ZM46.38 211.58L47.84 211.2C48.1067 211.547 48.36 211.947 48.6 212.4C48.84 212.84 49.0133 213.22 49.12 213.54L47.58 214C47.4867 213.68 47.3267 213.293 47.1 212.84C46.8867 212.373 46.6467 211.953 46.38 211.58Z" fill="black"/>
<path d="M195.13 18.6844V13.7866H182.066L179.69 11.3376H169V15.0095H169.003V18.6814H169V33.3719H195.133L195.13 18.6844ZM170.189 13.7866V12.5636H179.201L181.229 14.6532L181.577 15.0125H193.946V18.6844H170.189V13.7866ZM193.943 32.152H170.189V19.9074H193.946V32.152H193.943Z" fill="#060001"/>
<g clip-path="url(#clip0_215_423)">
<path d="M176.239 87.1839H171.946C170.776 87.1839 169.822 86.2299 169.822 85.0599V60.3999C169.822 59.2299 170.776 58.2759 171.946 58.2759H194.389C195.559 58.2759 196.513 59.2299 196.513 60.3999V66.5679C196.513 66.9309 196.219 67.2279 195.853 67.2279C195.487 67.2279 195.193 66.9339 195.193 66.5679V60.3999C195.193 59.9559 194.833 59.5929 194.386 59.5929H171.946C171.502 59.5929 171.139 59.9529 171.139 60.3999V85.0599C171.139 85.5039 171.499 85.8669 171.946 85.8669H176.239C176.602 85.8669 176.899 86.1609 176.899 86.5269C176.899 86.8929 176.602 87.1839 176.239 87.1839Z" fill="#2C2C2C"/>
<path d="M190.834 63.6281H174.118C173.755 63.6281 173.458 63.3341 173.458 62.9681C173.458 62.6021 173.752 62.3081 174.118 62.3081H190.834C191.197 62.3081 191.494 62.6021 191.494 62.9681C191.494 63.3341 191.197 63.6281 190.834 63.6281Z" fill="#2C2C2C"/>
<path d="M181.822 70.5881H174.118C173.755 70.5881 173.458 70.2941 173.458 69.9281C173.458 69.5621 173.752 69.2681 174.118 69.2681H181.822C182.185 69.2681 182.482 69.5621 182.482 69.9281C182.482 70.2941 182.188 70.5881 181.822 70.5881Z" fill="#2C2C2C"/>
<path d="M187.183 67.1081H174.118C173.755 67.1081 173.458 66.8141 173.458 66.4481C173.458 66.0821 173.752 65.7881 174.118 65.7881H187.183C187.546 65.7881 187.843 66.0821 187.843 66.4481C187.843 66.8141 187.549 67.1081 187.183 67.1081Z" fill="#2C2C2C"/>
<path d="M180.709 87.586C180.526 87.586 180.349 87.511 180.223 87.373C180.07 87.205 180.013 86.971 180.073 86.749L181.27 82.453C181.3 82.345 181.36 82.243 181.438 82.165L193.42 70.183C193.834 69.772 194.503 69.772 194.917 70.183L197.782 73.048C197.983 73.249 198.091 73.513 198.091 73.795C198.091 74.077 197.98 74.344 197.782 74.542L196.213 76.12C196.09 76.243 195.922 76.312 195.748 76.312C195.574 76.312 195.406 76.243 195.283 76.12L193.348 74.185C193.09 73.927 193.09 73.51 193.348 73.252C193.606 72.994 194.023 72.994 194.281 73.252L195.751 74.722L196.672 73.801L194.17 71.302L182.497 82.975L181.63 86.086L185.017 85.45L191.806 78.661C191.953 78.502 193.294 77.119 194.947 76.999C195.31 76.972 195.625 77.245 195.652 77.608C195.679 77.971 195.406 78.286 195.043 78.313C193.861 78.4 192.775 79.552 192.763 79.564C192.757 79.57 192.751 79.579 192.742 79.585L185.803 86.527C185.71 86.62 185.59 86.683 185.458 86.71L180.829 87.577C180.79 87.583 180.751 87.586 180.709 87.586Z" fill="#2C2C2C"/>
</g>
<path d="M183.999 112.346C175.728 112.346 169 119.283 169 127.807C169 136.331 175.728 143.267 183.999 143.267C192.272 143.267 199 136.332 199 127.807C199 119.282 192.272 112.346 183.999 112.346ZM187.957 141.269C188.234 140.972 188.508 140.628 188.795 140.223L188.869 140.117C189.422 139.317 189.909 138.408 190.357 137.333L190.534 136.863L190.732 136.962C191.57 137.382 192.354 137.903 193.06 138.507L193.246 138.667L193.061 138.829C191.63 140.091 189.964 141.038 188.165 141.614L187.414 141.855L187.957 141.269ZM191.099 128.525C191.04 130.925 190.683 133.281 190.067 135.34L190.004 135.553L189.8 135.473C188.23 134.874 186.508 134.532 184.683 134.46L184.486 134.452V128.308H191.103L191.099 128.525ZM189.69 136.491L189.614 136.69C188.414 139.835 186.679 141.788 184.731 142.188L184.486 142.237V135.453L184.698 135.464C186.413 135.536 188.027 135.855 189.494 136.417L189.69 136.491ZM193.059 117.106C192.346 117.713 191.566 118.232 190.735 118.65L190.498 118.678L190.419 118.451L190.318 118.185C189.928 117.238 189.441 116.335 188.867 115.493L188.793 115.388C188.537 115.021 188.257 114.672 187.955 114.345L187.413 113.756L188.163 113.997C189.961 114.574 191.627 115.522 193.059 116.784L193.244 116.945L193.059 117.106ZM189.8 120.141L190.004 120.063L190.067 120.275C190.683 122.334 191.04 124.692 191.099 127.091L191.104 127.307H184.487V121.163L184.684 121.155C186.509 121.082 188.23 120.74 189.8 120.141ZM184.487 120.16V113.376L184.732 113.425C186.681 113.824 188.414 115.779 189.615 118.924L189.692 119.123L189.497 119.197C188.03 119.757 186.417 120.078 184.701 120.151L184.487 120.16ZM193.94 137.99L193.794 137.863C192.955 137.124 192.025 136.502 191.029 136.013L190.863 135.931L190.98 135.585C191.315 134.486 191.578 133.329 191.759 132.146L191.822 131.677C191.885 131.207 191.938 130.732 191.977 130.266L192.019 129.731C192.039 129.441 192.047 129.139 192.054 128.849L192.069 128.308H198.006L197.996 128.53C197.825 132.024 196.43 135.335 194.07 137.85L193.94 137.99ZM191.978 125.349C191.939 124.884 191.887 124.408 191.823 123.938L191.76 123.47C191.582 122.296 191.318 121.136 190.972 120.002L190.863 119.684L191.029 119.603C192.025 119.113 192.955 118.492 193.794 117.754L193.94 117.625L194.073 117.767C196.433 120.28 197.828 123.592 197.999 127.085L198.009 127.307H192.072L192.057 126.767C192.05 126.473 192.039 126.179 192.022 125.886L191.978 125.349ZM180.045 114.346C179.743 114.675 179.463 115.024 179.207 115.391L179.132 115.497C178.559 116.338 178.073 117.24 177.683 118.187L177.468 118.752L177.27 118.653C176.437 118.235 175.655 117.716 174.942 117.107L174.757 116.946L174.942 116.785C176.373 115.522 178.039 114.574 179.838 113.998L180.588 113.757L180.045 114.346ZM176.902 127.089C176.96 124.694 177.317 122.338 177.935 120.274L177.997 120.061L178.201 120.14C179.771 120.739 181.493 121.08 183.318 121.152L183.514 121.16V127.304H176.898L176.902 127.089ZM178.311 119.125L178.387 118.925C179.588 115.78 181.322 113.825 183.271 113.426L183.514 113.377V120.162L183.302 120.153C181.587 120.079 179.973 119.76 178.506 119.198L178.311 119.125ZM174.944 138.508C175.656 137.901 176.436 137.383 177.267 136.966L177.532 137.048L177.685 137.43C178.097 138.421 178.586 139.326 179.133 140.121L179.207 140.226C179.291 140.345 179.38 140.434 179.465 140.546C179.58 140.697 179.693 140.839 179.808 140.974C179.887 141.068 179.966 141.183 180.045 141.269L180.59 141.855L179.837 141.616C178.039 141.039 176.373 140.091 174.941 138.83L174.756 138.668L174.944 138.508ZM178.201 135.473L177.997 135.553L177.935 135.34C177.317 133.277 176.961 130.92 176.902 128.525L176.897 128.308H183.513V134.452L183.317 134.46C181.492 134.532 179.771 134.872 178.201 135.473ZM183.514 135.453V142.237L183.271 142.188C181.322 141.788 179.587 139.835 178.387 136.69L178.311 136.491L178.506 136.416C179.975 135.855 181.588 135.535 183.302 135.462L183.514 135.453ZM176.18 123.938C176.116 124.4 176.065 124.873 176.018 125.425L175.982 125.883C175.962 126.194 175.953 126.508 175.945 126.857L175.932 127.304H169.994L170.004 127.083C170.173 123.589 171.568 120.278 173.929 117.764L174.061 117.622L174.207 117.751C175.045 118.489 175.974 119.11 176.968 119.599L177.081 119.846L177.022 120.029C176.68 121.155 176.419 122.305 176.242 123.47L176.18 123.938ZM176.18 131.676L176.242 132.144C176.426 133.342 176.69 134.5 177.022 135.584L177.135 135.933L176.972 136.011C175.967 136.507 175.037 137.131 174.207 137.861L174.061 137.989L173.929 137.847C171.569 135.333 170.174 132.021 170.004 128.527L169.994 128.306H175.932L175.945 128.753C175.952 129.1 175.962 129.415 175.982 129.727L176.026 130.263C176.065 130.75 176.117 131.225 176.18 131.676Z" fill="#2C2C2C"/>
<path d="M195.785 184.015H175.215C173.43 184.015 171.98 182.565 171.98 180.78V168.975C171.98 167.19 173.43 165.74 175.215 165.74H179.765L180.315 163.675C180.445 163.189 180.731 162.76 181.13 162.453C181.529 162.147 182.017 161.981 182.52 161.98H188.715C189.217 161.98 189.705 162.146 190.104 162.451C190.502 162.757 190.789 163.185 190.92 163.67L191.47 165.735H195.79C197.575 165.735 199.025 167.185 199.025 168.97V180.78C199.02 182.565 197.57 184.015 195.785 184.015ZM175.215 167.74C174.535 167.74 173.98 168.295 173.98 168.975V180.785C173.98 181.465 174.535 182.02 175.215 182.02H195.79C196.47 182.02 197.025 181.465 197.025 180.785V168.975C197.025 168.295 196.47 167.74 195.79 167.74H189.93L188.985 164.195C188.969 164.135 188.934 164.082 188.885 164.044C188.837 164.006 188.777 163.986 188.715 163.985H182.52C182.395 163.985 182.28 164.07 182.25 164.195L181.305 167.745H175.215V167.74Z" fill="#231815"/>
<path d="M185.5 178.5C183.02 178.5 181 176.48 181 174C181 171.52 183.02 169.5 185.5 169.5C187.98 169.5 190 171.52 190 174C190 176.48 187.98 178.5 185.5 178.5ZM185.5 171.5C184.12 171.5 183 172.62 183 174C183 175.38 184.12 176.5 185.5 176.5C186.88 176.5 188 175.38 188 174C188 172.62 186.88 171.5 185.5 171.5Z" fill="#231815"/>
<path d="M198.727 210.182C199.016 210.185 199.291 210.301 199.495 210.505C199.699 210.709 199.815 210.984 199.818 211.273V228.727C199.815 229.016 199.699 229.291 199.495 229.495C199.291 229.699 199.016 229.815 198.727 229.818H175.273C174.984 229.815 174.709 229.699 174.505 229.495C174.301 229.291 174.185 229.016 174.182 228.727V211.273C174.185 210.984 174.301 210.709 174.505 210.505C174.709 210.301 174.984 210.185 175.273 210.182H198.727ZM198.727 208H175.273C174.405 208 173.572 208.345 172.959 208.959C172.345 209.572 172 210.405 172 211.273V228.727C172 229.595 172.345 230.428 172.959 231.041C173.572 231.655 174.405 232 175.273 232H198.727C199.595 232 200.428 231.655 201.041 231.041C201.655 230.428 202 229.595 202 228.727V211.273C202 210.405 201.655 209.572 201.041 208.959C200.428 208.345 199.595 208 198.727 208Z" fill="#2C2C2C"/>
<path d="M189.348 220.758C188.745 221.798 187.783 222.582 186.642 222.962C185.501 223.342 184.261 223.293 183.155 222.823C181.916 222.295 180.527 222.239 179.25 222.664C177.973 223.089 176.895 223.966 176.219 225.13L174.558 227.991L176.143 228.831L177.572 226.376C178.083 225.497 178.898 224.835 179.863 224.514C180.829 224.194 181.878 224.237 182.814 224.636C184.222 225.235 185.801 225.298 187.252 224.814C188.704 224.33 189.928 223.331 190.695 222.007C191.204 221.128 192.016 220.466 192.979 220.145C193.942 219.824 194.99 219.866 195.924 220.264L198.591 221.699L199.439 220.114L196.273 218.451C195.036 217.923 193.649 217.866 192.373 218.292C191.097 218.717 190.021 219.594 189.348 220.758Z" fill="#2C2C2C"/>
<path d="M177.446 214.038C177.446 214.289 177.496 214.537 177.592 214.769C177.688 215 177.828 215.211 178.006 215.388C178.183 215.565 178.393 215.706 178.625 215.802C178.856 215.898 179.105 215.947 179.355 215.947C179.606 215.947 179.854 215.898 180.086 215.802C180.318 215.706 180.528 215.565 180.705 215.388C180.883 215.211 181.023 215 181.119 214.769C181.215 214.537 181.265 214.289 181.265 214.038C181.265 213.788 181.215 213.539 181.119 213.308C181.023 213.076 180.883 212.866 180.705 212.688C180.528 212.511 180.318 212.37 180.086 212.274C179.854 212.179 179.606 212.129 179.355 212.129C179.105 212.129 178.856 212.179 178.625 212.274C178.393 212.37 178.183 212.511 178.006 212.688C177.828 212.866 177.688 213.076 177.592 213.308C177.496 213.539 177.446 213.788 177.446 214.038Z" fill="#2C2C2C"/>
<defs>
<clipPath id="clip0_215_423">
<rect width="30" height="30" fill="white" transform="translate(169 58)"/>
</clipPath>
</defs>
</svg>
