<svg width="419" height="832" viewBox="0 0 419 832" fill="none" xmlns="http://www.w3.org/2000/svg">
<rect x="23" y="27" width="363" height="756" fill="#EEEFDF"/>
<rect x="23.5" y="27.5" width="362" height="755" fill="#EEEFDF" stroke="black"/>
<rect x="47.5" y="544.5" width="304" height="76" rx="14.5" stroke="black"/>
<path d="M112.1 557.92H123.48V559.26H112.1V557.92ZM111.4 565.56H124.16V566.92H111.4V565.56ZM113.06 568.58H122.8V575.54H121.32V569.92H114.5V575.6H113.06V568.58ZM113.78 573.5H121.92V574.82H113.78V573.5ZM116.3 558.44L117.8 558.6C117.653 559.427 117.473 560.32 117.26 561.28C117.047 562.227 116.833 563.147 116.62 564.04C116.42 564.92 116.24 565.68 116.08 566.32H114.5C114.647 565.827 114.8 565.253 114.96 564.6C115.133 563.947 115.3 563.267 115.46 562.56C115.62 561.853 115.773 561.147 115.92 560.44C116.067 559.72 116.193 559.053 116.3 558.44ZM112.82 561.52H121.12V562.82H112.82V561.52ZM120.76 561.52H120.9L121.14 561.44L122.2 561.54C122.147 562.287 122.073 563.087 121.98 563.94C121.9 564.793 121.813 565.573 121.72 566.28L120.3 566.18C120.367 565.687 120.427 565.167 120.48 564.62C120.547 564.06 120.6 563.52 120.64 563C120.693 562.48 120.733 562.047 120.76 561.7V561.52ZM106.96 558.66L107.92 557.74C108.28 558.033 108.653 558.36 109.04 558.72C109.44 559.08 109.813 559.433 110.16 559.78C110.52 560.127 110.8 560.44 111 560.72L109.98 561.8C109.767 561.507 109.493 561.18 109.16 560.82C108.827 560.447 108.467 560.073 108.08 559.7C107.693 559.313 107.32 558.967 106.96 558.66ZM105.9 563.46H109.48V564.92H105.9V563.46ZM108.72 575L108.5 573.6L108.94 572.98L112.48 570.64C112.52 570.827 112.58 571.047 112.66 571.3C112.74 571.54 112.813 571.74 112.88 571.9C112.04 572.473 111.36 572.947 110.84 573.32C110.333 573.68 109.933 573.967 109.64 574.18C109.36 574.393 109.153 574.553 109.02 574.66C108.9 574.78 108.8 574.893 108.72 575ZM108.72 575C108.68 574.867 108.613 574.713 108.52 574.54C108.44 574.38 108.347 574.22 108.24 574.06C108.133 573.9 108.04 573.767 107.96 573.66C108.107 573.553 108.26 573.387 108.42 573.16C108.593 572.92 108.68 572.593 108.68 572.18V563.46H110.08V573.52C110.08 573.52 110.013 573.573 109.88 573.68C109.747 573.773 109.587 573.893 109.4 574.04C109.213 574.2 109.053 574.36 108.92 574.52C108.787 574.693 108.72 574.853 108.72 575ZM127.24 559.02H142.94V560.38H127.24V559.02ZM126.1 563.72H143.92V565.08H126.1V563.72ZM129.78 570.2H140.36V571.4H129.78V570.2ZM129.8 573.58H140.38V574.86H129.8V573.58ZM134.18 557.2H135.74V559.78H134.18V557.2ZM129.04 566.82H141.24V575.56H139.68V568.1H130.52V575.62H129.04V566.82ZM138.7 560.32L140.32 560.72C140.053 561.253 139.773 561.807 139.48 562.38C139.2 562.94 138.933 563.42 138.68 563.82L137.3 563.44C137.46 563.16 137.627 562.84 137.8 562.48C137.973 562.107 138.14 561.733 138.3 561.36C138.46 560.973 138.593 560.627 138.7 560.32ZM130 560.72L131.42 560.4C131.74 560.867 132.02 561.387 132.26 561.96C132.5 562.52 132.66 563.007 132.74 563.42L131.2 563.82C131.12 563.38 130.967 562.873 130.74 562.3C130.527 561.713 130.28 561.187 130 560.72ZM152.3 573.42H161.94V574.8H152.3V573.42ZM151.6 559.2H158.94V560.56H151.6V559.2ZM152.5 557.14L154.2 557.46C153.693 558.327 153.087 559.2 152.38 560.08C151.673 560.947 150.86 561.787 149.94 562.6C149.02 563.413 147.98 564.16 146.82 564.84C146.753 564.72 146.653 564.587 146.52 564.44C146.4 564.293 146.273 564.153 146.14 564.02C146.007 563.873 145.88 563.76 145.76 563.68C146.853 563.08 147.833 562.413 148.7 561.68C149.58 560.933 150.333 560.173 150.96 559.4C151.6 558.613 152.113 557.86 152.5 557.14ZM158.44 559.2H158.74L159 559.12L160 559.68C159.4 561.187 158.62 562.567 157.66 563.82C156.7 565.073 155.613 566.193 154.4 567.18C153.2 568.167 151.927 569.027 150.58 569.76C149.247 570.48 147.893 571.06 146.52 571.5C146.467 571.367 146.387 571.213 146.28 571.04C146.187 570.867 146.08 570.7 145.96 570.54C145.853 570.38 145.753 570.253 145.66 570.16C146.953 569.787 148.247 569.267 149.54 568.6C150.833 567.933 152.053 567.14 153.2 566.22C154.36 565.3 155.393 564.273 156.3 563.14C157.22 562.007 157.933 560.787 158.44 559.48V559.2ZM149.12 562.76L150.22 561.82C150.753 562.167 151.3 562.567 151.86 563.02C152.433 563.473 152.967 563.927 153.46 564.38C153.953 564.833 154.353 565.253 154.66 565.64L153.44 566.7C153.16 566.313 152.78 565.887 152.3 565.42C151.82 564.953 151.3 564.487 150.74 564.02C150.18 563.553 149.64 563.133 149.12 562.76ZM161.22 567.08H162.76V575.64H161.22V567.08ZM152.98 567.08H161.98V568.46H152.98V575.6H151.48V568.28L152.68 567.08H152.98ZM169.24 558.86H170.72V575.56H169.24V558.86ZM165.98 562.84H173.22V564.24H165.98V562.84ZM169.32 563.38L170.26 563.78C170.06 564.487 169.813 565.22 169.52 565.98C169.227 566.727 168.907 567.473 168.56 568.22C168.227 568.953 167.867 569.647 167.48 570.3C167.107 570.94 166.727 571.487 166.34 571.94C166.26 571.74 166.14 571.507 165.98 571.24C165.833 570.973 165.693 570.747 165.56 570.56C165.933 570.16 166.3 569.68 166.66 569.12C167.02 568.56 167.367 567.953 167.7 567.3C168.047 566.647 168.36 565.987 168.64 565.32C168.92 564.64 169.147 563.993 169.32 563.38ZM172.22 557.48L173.26 558.64C172.647 558.88 171.947 559.107 171.16 559.32C170.373 559.533 169.56 559.72 168.72 559.88C167.893 560.027 167.087 560.153 166.3 560.26C166.273 560.1 166.213 559.913 166.12 559.7C166.027 559.473 165.94 559.28 165.86 559.12C166.607 558.987 167.373 558.84 168.16 558.68C168.96 558.52 169.713 558.34 170.42 558.14C171.127 557.927 171.727 557.707 172.22 557.48ZM170.64 565.4C170.773 565.52 170.967 565.713 171.22 565.98C171.487 566.233 171.773 566.513 172.08 566.82C172.387 567.113 172.66 567.393 172.9 567.66C173.153 567.927 173.333 568.12 173.44 568.24L172.54 569.42C172.42 569.22 172.247 568.967 172.02 568.66C171.807 568.353 171.567 568.027 171.3 567.68C171.033 567.333 170.78 567.013 170.54 566.72C170.3 566.427 170.1 566.193 169.94 566.02L170.64 565.4ZM175.66 557.24L177.12 557.52C176.88 558.547 176.587 559.547 176.24 560.52C175.907 561.493 175.527 562.4 175.1 563.24C174.687 564.08 174.24 564.82 173.76 565.46C173.667 565.38 173.54 565.293 173.38 565.2C173.22 565.093 173.053 564.993 172.88 564.9C172.72 564.793 172.573 564.713 172.44 564.66C172.947 564.06 173.4 563.367 173.8 562.58C174.213 561.793 174.573 560.947 174.88 560.04C175.2 559.12 175.46 558.187 175.66 557.24ZM175.34 565.16L176.8 565.44C176.613 566.32 176.387 567.187 176.12 568.04C175.853 568.893 175.547 569.693 175.2 570.44C174.867 571.173 174.507 571.82 174.12 572.38C174.027 572.313 173.9 572.227 173.74 572.12C173.593 572.013 173.44 571.913 173.28 571.82C173.12 571.727 172.98 571.647 172.86 571.58C173.447 570.793 173.947 569.833 174.36 568.7C174.787 567.553 175.113 566.373 175.34 565.16ZM175.48 560.74H184.1V562.14H174.98L175.48 560.74ZM178.2 561.28H179.68V573.72C179.68 574.147 179.627 574.48 179.52 574.72C179.413 574.96 179.22 575.147 178.94 575.28C178.673 575.4 178.32 575.473 177.88 575.5C177.453 575.54 176.927 575.56 176.3 575.56C176.26 575.36 176.187 575.107 176.08 574.8C175.987 574.507 175.88 574.26 175.76 574.06C176.24 574.073 176.673 574.08 177.06 574.08C177.46 574.08 177.727 574.08 177.86 574.08C177.98 574.067 178.067 574.04 178.12 574C178.173 573.947 178.2 573.853 178.2 573.72V561.28ZM181.02 565.4L182.34 565C182.633 565.72 182.913 566.487 183.18 567.3C183.46 568.113 183.707 568.913 183.92 569.7C184.133 570.473 184.287 571.167 184.38 571.78L182.98 572.2C182.887 571.587 182.74 570.887 182.54 570.1C182.34 569.313 182.107 568.513 181.84 567.7C181.573 566.873 181.3 566.107 181.02 565.4Z" fill="black"/>
<path d="M110.68 587.136H119.784V588.208H110.68V587.136ZM110.12 593.248H120.328V594.336H110.12V593.248ZM111.448 595.664H119.24V601.232H118.056V596.736H112.6V601.28H111.448V595.664ZM112.024 599.6H118.536V600.656H112.024V599.6ZM114.04 587.552L115.24 587.68C115.123 588.341 114.979 589.056 114.808 589.824C114.637 590.581 114.467 591.317 114.296 592.032C114.136 592.736 113.992 593.344 113.864 593.856H112.6C112.717 593.461 112.84 593.003 112.968 592.48C113.107 591.957 113.24 591.413 113.368 590.848C113.496 590.283 113.619 589.717 113.736 589.152C113.853 588.576 113.955 588.043 114.04 587.552ZM111.256 590.016H117.896V591.056H111.256V590.016ZM117.608 590.016H117.72L117.912 589.952L118.76 590.032C118.717 590.629 118.659 591.269 118.584 591.952C118.52 592.635 118.451 593.259 118.376 593.824L117.24 593.744C117.293 593.349 117.341 592.933 117.384 592.496C117.437 592.048 117.48 591.616 117.512 591.2C117.555 590.784 117.587 590.437 117.608 590.16V590.016ZM106.568 587.728L107.336 586.992C107.624 587.227 107.923 587.488 108.232 587.776C108.552 588.064 108.851 588.347 109.128 588.624C109.416 588.901 109.64 589.152 109.8 589.376L108.984 590.24C108.813 590.005 108.595 589.744 108.328 589.456C108.061 589.157 107.773 588.859 107.464 588.56C107.155 588.251 106.856 587.973 106.568 587.728ZM105.72 591.568H108.584V592.736H105.72V591.568ZM107.976 600.8L107.8 599.68L108.152 599.184L110.984 597.312C111.016 597.461 111.064 597.637 111.128 597.84C111.192 598.032 111.251 598.192 111.304 598.32C110.632 598.779 110.088 599.157 109.672 599.456C109.267 599.744 108.947 599.973 108.712 600.144C108.488 600.315 108.323 600.443 108.216 600.528C108.12 600.624 108.04 600.715 107.976 600.8ZM107.976 600.8C107.944 600.693 107.891 600.571 107.816 600.432C107.752 600.304 107.677 600.176 107.592 600.048C107.507 599.92 107.432 599.813 107.368 599.728C107.485 599.643 107.608 599.509 107.736 599.328C107.875 599.136 107.944 598.875 107.944 598.544V591.568H109.064V599.616C109.064 599.616 109.011 599.659 108.904 599.744C108.797 599.819 108.669 599.915 108.52 600.032C108.371 600.16 108.243 600.288 108.136 600.416C108.029 600.555 107.976 600.683 107.976 600.8ZM124.808 599.568H133.272V600.592H124.808V599.568ZM124.344 594.016H133.672V595.024H124.344V594.016ZM124.344 591.84H133.672V592.832H124.344V591.84ZM121.864 589.616H136.216V590.656H121.864V589.616ZM124.584 587.44H133.448V588.432H124.584V587.44ZM124.152 596.24H133.88V601.216H132.664V597.264H125.336V601.264H124.152V596.24ZM143.48 587.312H150.872V588.304H143.48V587.312ZM143.288 591.76H151.16V592.752H143.288V591.76ZM143.288 593.984H151.128V594.976H143.288V593.984ZM143.752 599.52H150.68V600.528H143.752V599.52ZM141.976 589.536H152.392V590.544H141.976V589.536ZM143.128 596.208H151.304V601.232H150.104V597.184H144.28V601.28H143.128V596.208ZM141.432 586.608L142.552 586.96C142.189 587.856 141.763 588.741 141.272 589.616C140.792 590.491 140.269 591.312 139.704 592.08C139.149 592.848 138.579 593.531 137.992 594.128C137.949 594.032 137.885 593.909 137.8 593.76C137.725 593.611 137.645 593.461 137.56 593.312C137.475 593.163 137.395 593.04 137.32 592.944C137.853 592.432 138.376 591.84 138.888 591.168C139.4 590.485 139.875 589.76 140.312 588.992C140.749 588.213 141.123 587.419 141.432 586.608ZM139.768 590.736L140.888 589.6L140.92 589.616V601.232H139.768V590.736ZM157.784 596.976H158.968V599.616C158.968 599.819 159.027 599.947 159.144 600C159.261 600.064 159.539 600.096 159.976 600.096C160.083 600.096 160.264 600.096 160.52 600.096C160.787 600.096 161.08 600.096 161.4 600.096C161.72 600.096 162.019 600.096 162.296 600.096C162.573 600.096 162.781 600.096 162.92 600.096C163.155 600.096 163.325 600.064 163.432 600C163.549 599.925 163.629 599.776 163.672 599.552C163.725 599.328 163.763 598.997 163.784 598.56C163.88 598.613 163.987 598.672 164.104 598.736C164.232 598.789 164.365 598.837 164.504 598.88C164.643 598.923 164.765 598.96 164.872 598.992C164.819 599.589 164.733 600.043 164.616 600.352C164.499 600.672 164.312 600.891 164.056 601.008C163.811 601.125 163.469 601.184 163.032 601.184C162.947 601.184 162.797 601.184 162.584 601.184C162.381 601.184 162.141 601.184 161.864 601.184C161.587 601.184 161.309 601.184 161.032 601.184C160.765 601.184 160.525 601.184 160.312 601.184C160.109 601.184 159.971 601.184 159.896 601.184C159.341 601.184 158.909 601.141 158.6 601.056C158.301 600.971 158.088 600.811 157.96 600.576C157.843 600.352 157.784 600.032 157.784 599.616V596.976ZM159.432 596.4L160.312 595.792C160.632 595.995 160.952 596.229 161.272 596.496C161.592 596.752 161.885 597.013 162.152 597.28C162.419 597.547 162.632 597.803 162.792 598.048L161.864 598.736C161.704 598.491 161.496 598.235 161.24 597.968C160.984 597.691 160.696 597.413 160.376 597.136C160.067 596.859 159.752 596.613 159.432 596.4ZM164.6 597.28L165.56 596.672C165.955 596.992 166.344 597.355 166.728 597.76C167.112 598.155 167.459 598.555 167.768 598.96C168.088 599.355 168.333 599.728 168.504 600.08L167.464 600.752C167.304 600.411 167.069 600.037 166.76 599.632C166.461 599.227 166.125 598.816 165.752 598.4C165.379 597.984 164.995 597.611 164.6 597.28ZM155.608 596.848L156.664 597.232C156.461 597.851 156.195 598.48 155.864 599.12C155.533 599.76 155.107 600.304 154.584 600.752L153.592 600.048C154.093 599.675 154.509 599.195 154.84 598.608C155.171 598.011 155.427 597.424 155.608 596.848ZM157.352 591.056V592.368H164.824V591.056H157.352ZM157.352 593.312V594.624H164.824V593.312H157.352ZM157.352 588.832V590.128H164.824V588.832H157.352ZM156.184 587.872H166.04V595.6H156.184V587.872ZM160.44 586.4L161.848 586.64C161.688 586.971 161.517 587.296 161.336 587.616C161.165 587.925 161.011 588.197 160.872 588.432L159.8 588.16C159.917 587.904 160.035 587.611 160.152 587.28C160.28 586.939 160.376 586.645 160.44 586.4Z" fill="black"/>
<path d="M81.25 576.75C81.25 572.201 77.5488 568.5 73 568.5C68.4512 568.5 64.75 572.201 64.75 576.75C64.75 581.048 68.0553 584.585 72.2575 584.963C72.2568 584.976 72.25 584.987 72.25 585V586.5H69.25C68.836 586.5 68.5 586.835 68.5 587.25C68.5 587.665 68.836 588 69.25 588H72.25V588.75C72.25 589.165 72.586 589.5 73 589.5C73.414 589.5 73.75 589.165 73.75 588.75V588H76.75C77.1647 588 77.5 587.665 77.5 587.25C77.5 586.835 77.1647 586.5 76.75 586.5H73.75V585C73.75 584.987 73.7432 584.976 73.7425 584.963C77.9447 584.585 81.25 581.048 81.25 576.75ZM73 583.5C69.2785 583.5 66.25 580.472 66.25 576.75C66.25 573.029 69.2785 570 73 570C76.7222 570 79.75 573.029 79.75 576.75C79.75 580.472 76.7222 583.5 73 583.5Z" fill="#5E6570"/>
<path d="M313.215 594.463L323.785 583.893L325.178 582.5L323.785 581.107L313.215 570.537L311.822 571.93L322.391 582.5L311.822 593.07L313.215 594.463Z" fill="#787878"/>
<rect x="47" y="656" width="305" height="76" rx="15" fill="#E8E1C4"/>
<path d="M181.528 676.408L184.012 678.496C182.644 679.072 181.096 679.612 179.368 680.116C177.664 680.62 175.9 681.076 174.076 681.484C172.252 681.892 170.476 682.252 168.748 682.564C168.676 682.252 168.544 681.868 168.352 681.412C168.16 680.956 167.968 680.584 167.776 680.296C169.432 679.984 171.112 679.624 172.816 679.216C174.544 678.784 176.164 678.328 177.676 677.848C179.212 677.368 180.496 676.888 181.528 676.408ZM167.092 679.432L170.548 680.296C170.524 680.584 170.272 680.752 169.792 680.8V689.764C169.792 691.156 169.72 692.656 169.576 694.264C169.432 695.848 169.132 697.456 168.676 699.088C168.22 700.72 167.548 702.316 166.66 703.876C165.796 705.436 164.632 706.876 163.168 708.196C163.072 707.956 162.904 707.704 162.664 707.44C162.448 707.2 162.208 706.96 161.944 706.72C161.704 706.48 161.476 706.3 161.26 706.18C162.556 705.004 163.588 703.732 164.356 702.364C165.148 700.972 165.736 699.556 166.12 698.116C166.528 696.676 166.792 695.248 166.912 693.832C167.032 692.392 167.092 691.024 167.092 689.728V679.432ZM168.712 688.54H185.668V691.168H168.712V688.54ZM176.848 689.584H179.548V708.88H176.848V689.584ZM155.176 679.216H164.284V698.62H155.176V696.1H161.692V681.736H155.176V679.216ZM153.664 679.216H156.22V701.896H153.664V679.216ZM188.584 690.484H221.56V693.436H188.584V690.484ZM253.528 676.408L256.012 678.496C254.644 679.072 253.096 679.612 251.368 680.116C249.664 680.62 247.9 681.076 246.076 681.484C244.252 681.892 242.476 682.252 240.748 682.564C240.676 682.252 240.544 681.868 240.352 681.412C240.16 680.956 239.968 680.584 239.776 680.296C241.432 679.984 243.112 679.624 244.816 679.216C246.544 678.784 248.164 678.328 249.676 677.848C251.212 677.368 252.496 676.888 253.528 676.408ZM239.092 679.432L242.548 680.296C242.524 680.584 242.272 680.752 241.792 680.8V689.764C241.792 691.156 241.72 692.656 241.576 694.264C241.432 695.848 241.132 697.456 240.676 699.088C240.22 700.72 239.548 702.316 238.66 703.876C237.796 705.436 236.632 706.876 235.168 708.196C235.072 707.956 234.904 707.704 234.664 707.44C234.448 707.2 234.208 706.96 233.944 706.72C233.704 706.48 233.476 706.3 233.26 706.18C234.556 705.004 235.588 703.732 236.356 702.364C237.148 700.972 237.736 699.556 238.12 698.116C238.528 696.676 238.792 695.248 238.912 693.832C239.032 692.392 239.092 691.024 239.092 689.728V679.432ZM240.712 688.54H257.668V691.168H240.712V688.54ZM248.848 689.584H251.548V708.88H248.848V689.584ZM227.176 679.216H236.284V698.62H227.176V696.1H233.692V681.736H227.176V679.216ZM225.664 679.216H228.22V701.896H225.664V679.216Z" fill="#2C2C2C"/>
<path d="M104.268 147.34H135.804V149.932H104.268V147.34ZM115.428 158.752H134.4V161.272H115.428V158.752ZM113.988 171.496H135.768V174.016H113.988V171.496ZM123.528 151.804H126.228V172.864H123.528V151.804ZM116.076 141.76L118.884 142.444C118.044 145.18 116.976 147.892 115.68 150.58C114.408 153.268 112.872 155.788 111.072 158.14C109.272 160.468 107.172 162.484 104.772 164.188C104.676 163.948 104.544 163.684 104.376 163.396C104.208 163.084 104.028 162.784 103.836 162.496C103.668 162.184 103.512 161.92 103.368 161.704C105 160.576 106.476 159.256 107.796 157.744C109.14 156.208 110.34 154.564 111.396 152.812C112.452 151.036 113.364 149.212 114.132 147.34C114.924 145.468 115.572 143.608 116.076 141.76ZM108.948 156.592H111.648V174.736H108.948V156.592ZM145.956 168.04C146.532 168.04 147.096 168.232 147.648 168.616C148.2 169 148.944 169.444 149.88 169.948C151.008 170.572 152.364 170.98 153.948 171.172C155.532 171.34 157.296 171.424 159.24 171.424C160.272 171.424 161.376 171.412 162.552 171.388C163.728 171.34 164.904 171.292 166.08 171.244C167.28 171.196 168.444 171.124 169.572 171.028C170.7 170.932 171.72 170.836 172.632 170.74C172.536 170.98 172.416 171.292 172.272 171.676C172.152 172.036 172.044 172.396 171.948 172.756C171.876 173.14 171.828 173.476 171.804 173.764C171.108 173.812 170.232 173.86 169.176 173.908C168.12 173.956 166.992 173.992 165.792 174.016C164.592 174.064 163.416 174.1 162.264 174.124C161.112 174.148 160.08 174.16 159.168 174.16C157.032 174.16 155.16 174.04 153.552 173.8C151.968 173.584 150.564 173.14 149.34 172.468C148.596 172.036 147.936 171.628 147.36 171.244C146.784 170.86 146.304 170.668 145.92 170.668C145.512 170.668 145.044 170.86 144.516 171.244C144.012 171.604 143.472 172.072 142.896 172.648C142.344 173.248 141.78 173.896 141.204 174.592L139.296 171.964C140.472 170.836 141.636 169.9 142.788 169.156C143.964 168.412 145.02 168.04 145.956 168.04ZM140.196 144.748L142.284 143.344C142.932 143.848 143.592 144.436 144.264 145.108C144.936 145.78 145.56 146.44 146.136 147.088C146.736 147.736 147.204 148.336 147.54 148.888L145.308 150.472C144.996 149.92 144.552 149.32 143.976 148.672C143.424 148 142.812 147.328 142.14 146.656C141.468 145.96 140.82 145.324 140.196 144.748ZM147.036 155.332V169.408H144.444V157.852H139.764V155.332H147.036ZM148.62 147.376H172.02V149.932H148.62V147.376ZM165.18 147.916L167.88 148.456C166.944 151.912 165.672 154.936 164.064 157.528C162.48 160.12 160.524 162.34 158.196 164.188C155.868 166.036 153.156 167.572 150.06 168.796C149.964 168.58 149.82 168.328 149.628 168.04C149.46 167.728 149.256 167.428 149.016 167.14C148.8 166.828 148.608 166.588 148.44 166.42C152.952 164.836 156.576 162.556 159.312 159.58C162.048 156.58 164.004 152.692 165.18 147.916ZM156.828 142.372L159.42 141.544C159.948 142.36 160.464 143.26 160.968 144.244C161.496 145.204 161.88 146.032 162.12 146.728L159.42 147.7C159.228 147.004 158.88 146.152 158.376 145.144C157.872 144.112 157.356 143.188 156.828 142.372ZM149.736 153.568L151.608 151.948C153.216 153.028 154.908 154.216 156.684 155.512C158.46 156.808 160.212 158.128 161.94 159.472C163.692 160.792 165.324 162.076 166.836 163.324C168.348 164.548 169.632 165.664 170.688 166.672L168.6 168.688C167.592 167.68 166.356 166.54 164.892 165.268C163.428 163.996 161.832 162.676 160.104 161.308C158.4 159.94 156.648 158.596 154.848 157.276C153.072 155.932 151.368 154.696 149.736 153.568ZM182.244 152.416V157.024H202.188V152.416H182.244ZM182.244 145.648V150.148H202.188V145.648H182.244ZM179.544 143.2H204.996V159.436H179.544V143.2ZM175.944 171.316H208.128V173.836H175.944V171.316ZM178.392 163.612H206.184V166.132H178.392V163.612ZM190.848 144.712H193.44V159.04H193.584V172.756H190.668V159.04H190.848V144.712ZM211.692 146.08H223.212V148.528H211.692V146.08ZM217.884 151.66H220.26V174.844H217.884V151.66ZM211.512 165.988C213 165.7 214.764 165.316 216.804 164.836C218.844 164.356 220.92 163.876 223.032 163.396L223.248 165.664C221.304 166.192 219.36 166.708 217.416 167.212C215.472 167.692 213.708 168.136 212.124 168.544L211.512 165.988ZM212.556 160.12C212.508 159.952 212.436 159.736 212.34 159.472C212.244 159.184 212.136 158.896 212.016 158.608C211.92 158.296 211.824 158.044 211.728 157.852C212.04 157.78 212.316 157.48 212.556 156.952C212.796 156.4 213.036 155.716 213.276 154.9C213.42 154.492 213.612 153.844 213.852 152.956C214.092 152.068 214.356 151.012 214.644 149.788C214.932 148.564 215.196 147.268 215.436 145.9C215.676 144.532 215.856 143.164 215.976 141.796L218.496 142.228C218.232 144.124 217.872 146.068 217.416 148.06C216.96 150.028 216.444 151.924 215.868 153.748C215.316 155.572 214.74 157.204 214.14 158.644V158.716C214.14 158.716 214.056 158.764 213.888 158.86C213.72 158.956 213.528 159.076 213.312 159.22C213.12 159.364 212.94 159.52 212.772 159.688C212.628 159.832 212.556 159.976 212.556 160.12ZM212.556 160.12V157.852L213.96 157.132H223.14V159.616H215.04C214.464 159.616 213.936 159.664 213.456 159.76C213 159.856 212.7 159.976 212.556 160.12ZM227.172 150.616H240.492V152.848H227.172V150.616ZM224.94 155.224H232.824V157.384H227.172V174.736H224.94V155.224ZM232.104 155.224H234.372V172.036C234.372 172.612 234.312 173.068 234.192 173.404C234.072 173.764 233.82 174.052 233.436 174.268C233.076 174.436 232.608 174.544 232.032 174.592C231.48 174.64 230.808 174.664 230.016 174.664C229.992 174.352 229.908 173.98 229.764 173.548C229.644 173.116 229.5 172.744 229.332 172.432C229.884 172.456 230.376 172.468 230.808 172.468C231.24 172.468 231.54 172.468 231.708 172.468C231.972 172.444 232.104 172.3 232.104 172.036V155.224ZM226.524 160.228H233.688V162.316H226.524V160.228ZM226.488 165.268H233.652V167.32H226.488V165.268ZM236.424 155.908H238.548V168.94H236.424V155.908ZM240.996 154.576H243.192V171.82C243.192 172.468 243.108 172.96 242.94 173.296C242.796 173.656 242.496 173.944 242.04 174.16C241.608 174.328 241.032 174.436 240.312 174.484C239.592 174.532 238.692 174.556 237.612 174.556C237.588 174.244 237.504 173.872 237.36 173.44C237.216 173.032 237.06 172.66 236.892 172.324C237.732 172.348 238.476 172.36 239.124 172.36C239.772 172.36 240.216 172.36 240.456 172.36C240.816 172.336 240.996 172.156 240.996 171.82V154.576ZM233.724 141.652L235.92 142.624C235.032 144.016 233.964 145.372 232.716 146.692C231.492 147.988 230.16 149.176 228.72 150.256C227.28 151.336 225.804 152.26 224.292 153.028C224.076 152.716 223.8 152.368 223.464 151.984C223.152 151.6 222.84 151.276 222.528 151.012C223.968 150.316 225.396 149.488 226.812 148.528C228.228 147.544 229.536 146.464 230.736 145.288C231.936 144.112 232.932 142.9 233.724 141.652ZM234.588 143.2C236.004 144.928 237.6 146.368 239.376 147.52C241.176 148.672 243.072 149.68 245.064 150.544C244.752 150.808 244.428 151.132 244.092 151.516C243.756 151.9 243.504 152.284 243.336 152.668C241.248 151.588 239.304 150.376 237.504 149.032C235.704 147.688 234.024 146.032 232.464 144.064L234.588 143.2ZM107.4 213.948H132.816V216.612H107.4V213.948ZM118.416 185.94H121.224V215.496H118.416V185.94ZM106.068 203.94H108.768V218.88H106.068V203.94ZM131.376 203.94H134.148V218.808H131.376V203.94ZM107.436 189.18H110.136V199.008H129.9V189.18H132.708V201.6H107.436V189.18ZM154.92 197.424H169.716V200.124H154.92V197.424ZM139.836 214.452H172.2V217.152H139.836V214.452ZM153.372 186.3H156.216V215.892H153.372V186.3ZM183.576 185.904L186.132 186.66C185.34 188.7 184.416 190.716 183.36 192.708C182.304 194.676 181.164 196.536 179.94 198.288C178.716 200.04 177.456 201.588 176.16 202.932C176.064 202.716 175.932 202.44 175.764 202.104C175.596 201.768 175.404 201.432 175.188 201.096C174.996 200.736 174.816 200.46 174.648 200.268C175.824 199.092 176.964 197.736 178.068 196.2C179.172 194.664 180.192 193.02 181.128 191.268C182.088 189.492 182.904 187.704 183.576 185.904ZM179.76 195.156L182.316 192.564L182.352 192.6V218.808H179.76V195.156ZM191.064 203.58H204.42V206.1H191.064V203.58ZM203.52 203.58H204.024L204.456 203.4L206.364 204.588C205.524 205.572 204.576 206.664 203.52 207.864C202.464 209.064 201.372 210.276 200.244 211.5C199.14 212.7 198.072 213.864 197.04 214.992L194.808 213.624C195.84 212.544 196.908 211.404 198.012 210.204C199.116 209.004 200.148 207.852 201.108 206.748C202.092 205.62 202.896 204.672 203.52 203.904V203.58ZM194.628 185.94L197.292 186.3C196.884 187.908 196.44 189.612 195.96 191.412C195.48 193.188 194.988 194.976 194.484 196.776C193.98 198.576 193.488 200.28 193.008 201.888C192.528 203.496 192.084 204.9 191.676 206.1H188.796C189.252 204.828 189.744 203.364 190.272 201.708C190.8 200.052 191.316 198.312 191.82 196.488C192.348 194.664 192.852 192.852 193.332 191.052C193.812 189.228 194.244 187.524 194.628 185.94ZM186.528 189.936H206.688V192.456H186.528V189.936ZM184.476 196.74H208.344V199.296H184.476V196.74ZM190.848 211.5L192.828 209.844C193.98 210.54 195.156 211.308 196.356 212.148C197.58 212.988 198.708 213.816 199.74 214.632C200.796 215.448 201.66 216.192 202.332 216.864L200.316 218.88C199.668 218.184 198.816 217.392 197.76 216.504C196.704 215.64 195.576 214.764 194.376 213.876C193.176 212.988 192 212.196 190.848 211.5ZM214.716 191.556H225.66V215.1H214.716V212.652H223.176V193.968H214.716V191.556ZM213.132 191.556H215.616V217.944H213.132V191.556ZM214.536 201.564H224.472V203.94H214.536V201.564ZM218.64 185.688L221.556 186.192C221.196 187.32 220.8 188.46 220.368 189.612C219.96 190.764 219.576 191.748 219.216 192.564L217.02 192.024C217.236 191.424 217.44 190.752 217.632 190.008C217.848 189.264 218.04 188.508 218.208 187.74C218.4 186.972 218.544 186.288 218.64 185.688ZM230.808 191.448H241.86V193.932H230.808V191.448ZM240.888 191.448H243.444C243.444 191.448 243.444 191.532 243.444 191.7C243.444 191.868 243.444 192.072 243.444 192.312C243.444 192.528 243.432 192.696 243.408 192.816C243.264 196.944 243.12 200.436 242.976 203.292C242.856 206.148 242.7 208.488 242.508 210.312C242.316 212.112 242.088 213.516 241.824 214.524C241.584 215.532 241.284 216.252 240.924 216.684C240.516 217.212 240.084 217.572 239.628 217.764C239.196 217.98 238.656 218.124 238.008 218.196C237.408 218.244 236.616 218.256 235.632 218.232C234.672 218.232 233.676 218.196 232.644 218.124C232.62 217.74 232.524 217.296 232.356 216.792C232.212 216.288 232.008 215.868 231.744 215.532C232.944 215.628 234.024 215.688 234.984 215.712C235.968 215.736 236.676 215.748 237.108 215.748C237.468 215.748 237.756 215.712 237.972 215.64C238.212 215.544 238.44 215.376 238.656 215.136C238.944 214.824 239.196 214.188 239.412 213.228C239.652 212.244 239.856 210.852 240.024 209.052C240.192 207.252 240.348 204.96 240.492 202.176C240.636 199.368 240.768 195.984 240.888 192.024V191.448ZM231.528 185.616L234.12 186.192C233.688 187.992 233.16 189.756 232.536 191.484C231.936 193.188 231.264 194.796 230.52 196.308C229.8 197.82 229.032 199.152 228.216 200.304C228.048 200.16 227.82 199.992 227.532 199.8C227.268 199.584 226.992 199.392 226.704 199.224C226.416 199.032 226.164 198.876 225.948 198.756C226.788 197.676 227.556 196.44 228.252 195.048C228.948 193.632 229.572 192.12 230.124 190.512C230.676 188.904 231.144 187.272 231.528 185.616ZM229.872 200.772L231.996 199.584C232.668 200.424 233.364 201.348 234.084 202.356C234.828 203.364 235.512 204.336 236.136 205.272C236.784 206.208 237.3 207.036 237.684 207.756L235.38 209.196C235.02 208.452 234.528 207.6 233.904 206.64C233.304 205.656 232.644 204.66 231.924 203.652C231.228 202.62 230.544 201.66 229.872 200.772ZM128.1 237.212L130.944 238.076C129.432 242.468 127.488 246.26 125.112 249.452C122.76 252.644 119.928 255.332 116.616 257.516C113.328 259.7 109.5 261.5 105.132 262.916C105.036 262.676 104.88 262.4 104.664 262.088C104.472 261.776 104.256 261.452 104.016 261.116C103.8 260.78 103.596 260.516 103.404 260.324C107.676 259.076 111.408 257.444 114.6 255.428C117.792 253.388 120.504 250.88 122.736 247.904C124.968 244.904 126.756 241.34 128.1 237.212ZM111.72 237.428C113.04 241.268 114.816 244.724 117.048 247.796C119.304 250.844 122.064 253.424 125.328 255.536C128.592 257.648 132.396 259.22 136.74 260.252C136.524 260.444 136.284 260.696 136.02 261.008C135.78 261.344 135.54 261.68 135.3 262.016C135.084 262.352 134.904 262.64 134.76 262.88C130.32 261.728 126.444 260.024 123.132 257.768C119.844 255.488 117.048 252.716 114.744 249.452C112.44 246.164 110.544 242.42 109.056 238.22L111.72 237.428ZM103.8 235.88H136.344V238.508H103.8V235.88ZM118.56 229.76H121.332V237.464H118.56V229.76ZM159.744 230.192H162.444V262.88H159.744V230.192ZM153.552 231.56L156.144 232.1C155.808 233.756 155.4 235.4 154.92 237.032C154.464 238.64 153.936 240.14 153.336 241.532C152.76 242.924 152.124 244.172 151.428 245.276C151.26 245.132 151.032 244.976 150.744 244.808C150.48 244.64 150.192 244.472 149.88 244.304C149.592 244.136 149.34 244.004 149.124 243.908C149.82 242.924 150.444 241.772 150.996 240.452C151.572 239.108 152.076 237.68 152.508 236.168C152.94 234.656 153.288 233.12 153.552 231.56ZM153.876 237.14H170.724V239.768H153.228L153.876 237.14ZM149.412 247.724H172.308V250.388H149.412V247.724ZM147.648 229.904L150.204 230.66C149.436 232.7 148.548 234.716 147.54 236.708C146.556 238.676 145.476 240.536 144.3 242.288C143.148 244.016 141.948 245.564 140.7 246.932C140.604 246.716 140.46 246.44 140.268 246.104C140.1 245.768 139.908 245.432 139.692 245.096C139.5 244.736 139.32 244.46 139.152 244.268C140.28 243.092 141.36 241.736 142.392 240.2C143.448 238.664 144.42 237.02 145.308 235.268C146.22 233.492 147 231.704 147.648 229.904ZM144.012 239.156L146.568 236.6L146.604 236.636V262.808H144.012V239.156ZM193.872 229.832H196.752C196.752 232.568 196.836 235.22 197.004 237.788C197.172 240.332 197.424 242.732 197.76 244.988C198.096 247.244 198.504 249.296 198.984 251.144C199.464 252.992 199.992 254.588 200.568 255.932C201.168 257.252 201.804 258.284 202.476 259.028C203.148 259.748 203.844 260.108 204.564 260.108C205.092 260.108 205.476 259.592 205.716 258.56C205.956 257.528 206.136 255.8 206.256 253.376C206.544 253.688 206.916 253.988 207.372 254.276C207.828 254.564 208.248 254.78 208.632 254.924C208.464 256.988 208.224 258.596 207.912 259.748C207.6 260.9 207.156 261.716 206.58 262.196C206.028 262.676 205.284 262.916 204.348 262.916C203.148 262.916 202.056 262.496 201.072 261.656C200.112 260.816 199.248 259.64 198.48 258.128C197.712 256.616 197.04 254.84 196.464 252.8C195.912 250.736 195.444 248.468 195.06 245.996C194.676 243.524 194.388 240.92 194.196 238.184C194.004 235.448 193.896 232.664 193.872 229.832ZM198.912 231.524L200.496 229.868C201.24 230.18 202.008 230.552 202.8 230.984C203.592 231.416 204.336 231.86 205.032 232.316C205.728 232.772 206.292 233.204 206.724 233.612L205.068 235.484C204.636 235.076 204.072 234.632 203.376 234.152C202.704 233.672 201.972 233.204 201.18 232.748C200.412 232.292 199.656 231.884 198.912 231.524ZM203.592 240.776L206.292 241.424C204.708 246.272 202.56 250.496 199.848 254.096C197.16 257.696 193.932 260.624 190.164 262.88C190.02 262.688 189.816 262.46 189.552 262.196C189.312 261.956 189.06 261.692 188.796 261.404C188.532 261.14 188.292 260.936 188.076 260.792C191.82 258.752 194.988 256.04 197.58 252.656C200.172 249.272 202.176 245.312 203.592 240.776ZM176.448 235.52H207.696V238.184H176.448V235.52ZM176.232 257.624C177.552 257.384 179.076 257.096 180.804 256.76C182.556 256.4 184.404 256.016 186.348 255.608C188.292 255.2 190.236 254.804 192.18 254.42L192.396 256.976C190.548 257.384 188.688 257.792 186.816 258.2C184.944 258.608 183.144 259.004 181.416 259.388C179.712 259.748 178.164 260.084 176.772 260.396L176.232 257.624ZM181.02 243.728V249.992H188.364V243.728H181.02ZM178.5 241.352H190.992V252.332H178.5V241.352ZM211.944 241.316H244.056V243.764H211.944V241.316ZM215.112 234.296H235.992V236.672H215.112V234.296ZM220.98 253.412H237.936V255.572H220.98V253.412ZM220.98 259.352H237.936V261.692H220.98V259.352ZM224.364 229.76H227.028V242.612H224.364V229.76ZM240.132 230.984L242.436 232.244C240.036 235.388 237.264 238.268 234.12 240.884C231 243.5 227.64 245.84 224.04 247.904C220.44 249.968 216.72 251.732 212.88 253.196C212.784 252.98 212.628 252.74 212.412 252.476C212.196 252.188 211.968 251.912 211.728 251.648C211.512 251.36 211.32 251.12 211.152 250.928C215.04 249.584 218.772 247.928 222.348 245.96C225.924 243.992 229.224 241.748 232.248 239.228C235.296 236.708 237.924 233.96 240.132 230.984ZM219.504 247.544H239.628V262.736H236.856V249.848H222.204V262.88H219.504V247.544ZM103.692 278.08H115.212V280.528H103.692V278.08ZM109.884 283.66H112.26V306.844H109.884V283.66ZM103.512 297.988C105 297.7 106.764 297.316 108.804 296.836C110.844 296.356 112.92 295.876 115.032 295.396L115.248 297.664C113.304 298.192 111.36 298.708 109.416 299.212C107.472 299.692 105.708 300.136 104.124 300.544L103.512 297.988ZM104.556 292.12C104.508 291.952 104.436 291.736 104.34 291.472C104.244 291.184 104.136 290.896 104.016 290.608C103.92 290.296 103.824 290.044 103.728 289.852C104.04 289.78 104.316 289.48 104.556 288.952C104.796 288.4 105.036 287.716 105.276 286.9C105.42 286.492 105.612 285.844 105.852 284.956C106.092 284.068 106.356 283.012 106.644 281.788C106.932 280.564 107.196 279.268 107.436 277.9C107.676 276.532 107.856 275.164 107.976 273.796L110.496 274.228C110.232 276.124 109.872 278.068 109.416 280.06C108.96 282.028 108.444 283.924 107.868 285.748C107.316 287.572 106.74 289.204 106.14 290.644V290.716C106.14 290.716 106.056 290.764 105.888 290.86C105.72 290.956 105.528 291.076 105.312 291.22C105.12 291.364 104.94 291.52 104.772 291.688C104.628 291.832 104.556 291.976 104.556 292.12ZM104.556 292.12V289.852L105.96 289.132H115.14V291.616H107.04C106.464 291.616 105.936 291.664 105.456 291.76C105 291.856 104.7 291.976 104.556 292.12ZM119.172 282.616H132.492V284.848H119.172V282.616ZM116.94 287.224H124.824V289.384H119.172V306.736H116.94V287.224ZM124.104 287.224H126.372V304.036C126.372 304.612 126.312 305.068 126.192 305.404C126.072 305.764 125.82 306.052 125.436 306.268C125.076 306.436 124.608 306.544 124.032 306.592C123.48 306.64 122.808 306.664 122.016 306.664C121.992 306.352 121.908 305.98 121.764 305.548C121.644 305.116 121.5 304.744 121.332 304.432C121.884 304.456 122.376 304.468 122.808 304.468C123.24 304.468 123.54 304.468 123.708 304.468C123.972 304.444 124.104 304.3 124.104 304.036V287.224ZM118.524 292.228H125.688V294.316H118.524V292.228ZM118.488 297.268H125.652V299.32H118.488V297.268ZM128.424 287.908H130.548V300.94H128.424V287.908ZM132.996 286.576H135.192V303.82C135.192 304.468 135.108 304.96 134.94 305.296C134.796 305.656 134.496 305.944 134.04 306.16C133.608 306.328 133.032 306.436 132.312 306.484C131.592 306.532 130.692 306.556 129.612 306.556C129.588 306.244 129.504 305.872 129.36 305.44C129.216 305.032 129.06 304.66 128.892 304.324C129.732 304.348 130.476 304.36 131.124 304.36C131.772 304.36 132.216 304.36 132.456 304.36C132.816 304.336 132.996 304.156 132.996 303.82V286.576ZM125.724 273.652L127.92 274.624C127.032 276.016 125.964 277.372 124.716 278.692C123.492 279.988 122.16 281.176 120.72 282.256C119.28 283.336 117.804 284.26 116.292 285.028C116.076 284.716 115.8 284.368 115.464 283.984C115.152 283.6 114.84 283.276 114.528 283.012C115.968 282.316 117.396 281.488 118.812 280.528C120.228 279.544 121.536 278.464 122.736 277.288C123.936 276.112 124.932 274.9 125.724 273.652ZM126.588 275.2C128.004 276.928 129.6 278.368 131.376 279.52C133.176 280.672 135.072 281.68 137.064 282.544C136.752 282.808 136.428 283.132 136.092 283.516C135.756 283.9 135.504 284.284 135.336 284.668C133.248 283.588 131.304 282.376 129.504 281.032C127.704 279.688 126.024 278.032 124.464 276.064L126.588 275.2ZM146.208 275.956H156.396V278.692H146.208V275.956ZM155.028 275.956H157.764C157.764 277.012 157.812 278.26 157.908 279.7C158.004 281.14 158.208 282.688 158.52 284.344C158.832 285.976 159.312 287.68 159.96 289.456C160.608 291.232 161.484 293.008 162.588 294.784C163.692 296.536 165.072 298.24 166.728 299.896C168.408 301.552 170.436 303.076 172.812 304.468C172.62 304.636 172.368 304.852 172.056 305.116C171.768 305.404 171.492 305.692 171.228 305.98C170.988 306.292 170.784 306.556 170.616 306.772C168.216 305.308 166.152 303.7 164.424 301.948C162.72 300.172 161.292 298.324 160.14 296.404C159.012 294.484 158.1 292.564 157.404 290.644C156.732 288.7 156.216 286.828 155.856 285.028C155.52 283.204 155.292 281.512 155.172 279.952C155.076 278.392 155.028 277.06 155.028 275.956ZM153.984 283.012L157.044 283.552C156.18 287.2 155.052 290.488 153.66 293.416C152.292 296.344 150.624 298.924 148.656 301.156C146.712 303.364 144.408 305.248 141.744 306.808C141.6 306.616 141.372 306.388 141.06 306.124C140.772 305.86 140.46 305.584 140.124 305.296C139.812 305.032 139.536 304.816 139.296 304.648C143.304 302.536 146.484 299.68 148.836 296.08C151.188 292.456 152.904 288.1 153.984 283.012ZM178.716 279.556H189.66V303.1H178.716V300.652H187.176V281.968H178.716V279.556ZM177.132 279.556H179.616V305.944H177.132V279.556ZM178.536 289.564H188.472V291.94H178.536V289.564ZM182.64 273.688L185.556 274.192C185.196 275.32 184.8 276.46 184.368 277.612C183.96 278.764 183.576 279.748 183.216 280.564L181.02 280.024C181.236 279.424 181.44 278.752 181.632 278.008C181.848 277.264 182.04 276.508 182.208 275.74C182.4 274.972 182.544 274.288 182.64 273.688ZM194.808 279.448H205.86V281.932H194.808V279.448ZM204.888 279.448H207.444C207.444 279.448 207.444 279.532 207.444 279.7C207.444 279.868 207.444 280.072 207.444 280.312C207.444 280.528 207.432 280.696 207.408 280.816C207.264 284.944 207.12 288.436 206.976 291.292C206.856 294.148 206.7 296.488 206.508 298.312C206.316 300.112 206.088 301.516 205.824 302.524C205.584 303.532 205.284 304.252 204.924 304.684C204.516 305.212 204.084 305.572 203.628 305.764C203.196 305.98 202.656 306.124 202.008 306.196C201.408 306.244 200.616 306.256 199.632 306.232C198.672 306.232 197.676 306.196 196.644 306.124C196.62 305.74 196.524 305.296 196.356 304.792C196.212 304.288 196.008 303.868 195.744 303.532C196.944 303.628 198.024 303.688 198.984 303.712C199.968 303.736 200.676 303.748 201.108 303.748C201.468 303.748 201.756 303.712 201.972 303.64C202.212 303.544 202.44 303.376 202.656 303.136C202.944 302.824 203.196 302.188 203.412 301.228C203.652 300.244 203.856 298.852 204.024 297.052C204.192 295.252 204.348 292.96 204.492 290.176C204.636 287.368 204.768 283.984 204.888 280.024V279.448ZM195.528 273.616L198.12 274.192C197.688 275.992 197.16 277.756 196.536 279.484C195.936 281.188 195.264 282.796 194.52 284.308C193.8 285.82 193.032 287.152 192.216 288.304C192.048 288.16 191.82 287.992 191.532 287.8C191.268 287.584 190.992 287.392 190.704 287.224C190.416 287.032 190.164 286.876 189.948 286.756C190.788 285.676 191.556 284.44 192.252 283.048C192.948 281.632 193.572 280.12 194.124 278.512C194.676 276.904 195.144 275.272 195.528 273.616ZM193.872 288.772L195.996 287.584C196.668 288.424 197.364 289.348 198.084 290.356C198.828 291.364 199.512 292.336 200.136 293.272C200.784 294.208 201.3 295.036 201.684 295.756L199.38 297.196C199.02 296.452 198.528 295.6 197.904 294.64C197.304 293.656 196.644 292.66 195.924 291.652C195.228 290.62 194.544 289.66 193.872 288.772ZM236.1 281.212L238.944 282.076C237.432 286.468 235.488 290.26 233.112 293.452C230.76 296.644 227.928 299.332 224.616 301.516C221.328 303.7 217.5 305.5 213.132 306.916C213.036 306.676 212.88 306.4 212.664 306.088C212.472 305.776 212.256 305.452 212.016 305.116C211.8 304.78 211.596 304.516 211.404 304.324C215.676 303.076 219.408 301.444 222.6 299.428C225.792 297.388 228.504 294.88 230.736 291.904C232.968 288.904 234.756 285.34 236.1 281.212ZM219.72 281.428C221.04 285.268 222.816 288.724 225.048 291.796C227.304 294.844 230.064 297.424 233.328 299.536C236.592 301.648 240.396 303.22 244.74 304.252C244.524 304.444 244.284 304.696 244.02 305.008C243.78 305.344 243.54 305.68 243.3 306.016C243.084 306.352 242.904 306.64 242.76 306.88C238.32 305.728 234.444 304.024 231.132 301.768C227.844 299.488 225.048 296.716 222.744 293.452C220.44 290.164 218.544 286.42 217.056 282.22L219.72 281.428ZM211.8 279.88H244.344V282.508H211.8V279.88ZM226.56 273.76H229.332V281.464H226.56V273.76ZM104.34 325.356H135.732V328.092H104.34V325.356ZM111.504 341.412H128.28V344.148H111.504V341.412ZM118.56 317.796H121.404V350.88H118.56V317.796ZM117.696 326.256L120.144 327.048C119.064 329.592 117.744 332.028 116.184 334.356C114.624 336.66 112.896 338.748 111 340.62C109.104 342.468 107.124 343.992 105.06 345.192C104.916 344.976 104.724 344.736 104.484 344.472C104.244 344.184 104.004 343.908 103.764 343.644C103.548 343.38 103.332 343.152 103.116 342.96C104.628 342.168 106.092 341.184 107.508 340.008C108.948 338.832 110.304 337.512 111.576 336.048C112.872 334.56 114.036 332.988 115.068 331.332C116.1 329.676 116.976 327.984 117.696 326.256ZM122.268 326.364C123.228 328.644 124.464 330.852 125.976 332.988C127.488 335.1 129.18 337.008 131.052 338.712C132.948 340.392 134.928 341.736 136.992 342.744C136.776 342.936 136.536 343.164 136.272 343.428C136.032 343.692 135.792 343.98 135.552 344.292C135.312 344.58 135.108 344.856 134.94 345.12C132.852 343.944 130.848 342.444 128.928 340.62C127.032 338.772 125.316 336.696 123.78 334.392C122.244 332.088 120.948 329.688 119.892 327.192L122.268 326.364ZM157.872 317.832H160.752C160.752 320.568 160.836 323.22 161.004 325.788C161.172 328.332 161.424 330.732 161.76 332.988C162.096 335.244 162.504 337.296 162.984 339.144C163.464 340.992 163.992 342.588 164.568 343.932C165.168 345.252 165.804 346.284 166.476 347.028C167.148 347.748 167.844 348.108 168.564 348.108C169.092 348.108 169.476 347.592 169.716 346.56C169.956 345.528 170.136 343.8 170.256 341.376C170.544 341.688 170.916 341.988 171.372 342.276C171.828 342.564 172.248 342.78 172.632 342.924C172.464 344.988 172.224 346.596 171.912 347.748C171.6 348.9 171.156 349.716 170.58 350.196C170.028 350.676 169.284 350.916 168.348 350.916C167.148 350.916 166.056 350.496 165.072 349.656C164.112 348.816 163.248 347.64 162.48 346.128C161.712 344.616 161.04 342.84 160.464 340.8C159.912 338.736 159.444 336.468 159.06 333.996C158.676 331.524 158.388 328.92 158.196 326.184C158.004 323.448 157.896 320.664 157.872 317.832ZM162.912 319.524L164.496 317.868C165.24 318.18 166.008 318.552 166.8 318.984C167.592 319.416 168.336 319.86 169.032 320.316C169.728 320.772 170.292 321.204 170.724 321.612L169.068 323.484C168.636 323.076 168.072 322.632 167.376 322.152C166.704 321.672 165.972 321.204 165.18 320.748C164.412 320.292 163.656 319.884 162.912 319.524ZM167.592 328.776L170.292 329.424C168.708 334.272 166.56 338.496 163.848 342.096C161.16 345.696 157.932 348.624 154.164 350.88C154.02 350.688 153.816 350.46 153.552 350.196C153.312 349.956 153.06 349.692 152.796 349.404C152.532 349.14 152.292 348.936 152.076 348.792C155.82 346.752 158.988 344.04 161.58 340.656C164.172 337.272 166.176 333.312 167.592 328.776ZM140.448 323.52H171.696V326.184H140.448V323.52ZM140.232 345.624C141.552 345.384 143.076 345.096 144.804 344.76C146.556 344.4 148.404 344.016 150.348 343.608C152.292 343.2 154.236 342.804 156.18 342.42L156.396 344.976C154.548 345.384 152.688 345.792 150.816 346.2C148.944 346.608 147.144 347.004 145.416 347.388C143.712 347.748 142.164 348.084 140.772 348.396L140.232 345.624ZM145.02 331.728V337.992H152.364V331.728H145.02ZM142.5 329.352H154.992V340.332H142.5V329.352ZM175.944 329.316H208.056V331.764H175.944V329.316ZM179.112 322.296H199.992V324.672H179.112V322.296ZM184.98 341.412H201.936V343.572H184.98V341.412ZM184.98 347.352H201.936V349.692H184.98V347.352ZM188.364 317.76H191.028V330.612H188.364V317.76ZM204.132 318.984L206.436 320.244C204.036 323.388 201.264 326.268 198.12 328.884C195 331.5 191.64 333.84 188.04 335.904C184.44 337.968 180.72 339.732 176.88 341.196C176.784 340.98 176.628 340.74 176.412 340.476C176.196 340.188 175.968 339.912 175.728 339.648C175.512 339.36 175.32 339.12 175.152 338.928C179.04 337.584 182.772 335.928 186.348 333.96C189.924 331.992 193.224 329.748 196.248 327.228C199.296 324.708 201.924 321.96 204.132 318.984ZM183.504 335.544H203.628V350.736H200.856V337.848H186.204V350.88H183.504V335.544ZM222.96 322.152L225.444 322.224C225.276 325.92 224.988 329.328 224.58 332.448C224.172 335.544 223.536 338.352 222.672 340.872C221.832 343.368 220.656 345.576 219.144 347.496C219.024 347.352 218.832 347.172 218.568 346.956C218.304 346.74 218.028 346.536 217.74 346.344C217.476 346.152 217.248 345.996 217.056 345.876C218.544 344.172 219.684 342.132 220.476 339.756C221.292 337.38 221.88 334.704 222.24 331.728C222.624 328.752 222.864 325.56 222.96 322.152ZM232.536 322.152L235.02 322.224C234.876 325.968 234.612 329.412 234.228 332.556C233.844 335.676 233.22 338.496 232.356 341.016C231.492 343.512 230.28 345.696 228.72 347.568C228.6 347.424 228.408 347.256 228.144 347.064C227.88 346.848 227.604 346.644 227.316 346.452C227.052 346.236 226.812 346.068 226.596 345.948C228.156 344.244 229.344 342.216 230.16 339.864C230.976 337.488 231.552 334.812 231.888 331.836C232.224 328.86 232.44 325.632 232.536 322.152ZM217.164 329.604L218.64 327.984C219.864 329.112 221.088 330.336 222.312 331.656C223.56 332.976 224.7 334.284 225.732 335.58C226.764 336.852 227.592 338.004 228.216 339.036L226.596 340.944C225.972 339.888 225.144 338.7 224.112 337.38C223.08 336.036 221.952 334.692 220.728 333.348C219.528 331.98 218.34 330.732 217.164 329.604ZM226.992 329.208L228.504 327.588C229.464 328.476 230.436 329.436 231.42 330.468C232.404 331.476 233.352 332.508 234.264 333.564C235.176 334.596 236.004 335.604 236.748 336.588C237.492 337.548 238.116 338.424 238.62 339.216L236.964 341.16C236.46 340.344 235.836 339.432 235.092 338.424C234.348 337.416 233.52 336.372 232.608 335.292C231.72 334.212 230.796 333.156 229.836 332.124C228.876 331.068 227.928 330.096 226.992 329.208ZM213.168 319.92H241.824V322.512H215.796V350.808H213.168V319.92ZM240.384 319.92H243.012V347.388C243.012 348.204 242.892 348.828 242.652 349.26C242.436 349.716 242.064 350.064 241.536 350.304C240.984 350.52 240.24 350.652 239.304 350.7C238.368 350.772 237.132 350.796 235.596 350.772C235.548 350.556 235.464 350.28 235.344 349.944C235.248 349.632 235.14 349.32 235.02 349.008C234.9 348.696 234.78 348.42 234.66 348.18C235.764 348.204 236.772 348.216 237.684 348.216C238.596 348.216 239.208 348.216 239.52 348.216C239.832 348.192 240.048 348.12 240.168 348C240.312 347.904 240.384 347.7 240.384 347.388V319.92ZM126.516 374.216H136.092V376.844H126.516V374.216ZM113.232 390.992H136.632V393.584H113.232V390.992ZM125.58 362.012H128.316V392.324H125.58V362.012ZM117.624 369.644H120.288V392.18H117.624V369.644ZM103.62 370.436H115.788V372.992H103.62V370.436ZM108.552 362.228H111.072V385.268H108.552V362.228ZM103.224 386.132C104.28 385.772 105.48 385.34 106.824 384.836C108.192 384.308 109.632 383.756 111.144 383.18C112.656 382.58 114.168 381.98 115.68 381.38L116.148 383.756C114.108 384.644 112.032 385.532 109.92 386.42C107.808 387.308 105.912 388.1 104.232 388.796L103.224 386.132Z" fill="black"/>
</svg>
