<svg width="352" height="778" viewBox="0 0 352 778" fill="none" xmlns="http://www.w3.org/2000/svg">
<rect width="352" height="778" fill="#EEEFDF"/>
<rect x="11" y="137" width="317" height="77" rx="15" fill="#E8E1C4"/>
<g clip-path="url(#clip0_215_627)">
<path d="M289.5 189.083C297.554 189.083 304.083 182.554 304.083 174.5C304.083 166.446 297.554 159.917 289.5 159.917C281.446 159.917 274.917 166.446 274.917 174.5C274.917 182.554 281.446 189.083 289.5 189.083Z" stroke="#757575" stroke-width="4" stroke-linecap="round" stroke-linejoin="round"/>
<path d="M286.583 168.667L295.333 174.5L286.583 180.333V168.667Z" stroke="#757575" stroke-width="4" stroke-linecap="round" stroke-linejoin="round"/>
</g>
<path d="M76.1 150.92H87.48V152.26H76.1V150.92ZM75.4 158.56H88.16V159.92H75.4V158.56ZM77.06 161.58H86.8V168.54H85.32V162.92H78.5V168.6H77.06V161.58ZM77.78 166.5H85.92V167.82H77.78V166.5ZM80.3 151.44L81.8 151.6C81.6533 152.427 81.4733 153.32 81.26 154.28C81.0467 155.227 80.8333 156.147 80.62 157.04C80.42 157.92 80.24 158.68 80.08 159.32H78.5C78.6467 158.827 78.8 158.253 78.96 157.6C79.1333 156.947 79.3 156.267 79.46 155.56C79.62 154.853 79.7733 154.147 79.92 153.44C80.0667 152.72 80.1933 152.053 80.3 151.44ZM76.82 154.52H85.12V155.82H76.82V154.52ZM84.76 154.52H84.9L85.14 154.44L86.2 154.54C86.1467 155.287 86.0733 156.087 85.98 156.94C85.9 157.793 85.8133 158.573 85.72 159.28L84.3 159.18C84.3667 158.687 84.4267 158.167 84.48 157.62C84.5467 157.06 84.6 156.52 84.64 156C84.6933 155.48 84.7333 155.047 84.76 154.7V154.52ZM70.96 151.66L71.92 150.74C72.28 151.033 72.6533 151.36 73.04 151.72C73.44 152.08 73.8133 152.433 74.16 152.78C74.52 153.127 74.8 153.44 75 153.72L73.98 154.8C73.7667 154.507 73.4933 154.18 73.16 153.82C72.8267 153.447 72.4667 153.073 72.08 152.7C71.6933 152.313 71.32 151.967 70.96 151.66ZM69.9 156.46H73.48V157.92H69.9V156.46ZM72.72 168L72.5 166.6L72.94 165.98L76.48 163.64C76.52 163.827 76.58 164.047 76.66 164.3C76.74 164.54 76.8133 164.74 76.88 164.9C76.04 165.473 75.36 165.947 74.84 166.32C74.3333 166.68 73.9333 166.967 73.64 167.18C73.36 167.393 73.1533 167.553 73.02 167.66C72.9 167.78 72.8 167.893 72.72 168ZM72.72 168C72.68 167.867 72.6133 167.713 72.52 167.54C72.44 167.38 72.3467 167.22 72.24 167.06C72.1333 166.9 72.04 166.767 71.96 166.66C72.1067 166.553 72.26 166.387 72.42 166.16C72.5933 165.92 72.68 165.593 72.68 165.18V156.46H74.08V166.52C74.08 166.52 74.0133 166.573 73.88 166.68C73.7467 166.773 73.5867 166.893 73.4 167.04C73.2133 167.2 73.0533 167.36 72.92 167.52C72.7867 167.693 72.72 167.853 72.72 168ZM91.24 152.02H106.94V153.38H91.24V152.02ZM90.1 156.72H107.92V158.08H90.1V156.72ZM93.78 163.2H104.36V164.4H93.78V163.2ZM93.8 166.58H104.38V167.86H93.8V166.58ZM98.18 150.2H99.74V152.78H98.18V150.2ZM93.04 159.82H105.24V168.56H103.68V161.1H94.52V168.62H93.04V159.82ZM102.7 153.32L104.32 153.72C104.053 154.253 103.773 154.807 103.48 155.38C103.2 155.94 102.933 156.42 102.68 156.82L101.3 156.44C101.46 156.16 101.627 155.84 101.8 155.48C101.973 155.107 102.14 154.733 102.3 154.36C102.46 153.973 102.593 153.627 102.7 153.32ZM94 153.72L95.42 153.4C95.74 153.867 96.02 154.387 96.26 154.96C96.5 155.52 96.66 156.007 96.74 156.42L95.2 156.82C95.12 156.38 94.9667 155.873 94.74 155.3C94.5267 154.713 94.28 154.187 94 153.72ZM116.3 166.42H125.94V167.8H116.3V166.42ZM115.6 152.2H122.94V153.56H115.6V152.2ZM116.5 150.14L118.2 150.46C117.693 151.327 117.087 152.2 116.38 153.08C115.673 153.947 114.86 154.787 113.94 155.6C113.02 156.413 111.98 157.16 110.82 157.84C110.753 157.72 110.653 157.587 110.52 157.44C110.4 157.293 110.273 157.153 110.14 157.02C110.007 156.873 109.88 156.76 109.76 156.68C110.853 156.08 111.833 155.413 112.7 154.68C113.58 153.933 114.333 153.173 114.96 152.4C115.6 151.613 116.113 150.86 116.5 150.14ZM122.44 152.2H122.74L123 152.12L124 152.68C123.4 154.187 122.62 155.567 121.66 156.82C120.7 158.073 119.613 159.193 118.4 160.18C117.2 161.167 115.927 162.027 114.58 162.76C113.247 163.48 111.893 164.06 110.52 164.5C110.467 164.367 110.387 164.213 110.28 164.04C110.187 163.867 110.08 163.7 109.96 163.54C109.853 163.38 109.753 163.253 109.66 163.16C110.953 162.787 112.247 162.267 113.54 161.6C114.833 160.933 116.053 160.14 117.2 159.22C118.36 158.3 119.393 157.273 120.3 156.14C121.22 155.007 121.933 153.787 122.44 152.48V152.2ZM113.12 155.76L114.22 154.82C114.753 155.167 115.3 155.567 115.86 156.02C116.433 156.473 116.967 156.927 117.46 157.38C117.953 157.833 118.353 158.253 118.66 158.64L117.44 159.7C117.16 159.313 116.78 158.887 116.3 158.42C115.82 157.953 115.3 157.487 114.74 157.02C114.18 156.553 113.64 156.133 113.12 155.76ZM125.22 160.08H126.76V168.64H125.22V160.08ZM116.98 160.08H125.98V161.46H116.98V168.6H115.48V161.28L116.68 160.08H116.98ZM133.24 151.86H134.72V168.56H133.24V151.86ZM129.98 155.84H137.22V157.24H129.98V155.84ZM133.32 156.38L134.26 156.78C134.06 157.487 133.813 158.22 133.52 158.98C133.227 159.727 132.907 160.473 132.56 161.22C132.227 161.953 131.867 162.647 131.48 163.3C131.107 163.94 130.727 164.487 130.34 164.94C130.26 164.74 130.14 164.507 129.98 164.24C129.833 163.973 129.693 163.747 129.56 163.56C129.933 163.16 130.3 162.68 130.66 162.12C131.02 161.56 131.367 160.953 131.7 160.3C132.047 159.647 132.36 158.987 132.64 158.32C132.92 157.64 133.147 156.993 133.32 156.38ZM136.22 150.48L137.26 151.64C136.647 151.88 135.947 152.107 135.16 152.32C134.373 152.533 133.56 152.72 132.72 152.88C131.893 153.027 131.087 153.153 130.3 153.26C130.273 153.1 130.213 152.913 130.12 152.7C130.027 152.473 129.94 152.28 129.86 152.12C130.607 151.987 131.373 151.84 132.16 151.68C132.96 151.52 133.713 151.34 134.42 151.14C135.127 150.927 135.727 150.707 136.22 150.48ZM134.64 158.4C134.773 158.52 134.967 158.713 135.22 158.98C135.487 159.233 135.773 159.513 136.08 159.82C136.387 160.113 136.66 160.393 136.9 160.66C137.153 160.927 137.333 161.12 137.44 161.24L136.54 162.42C136.42 162.22 136.247 161.967 136.02 161.66C135.807 161.353 135.567 161.027 135.3 160.68C135.033 160.333 134.78 160.013 134.54 159.72C134.3 159.427 134.1 159.193 133.94 159.02L134.64 158.4ZM139.66 150.24L141.12 150.52C140.88 151.547 140.587 152.547 140.24 153.52C139.907 154.493 139.527 155.4 139.1 156.24C138.687 157.08 138.24 157.82 137.76 158.46C137.667 158.38 137.54 158.293 137.38 158.2C137.22 158.093 137.053 157.993 136.88 157.9C136.72 157.793 136.573 157.713 136.44 157.66C136.947 157.06 137.4 156.367 137.8 155.58C138.213 154.793 138.573 153.947 138.88 153.04C139.2 152.12 139.46 151.187 139.66 150.24ZM139.34 158.16L140.8 158.44C140.613 159.32 140.387 160.187 140.12 161.04C139.853 161.893 139.547 162.693 139.2 163.44C138.867 164.173 138.507 164.82 138.12 165.38C138.027 165.313 137.9 165.227 137.74 165.12C137.593 165.013 137.44 164.913 137.28 164.82C137.12 164.727 136.98 164.647 136.86 164.58C137.447 163.793 137.947 162.833 138.36 161.7C138.787 160.553 139.113 159.373 139.34 158.16ZM139.48 153.74H148.1V155.14H138.98L139.48 153.74ZM142.2 154.28H143.68V166.72C143.68 167.147 143.627 167.48 143.52 167.72C143.413 167.96 143.22 168.147 142.94 168.28C142.673 168.4 142.32 168.473 141.88 168.5C141.453 168.54 140.927 168.56 140.3 168.56C140.26 168.36 140.187 168.107 140.08 167.8C139.987 167.507 139.88 167.26 139.76 167.06C140.24 167.073 140.673 167.08 141.06 167.08C141.46 167.08 141.727 167.08 141.86 167.08C141.98 167.067 142.067 167.04 142.12 167C142.173 166.947 142.2 166.853 142.2 166.72V154.28ZM145.02 158.4L146.34 158C146.633 158.72 146.913 159.487 147.18 160.3C147.46 161.113 147.707 161.913 147.92 162.7C148.133 163.473 148.287 164.167 148.38 164.78L146.98 165.2C146.887 164.587 146.74 163.887 146.54 163.1C146.34 162.313 146.107 161.513 145.84 160.7C145.573 159.873 145.3 159.107 145.02 158.4Z" fill="black"/>
<path d="M74.68 180.136H83.784V181.208H74.68V180.136ZM74.12 186.248H84.328V187.336H74.12V186.248ZM75.448 188.664H83.24V194.232H82.056V189.736H76.6V194.28H75.448V188.664ZM76.024 192.6H82.536V193.656H76.024V192.6ZM78.04 180.552L79.24 180.68C79.1227 181.341 78.9787 182.056 78.808 182.824C78.6373 183.581 78.4667 184.317 78.296 185.032C78.136 185.736 77.992 186.344 77.864 186.856H76.6C76.7173 186.461 76.84 186.003 76.968 185.48C77.1067 184.957 77.24 184.413 77.368 183.848C77.496 183.283 77.6187 182.717 77.736 182.152C77.8533 181.576 77.9547 181.043 78.04 180.552ZM75.256 183.016H81.896V184.056H75.256V183.016ZM81.608 183.016H81.72L81.912 182.952L82.76 183.032C82.7173 183.629 82.6587 184.269 82.584 184.952C82.52 185.635 82.4507 186.259 82.376 186.824L81.24 186.744C81.2933 186.349 81.3413 185.933 81.384 185.496C81.4373 185.048 81.48 184.616 81.512 184.2C81.5547 183.784 81.5867 183.437 81.608 183.16V183.016ZM70.568 180.728L71.336 179.992C71.624 180.227 71.9227 180.488 72.232 180.776C72.552 181.064 72.8507 181.347 73.128 181.624C73.416 181.901 73.64 182.152 73.8 182.376L72.984 183.24C72.8133 183.005 72.5947 182.744 72.328 182.456C72.0613 182.157 71.7733 181.859 71.464 181.56C71.1547 181.251 70.856 180.973 70.568 180.728ZM69.72 184.568H72.584V185.736H69.72V184.568ZM71.976 193.8L71.8 192.68L72.152 192.184L74.984 190.312C75.016 190.461 75.064 190.637 75.128 190.84C75.192 191.032 75.2507 191.192 75.304 191.32C74.632 191.779 74.088 192.157 73.672 192.456C73.2667 192.744 72.9467 192.973 72.712 193.144C72.488 193.315 72.3227 193.443 72.216 193.528C72.12 193.624 72.04 193.715 71.976 193.8ZM71.976 193.8C71.944 193.693 71.8907 193.571 71.816 193.432C71.752 193.304 71.6773 193.176 71.592 193.048C71.5067 192.92 71.432 192.813 71.368 192.728C71.4853 192.643 71.608 192.509 71.736 192.328C71.8747 192.136 71.944 191.875 71.944 191.544V184.568H73.064V192.616C73.064 192.616 73.0107 192.659 72.904 192.744C72.7973 192.819 72.6693 192.915 72.52 193.032C72.3707 193.16 72.2427 193.288 72.136 193.416C72.0293 193.555 71.976 193.683 71.976 193.8ZM88.808 192.568H97.272V193.592H88.808V192.568ZM88.344 187.016H97.672V188.024H88.344V187.016ZM88.344 184.84H97.672V185.832H88.344V184.84ZM85.864 182.616H100.216V183.656H85.864V182.616ZM88.584 180.44H97.448V181.432H88.584V180.44ZM88.152 189.24H97.88V194.216H96.664V190.264H89.336V194.264H88.152V189.24ZM107.48 180.312H114.872V181.304H107.48V180.312ZM107.288 184.76H115.16V185.752H107.288V184.76ZM107.288 186.984H115.128V187.976H107.288V186.984ZM107.752 192.52H114.68V193.528H107.752V192.52ZM105.976 182.536H116.392V183.544H105.976V182.536ZM107.128 189.208H115.304V194.232H114.104V190.184H108.28V194.28H107.128V189.208ZM105.432 179.608L106.552 179.96C106.189 180.856 105.763 181.741 105.272 182.616C104.792 183.491 104.269 184.312 103.704 185.08C103.149 185.848 102.579 186.531 101.992 187.128C101.949 187.032 101.885 186.909 101.8 186.76C101.725 186.611 101.645 186.461 101.56 186.312C101.475 186.163 101.395 186.04 101.32 185.944C101.853 185.432 102.376 184.84 102.888 184.168C103.4 183.485 103.875 182.76 104.312 181.992C104.749 181.213 105.123 180.419 105.432 179.608ZM103.768 183.736L104.888 182.6L104.92 182.616V194.232H103.768V183.736ZM121.784 189.976H122.968V192.616C122.968 192.819 123.027 192.947 123.144 193C123.261 193.064 123.539 193.096 123.976 193.096C124.083 193.096 124.264 193.096 124.52 193.096C124.787 193.096 125.08 193.096 125.4 193.096C125.72 193.096 126.019 193.096 126.296 193.096C126.573 193.096 126.781 193.096 126.92 193.096C127.155 193.096 127.325 193.064 127.432 193C127.549 192.925 127.629 192.776 127.672 192.552C127.725 192.328 127.763 191.997 127.784 191.56C127.88 191.613 127.987 191.672 128.104 191.736C128.232 191.789 128.365 191.837 128.504 191.88C128.643 191.923 128.765 191.96 128.872 191.992C128.819 192.589 128.733 193.043 128.616 193.352C128.499 193.672 128.312 193.891 128.056 194.008C127.811 194.125 127.469 194.184 127.032 194.184C126.947 194.184 126.797 194.184 126.584 194.184C126.381 194.184 126.141 194.184 125.864 194.184C125.587 194.184 125.309 194.184 125.032 194.184C124.765 194.184 124.525 194.184 124.312 194.184C124.109 194.184 123.971 194.184 123.896 194.184C123.341 194.184 122.909 194.141 122.6 194.056C122.301 193.971 122.088 193.811 121.96 193.576C121.843 193.352 121.784 193.032 121.784 192.616V189.976ZM123.432 189.4L124.312 188.792C124.632 188.995 124.952 189.229 125.272 189.496C125.592 189.752 125.885 190.013 126.152 190.28C126.419 190.547 126.632 190.803 126.792 191.048L125.864 191.736C125.704 191.491 125.496 191.235 125.24 190.968C124.984 190.691 124.696 190.413 124.376 190.136C124.067 189.859 123.752 189.613 123.432 189.4ZM128.6 190.28L129.56 189.672C129.955 189.992 130.344 190.355 130.728 190.76C131.112 191.155 131.459 191.555 131.768 191.96C132.088 192.355 132.333 192.728 132.504 193.08L131.464 193.752C131.304 193.411 131.069 193.037 130.76 192.632C130.461 192.227 130.125 191.816 129.752 191.4C129.379 190.984 128.995 190.611 128.6 190.28ZM119.608 189.848L120.664 190.232C120.461 190.851 120.195 191.48 119.864 192.12C119.533 192.76 119.107 193.304 118.584 193.752L117.592 193.048C118.093 192.675 118.509 192.195 118.84 191.608C119.171 191.011 119.427 190.424 119.608 189.848ZM121.352 184.056V185.368H128.824V184.056H121.352ZM121.352 186.312V187.624H128.824V186.312H121.352ZM121.352 181.832V183.128H128.824V181.832H121.352ZM120.184 180.872H130.04V188.6H120.184V180.872ZM124.44 179.4L125.848 179.64C125.688 179.971 125.517 180.296 125.336 180.616C125.165 180.925 125.011 181.197 124.872 181.432L123.8 181.16C123.917 180.904 124.035 180.611 124.152 180.28C124.28 179.939 124.376 179.645 124.44 179.4Z" fill="black"/>
<path d="M45.25 169.75C45.25 165.201 41.5487 161.5 37 161.5C32.4513 161.5 28.75 165.201 28.75 169.75C28.75 174.048 32.0553 177.585 36.2575 177.963C36.2568 177.976 36.25 177.986 36.25 178V179.5H33.25C32.836 179.5 32.5 179.835 32.5 180.25C32.5 180.665 32.836 181 33.25 181H36.25V181.75C36.25 182.165 36.586 182.5 37 182.5C37.414 182.5 37.75 182.165 37.75 181.75V181H40.75C41.1648 181 41.5 180.665 41.5 180.25C41.5 179.835 41.1648 179.5 40.75 179.5H37.75V178C37.75 177.986 37.7432 177.976 37.7425 177.963C41.9447 177.585 45.25 174.048 45.25 169.75ZM37 176.5C33.2785 176.5 30.25 173.472 30.25 169.75C30.25 166.029 33.2785 163 37 163C40.7222 163 43.75 166.029 43.75 169.75C43.75 173.472 40.7222 176.5 37 176.5Z" fill="#5E6570"/>
<rect x="11" y="355" width="317" height="77" rx="15" fill="#E8E1C4"/>
<g clip-path="url(#clip1_215_627)">
<path d="M289.5 407.083C297.554 407.083 304.083 400.554 304.083 392.5C304.083 384.446 297.554 377.917 289.5 377.917C281.446 377.917 274.917 384.446 274.917 392.5C274.917 400.554 281.446 407.083 289.5 407.083Z" stroke="#757575" stroke-width="4" stroke-linecap="round" stroke-linejoin="round"/>
<path d="M286.583 386.667L295.333 392.5L286.583 398.333V386.667Z" stroke="#757575" stroke-width="4" stroke-linecap="round" stroke-linejoin="round"/>
</g>
<path d="M76.1 368.92H87.48V370.26H76.1V368.92ZM75.4 376.56H88.16V377.92H75.4V376.56ZM77.06 379.58H86.8V386.54H85.32V380.92H78.5V386.6H77.06V379.58ZM77.78 384.5H85.92V385.82H77.78V384.5ZM80.3 369.44L81.8 369.6C81.6533 370.427 81.4733 371.32 81.26 372.28C81.0467 373.227 80.8333 374.147 80.62 375.04C80.42 375.92 80.24 376.68 80.08 377.32H78.5C78.6467 376.827 78.8 376.253 78.96 375.6C79.1333 374.947 79.3 374.267 79.46 373.56C79.62 372.853 79.7733 372.147 79.92 371.44C80.0667 370.72 80.1933 370.053 80.3 369.44ZM76.82 372.52H85.12V373.82H76.82V372.52ZM84.76 372.52H84.9L85.14 372.44L86.2 372.54C86.1467 373.287 86.0733 374.087 85.98 374.94C85.9 375.793 85.8133 376.573 85.72 377.28L84.3 377.18C84.3667 376.687 84.4267 376.167 84.48 375.62C84.5467 375.06 84.6 374.52 84.64 374C84.6933 373.48 84.7333 373.047 84.76 372.7V372.52ZM70.96 369.66L71.92 368.74C72.28 369.033 72.6533 369.36 73.04 369.72C73.44 370.08 73.8133 370.433 74.16 370.78C74.52 371.127 74.8 371.44 75 371.72L73.98 372.8C73.7667 372.507 73.4933 372.18 73.16 371.82C72.8267 371.447 72.4667 371.073 72.08 370.7C71.6933 370.313 71.32 369.967 70.96 369.66ZM69.9 374.46H73.48V375.92H69.9V374.46ZM72.72 386L72.5 384.6L72.94 383.98L76.48 381.64C76.52 381.827 76.58 382.047 76.66 382.3C76.74 382.54 76.8133 382.74 76.88 382.9C76.04 383.473 75.36 383.947 74.84 384.32C74.3333 384.68 73.9333 384.967 73.64 385.18C73.36 385.393 73.1533 385.553 73.02 385.66C72.9 385.78 72.8 385.893 72.72 386ZM72.72 386C72.68 385.867 72.6133 385.713 72.52 385.54C72.44 385.38 72.3467 385.22 72.24 385.06C72.1333 384.9 72.04 384.767 71.96 384.66C72.1067 384.553 72.26 384.387 72.42 384.16C72.5933 383.92 72.68 383.593 72.68 383.18V374.46H74.08V384.52C74.08 384.52 74.0133 384.573 73.88 384.68C73.7467 384.773 73.5867 384.893 73.4 385.04C73.2133 385.2 73.0533 385.36 72.92 385.52C72.7867 385.693 72.72 385.853 72.72 386ZM91.24 370.02H106.94V371.38H91.24V370.02ZM90.1 374.72H107.92V376.08H90.1V374.72ZM93.78 381.2H104.36V382.4H93.78V381.2ZM93.8 384.58H104.38V385.86H93.8V384.58ZM98.18 368.2H99.74V370.78H98.18V368.2ZM93.04 377.82H105.24V386.56H103.68V379.1H94.52V386.62H93.04V377.82ZM102.7 371.32L104.32 371.72C104.053 372.253 103.773 372.807 103.48 373.38C103.2 373.94 102.933 374.42 102.68 374.82L101.3 374.44C101.46 374.16 101.627 373.84 101.8 373.48C101.973 373.107 102.14 372.733 102.3 372.36C102.46 371.973 102.593 371.627 102.7 371.32ZM94 371.72L95.42 371.4C95.74 371.867 96.02 372.387 96.26 372.96C96.5 373.52 96.66 374.007 96.74 374.42L95.2 374.82C95.12 374.38 94.9667 373.873 94.74 373.3C94.5267 372.713 94.28 372.187 94 371.72ZM116.3 384.42H125.94V385.8H116.3V384.42ZM115.6 370.2H122.94V371.56H115.6V370.2ZM116.5 368.14L118.2 368.46C117.693 369.327 117.087 370.2 116.38 371.08C115.673 371.947 114.86 372.787 113.94 373.6C113.02 374.413 111.98 375.16 110.82 375.84C110.753 375.72 110.653 375.587 110.52 375.44C110.4 375.293 110.273 375.153 110.14 375.02C110.007 374.873 109.88 374.76 109.76 374.68C110.853 374.08 111.833 373.413 112.7 372.68C113.58 371.933 114.333 371.173 114.96 370.4C115.6 369.613 116.113 368.86 116.5 368.14ZM122.44 370.2H122.74L123 370.12L124 370.68C123.4 372.187 122.62 373.567 121.66 374.82C120.7 376.073 119.613 377.193 118.4 378.18C117.2 379.167 115.927 380.027 114.58 380.76C113.247 381.48 111.893 382.06 110.52 382.5C110.467 382.367 110.387 382.213 110.28 382.04C110.187 381.867 110.08 381.7 109.96 381.54C109.853 381.38 109.753 381.253 109.66 381.16C110.953 380.787 112.247 380.267 113.54 379.6C114.833 378.933 116.053 378.14 117.2 377.22C118.36 376.3 119.393 375.273 120.3 374.14C121.22 373.007 121.933 371.787 122.44 370.48V370.2ZM113.12 373.76L114.22 372.82C114.753 373.167 115.3 373.567 115.86 374.02C116.433 374.473 116.967 374.927 117.46 375.38C117.953 375.833 118.353 376.253 118.66 376.64L117.44 377.7C117.16 377.313 116.78 376.887 116.3 376.42C115.82 375.953 115.3 375.487 114.74 375.02C114.18 374.553 113.64 374.133 113.12 373.76ZM125.22 378.08H126.76V386.64H125.22V378.08ZM116.98 378.08H125.98V379.46H116.98V386.6H115.48V379.28L116.68 378.08H116.98ZM133.24 369.86H134.72V386.56H133.24V369.86ZM129.98 373.84H137.22V375.24H129.98V373.84ZM133.32 374.38L134.26 374.78C134.06 375.487 133.813 376.22 133.52 376.98C133.227 377.727 132.907 378.473 132.56 379.22C132.227 379.953 131.867 380.647 131.48 381.3C131.107 381.94 130.727 382.487 130.34 382.94C130.26 382.74 130.14 382.507 129.98 382.24C129.833 381.973 129.693 381.747 129.56 381.56C129.933 381.16 130.3 380.68 130.66 380.12C131.02 379.56 131.367 378.953 131.7 378.3C132.047 377.647 132.36 376.987 132.64 376.32C132.92 375.64 133.147 374.993 133.32 374.38ZM136.22 368.48L137.26 369.64C136.647 369.88 135.947 370.107 135.16 370.32C134.373 370.533 133.56 370.72 132.72 370.88C131.893 371.027 131.087 371.153 130.3 371.26C130.273 371.1 130.213 370.913 130.12 370.7C130.027 370.473 129.94 370.28 129.86 370.12C130.607 369.987 131.373 369.84 132.16 369.68C132.96 369.52 133.713 369.34 134.42 369.14C135.127 368.927 135.727 368.707 136.22 368.48ZM134.64 376.4C134.773 376.52 134.967 376.713 135.22 376.98C135.487 377.233 135.773 377.513 136.08 377.82C136.387 378.113 136.66 378.393 136.9 378.66C137.153 378.927 137.333 379.12 137.44 379.24L136.54 380.42C136.42 380.22 136.247 379.967 136.02 379.66C135.807 379.353 135.567 379.027 135.3 378.68C135.033 378.333 134.78 378.013 134.54 377.72C134.3 377.427 134.1 377.193 133.94 377.02L134.64 376.4ZM139.66 368.24L141.12 368.52C140.88 369.547 140.587 370.547 140.24 371.52C139.907 372.493 139.527 373.4 139.1 374.24C138.687 375.08 138.24 375.82 137.76 376.46C137.667 376.38 137.54 376.293 137.38 376.2C137.22 376.093 137.053 375.993 136.88 375.9C136.72 375.793 136.573 375.713 136.44 375.66C136.947 375.06 137.4 374.367 137.8 373.58C138.213 372.793 138.573 371.947 138.88 371.04C139.2 370.12 139.46 369.187 139.66 368.24ZM139.34 376.16L140.8 376.44C140.613 377.32 140.387 378.187 140.12 379.04C139.853 379.893 139.547 380.693 139.2 381.44C138.867 382.173 138.507 382.82 138.12 383.38C138.027 383.313 137.9 383.227 137.74 383.12C137.593 383.013 137.44 382.913 137.28 382.82C137.12 382.727 136.98 382.647 136.86 382.58C137.447 381.793 137.947 380.833 138.36 379.7C138.787 378.553 139.113 377.373 139.34 376.16ZM139.48 371.74H148.1V373.14H138.98L139.48 371.74ZM142.2 372.28H143.68V384.72C143.68 385.147 143.627 385.48 143.52 385.72C143.413 385.96 143.22 386.147 142.94 386.28C142.673 386.4 142.32 386.473 141.88 386.5C141.453 386.54 140.927 386.56 140.3 386.56C140.26 386.36 140.187 386.107 140.08 385.8C139.987 385.507 139.88 385.26 139.76 385.06C140.24 385.073 140.673 385.08 141.06 385.08C141.46 385.08 141.727 385.08 141.86 385.08C141.98 385.067 142.067 385.04 142.12 385C142.173 384.947 142.2 384.853 142.2 384.72V372.28ZM145.02 376.4L146.34 376C146.633 376.72 146.913 377.487 147.18 378.3C147.46 379.113 147.707 379.913 147.92 380.7C148.133 381.473 148.287 382.167 148.38 382.78L146.98 383.2C146.887 382.587 146.74 381.887 146.54 381.1C146.34 380.313 146.107 379.513 145.84 378.7C145.573 377.873 145.3 377.107 145.02 376.4Z" fill="black"/>
<path d="M74.68 398.136H83.784V399.208H74.68V398.136ZM74.12 404.248H84.328V405.336H74.12V404.248ZM75.448 406.664H83.24V412.232H82.056V407.736H76.6V412.28H75.448V406.664ZM76.024 410.6H82.536V411.656H76.024V410.6ZM78.04 398.552L79.24 398.68C79.1227 399.341 78.9787 400.056 78.808 400.824C78.6373 401.581 78.4667 402.317 78.296 403.032C78.136 403.736 77.992 404.344 77.864 404.856H76.6C76.7173 404.461 76.84 404.003 76.968 403.48C77.1067 402.957 77.24 402.413 77.368 401.848C77.496 401.283 77.6187 400.717 77.736 400.152C77.8533 399.576 77.9547 399.043 78.04 398.552ZM75.256 401.016H81.896V402.056H75.256V401.016ZM81.608 401.016H81.72L81.912 400.952L82.76 401.032C82.7173 401.629 82.6587 402.269 82.584 402.952C82.52 403.635 82.4507 404.259 82.376 404.824L81.24 404.744C81.2933 404.349 81.3413 403.933 81.384 403.496C81.4373 403.048 81.48 402.616 81.512 402.2C81.5547 401.784 81.5867 401.437 81.608 401.16V401.016ZM70.568 398.728L71.336 397.992C71.624 398.227 71.9227 398.488 72.232 398.776C72.552 399.064 72.8507 399.347 73.128 399.624C73.416 399.901 73.64 400.152 73.8 400.376L72.984 401.24C72.8133 401.005 72.5947 400.744 72.328 400.456C72.0613 400.157 71.7733 399.859 71.464 399.56C71.1547 399.251 70.856 398.973 70.568 398.728ZM69.72 402.568H72.584V403.736H69.72V402.568ZM71.976 411.8L71.8 410.68L72.152 410.184L74.984 408.312C75.016 408.461 75.064 408.637 75.128 408.84C75.192 409.032 75.2507 409.192 75.304 409.32C74.632 409.779 74.088 410.157 73.672 410.456C73.2667 410.744 72.9467 410.973 72.712 411.144C72.488 411.315 72.3227 411.443 72.216 411.528C72.12 411.624 72.04 411.715 71.976 411.8ZM71.976 411.8C71.944 411.693 71.8907 411.571 71.816 411.432C71.752 411.304 71.6773 411.176 71.592 411.048C71.5067 410.92 71.432 410.813 71.368 410.728C71.4853 410.643 71.608 410.509 71.736 410.328C71.8747 410.136 71.944 409.875 71.944 409.544V402.568H73.064V410.616C73.064 410.616 73.0107 410.659 72.904 410.744C72.7973 410.819 72.6693 410.915 72.52 411.032C72.3707 411.16 72.2427 411.288 72.136 411.416C72.0293 411.555 71.976 411.683 71.976 411.8ZM88.808 410.568H97.272V411.592H88.808V410.568ZM88.344 405.016H97.672V406.024H88.344V405.016ZM88.344 402.84H97.672V403.832H88.344V402.84ZM85.864 400.616H100.216V401.656H85.864V400.616ZM88.584 398.44H97.448V399.432H88.584V398.44ZM88.152 407.24H97.88V412.216H96.664V408.264H89.336V412.264H88.152V407.24ZM107.48 398.312H114.872V399.304H107.48V398.312ZM107.288 402.76H115.16V403.752H107.288V402.76ZM107.288 404.984H115.128V405.976H107.288V404.984ZM107.752 410.52H114.68V411.528H107.752V410.52ZM105.976 400.536H116.392V401.544H105.976V400.536ZM107.128 407.208H115.304V412.232H114.104V408.184H108.28V412.28H107.128V407.208ZM105.432 397.608L106.552 397.96C106.189 398.856 105.763 399.741 105.272 400.616C104.792 401.491 104.269 402.312 103.704 403.08C103.149 403.848 102.579 404.531 101.992 405.128C101.949 405.032 101.885 404.909 101.8 404.76C101.725 404.611 101.645 404.461 101.56 404.312C101.475 404.163 101.395 404.04 101.32 403.944C101.853 403.432 102.376 402.84 102.888 402.168C103.4 401.485 103.875 400.76 104.312 399.992C104.749 399.213 105.123 398.419 105.432 397.608ZM103.768 401.736L104.888 400.6L104.92 400.616V412.232H103.768V401.736ZM121.784 407.976H122.968V410.616C122.968 410.819 123.027 410.947 123.144 411C123.261 411.064 123.539 411.096 123.976 411.096C124.083 411.096 124.264 411.096 124.52 411.096C124.787 411.096 125.08 411.096 125.4 411.096C125.72 411.096 126.019 411.096 126.296 411.096C126.573 411.096 126.781 411.096 126.92 411.096C127.155 411.096 127.325 411.064 127.432 411C127.549 410.925 127.629 410.776 127.672 410.552C127.725 410.328 127.763 409.997 127.784 409.56C127.88 409.613 127.987 409.672 128.104 409.736C128.232 409.789 128.365 409.837 128.504 409.88C128.643 409.923 128.765 409.96 128.872 409.992C128.819 410.589 128.733 411.043 128.616 411.352C128.499 411.672 128.312 411.891 128.056 412.008C127.811 412.125 127.469 412.184 127.032 412.184C126.947 412.184 126.797 412.184 126.584 412.184C126.381 412.184 126.141 412.184 125.864 412.184C125.587 412.184 125.309 412.184 125.032 412.184C124.765 412.184 124.525 412.184 124.312 412.184C124.109 412.184 123.971 412.184 123.896 412.184C123.341 412.184 122.909 412.141 122.6 412.056C122.301 411.971 122.088 411.811 121.96 411.576C121.843 411.352 121.784 411.032 121.784 410.616V407.976ZM123.432 407.4L124.312 406.792C124.632 406.995 124.952 407.229 125.272 407.496C125.592 407.752 125.885 408.013 126.152 408.28C126.419 408.547 126.632 408.803 126.792 409.048L125.864 409.736C125.704 409.491 125.496 409.235 125.24 408.968C124.984 408.691 124.696 408.413 124.376 408.136C124.067 407.859 123.752 407.613 123.432 407.4ZM128.6 408.28L129.56 407.672C129.955 407.992 130.344 408.355 130.728 408.76C131.112 409.155 131.459 409.555 131.768 409.96C132.088 410.355 132.333 410.728 132.504 411.08L131.464 411.752C131.304 411.411 131.069 411.037 130.76 410.632C130.461 410.227 130.125 409.816 129.752 409.4C129.379 408.984 128.995 408.611 128.6 408.28ZM119.608 407.848L120.664 408.232C120.461 408.851 120.195 409.48 119.864 410.12C119.533 410.76 119.107 411.304 118.584 411.752L117.592 411.048C118.093 410.675 118.509 410.195 118.84 409.608C119.171 409.011 119.427 408.424 119.608 407.848ZM121.352 402.056V403.368H128.824V402.056H121.352ZM121.352 404.312V405.624H128.824V404.312H121.352ZM121.352 399.832V401.128H128.824V399.832H121.352ZM120.184 398.872H130.04V406.6H120.184V398.872ZM124.44 397.4L125.848 397.64C125.688 397.971 125.517 398.296 125.336 398.616C125.165 398.925 125.011 399.197 124.872 399.432L123.8 399.16C123.917 398.904 124.035 398.611 124.152 398.28C124.28 397.939 124.376 397.645 124.44 397.4Z" fill="black"/>
<path d="M45.25 387.75C45.25 383.201 41.5487 379.5 37 379.5C32.4513 379.5 28.75 383.201 28.75 387.75C28.75 392.048 32.0553 395.585 36.2575 395.963C36.2568 395.976 36.25 395.986 36.25 396V397.5H33.25C32.836 397.5 32.5 397.835 32.5 398.25C32.5 398.665 32.836 399 33.25 399H36.25V399.75C36.25 400.165 36.586 400.5 37 400.5C37.414 400.5 37.75 400.165 37.75 399.75V399H40.75C41.1648 399 41.5 398.665 41.5 398.25C41.5 397.835 41.1648 397.5 40.75 397.5H37.75V396C37.75 395.986 37.7432 395.976 37.7425 395.963C41.9447 395.585 45.25 392.048 45.25 387.75ZM37 394.5C33.2785 394.5 30.25 391.472 30.25 387.75C30.25 384.029 33.2785 381 37 381C40.7222 381 43.75 384.029 43.75 387.75C43.75 391.472 40.7222 394.5 37 394.5Z" fill="#5E6570"/>
<path d="M312.356 68.2226H312.359V68.2062L312.356 68.2226Z" fill="#272536"/>
<path d="M314.774 57.4999C314.774 47.4226 306.576 39.2257 296.5 39.2257C286.422 39.2257 278.226 47.4226 278.226 57.4999C278.226 67.5766 286.422 75.7742 296.5 75.7742C306.576 75.7742 314.774 67.5766 314.774 57.4999ZM296.5 73.1521C287.871 73.1521 280.848 66.1284 280.848 57.4999C280.848 48.8702 287.871 41.8485 296.5 41.8485C305.129 41.8485 312.151 48.8702 312.151 57.4999C312.151 66.1284 305.129 73.1521 296.5 73.1521Z" fill="#272536"/>
<path d="M303.987 63.223L298.337 57.5556L303.982 51.973C304.495 51.467 304.499 50.64 303.992 50.1275C303.486 49.6144 302.658 49.6105 302.146 50.1178L296.495 55.7069L290.929 50.123C290.419 49.6131 289.593 49.6105 289.082 50.1204C288.572 50.631 288.572 51.4566 289.079 51.9666L294.639 57.5427L289.035 63.0857C288.523 63.593 288.518 64.4175 289.025 64.9301C289.281 65.1889 289.615 65.3183 289.952 65.3183C290.283 65.3183 290.617 65.1915 290.871 64.9417L296.482 59.3909L302.138 65.0672C302.393 65.3221 302.728 65.4503 303.063 65.4503C303.397 65.4503 303.73 65.3221 303.985 65.0698C304.495 64.5613 304.496 63.7354 303.987 63.223Z" fill="#272536"/>
<path d="M43.65 47.88H60.72V49.89H43.65V47.88ZM42.6 59.34H61.74V61.38H42.6V59.34ZM45.09 63.87H59.7V74.31H57.48V65.88H47.25V74.4H45.09V63.87ZM46.17 71.25H58.38V73.23H46.17V71.25ZM49.95 48.66L52.2 48.9C51.98 50.14 51.71 51.48 51.39 52.92C51.07 54.34 50.75 55.72 50.43 57.06C50.13 58.38 49.86 59.52 49.62 60.48H47.25C47.47 59.74 47.7 58.88 47.94 57.9C48.2 56.92 48.45 55.9 48.69 54.84C48.93 53.78 49.16 52.72 49.38 51.66C49.6 50.58 49.79 49.58 49.95 48.66ZM44.73 53.28H57.18V55.23H44.73V53.28ZM56.64 53.28H56.85L57.21 53.16L58.8 53.31C58.72 54.43 58.61 55.63 58.47 56.91C58.35 58.19 58.22 59.36 58.08 60.42L55.95 60.27C56.05 59.53 56.14 58.75 56.22 57.93C56.32 57.09 56.4 56.28 56.46 55.5C56.54 54.72 56.6 54.07 56.64 53.55V53.28ZM35.94 48.99L37.38 47.61C37.92 48.05 38.48 48.54 39.06 49.08C39.66 49.62 40.22 50.15 40.74 50.67C41.28 51.19 41.7 51.66 42 52.08L40.47 53.7C40.15 53.26 39.74 52.77 39.24 52.23C38.74 51.67 38.2 51.11 37.62 50.55C37.04 49.97 36.48 49.45 35.94 48.99ZM34.35 56.19H39.72V58.38H34.35V56.19ZM38.58 73.5L38.25 71.4L38.91 70.47L44.22 66.96C44.28 67.24 44.37 67.57 44.49 67.95C44.61 68.31 44.72 68.61 44.82 68.85C43.56 69.71 42.54 70.42 41.76 70.98C41 71.52 40.4 71.95 39.96 72.27C39.54 72.59 39.23 72.83 39.03 72.99C38.85 73.17 38.7 73.34 38.58 73.5ZM38.58 73.5C38.52 73.3 38.42 73.07 38.28 72.81C38.16 72.57 38.02 72.33 37.86 72.09C37.7 71.85 37.56 71.65 37.44 71.49C37.66 71.33 37.89 71.08 38.13 70.74C38.39 70.38 38.52 69.89 38.52 69.27V56.19H40.62V71.28C40.62 71.28 40.52 71.36 40.32 71.52C40.12 71.66 39.88 71.84 39.6 72.06C39.32 72.3 39.08 72.54 38.88 72.78C38.68 73.04 38.58 73.28 38.58 73.5ZM66.36 49.53H89.91V51.57H66.36V49.53ZM64.65 56.58H91.38V58.62H64.65V56.58ZM70.17 66.3H86.04V68.1H70.17V66.3ZM70.2 71.37H86.07V73.29H70.2V71.37ZM76.77 46.8H79.11V50.67H76.77V46.8ZM69.06 61.23H87.36V74.34H85.02V63.15H71.28V74.43H69.06V61.23ZM83.55 51.48L85.98 52.08C85.58 52.88 85.16 53.71 84.72 54.57C84.3 55.41 83.9 56.13 83.52 56.73L81.45 56.16C81.69 55.74 81.94 55.26 82.2 54.72C82.46 54.16 82.71 53.6 82.95 53.04C83.19 52.46 83.39 51.94 83.55 51.48ZM70.5 52.08L72.63 51.6C73.11 52.3 73.53 53.08 73.89 53.94C74.25 54.78 74.49 55.51 74.61 56.13L72.3 56.73C72.18 56.07 71.95 55.31 71.61 54.45C71.29 53.57 70.92 52.78 70.5 52.08ZM100.8 55.53H120.36V57.57H100.8V55.53ZM99.96 67.68H121.62V69.78H99.96V67.68ZM110.79 59.04H113.01V74.37H110.79V59.04ZM102.75 64.65C102.71 64.49 102.64 64.28 102.54 64.02C102.46 63.74 102.37 63.46 102.27 63.18C102.17 62.9 102.07 62.66 101.97 62.46C102.25 62.4 102.52 62.22 102.78 61.92C103.04 61.6 103.32 61.19 103.62 60.69C103.78 60.47 104.01 60.09 104.31 59.55C104.63 58.99 104.98 58.34 105.36 57.6C105.74 56.84 106.11 56.03 106.47 55.17C106.85 54.31 107.18 53.44 107.46 52.56L109.77 53.37C109.27 54.57 108.71 55.78 108.09 57C107.49 58.2 106.86 59.35 106.2 60.45C105.54 61.53 104.89 62.51 104.25 63.39V63.42C104.25 63.42 104.17 63.46 104.01 63.54C103.87 63.62 103.7 63.73 103.5 63.87C103.3 63.99 103.12 64.12 102.96 64.26C102.82 64.4 102.75 64.53 102.75 64.65ZM102.75 64.65V62.88L104.04 62.19H119.64V64.23H105.57C104.81 64.23 104.18 64.27 103.68 64.35C103.2 64.43 102.89 64.53 102.75 64.65ZM97.74 49.83H121.56V51.96H97.74V49.83ZM96.63 49.83H98.85V58.5C98.85 59.66 98.81 60.93 98.73 62.31C98.67 63.69 98.54 65.11 98.34 66.57C98.14 68.01 97.84 69.41 97.44 70.77C97.04 72.13 96.51 73.39 95.85 74.55C95.73 74.41 95.55 74.25 95.31 74.07C95.07 73.91 94.83 73.75 94.59 73.59C94.35 73.43 94.13 73.32 93.93 73.26C94.55 72.18 95.04 71.02 95.4 69.78C95.76 68.52 96.03 67.23 96.21 65.91C96.39 64.59 96.5 63.3 96.54 62.04C96.6 60.76 96.63 59.58 96.63 58.5V49.83ZM107.07 47.37L109.26 46.8C109.66 47.32 110.04 47.92 110.4 48.6C110.76 49.26 111.02 49.83 111.18 50.31L108.87 51C108.73 50.52 108.49 49.94 108.15 49.26C107.83 48.56 107.47 47.93 107.07 47.37Z" fill="black"/>
<path d="M11 261C11 252.716 17.98 246 26.5902 246H312.41C321.02 246 328 252.716 328 261V308C328 316.284 321.02 323 312.41 323H26.5902C17.98 323 11 316.284 11 308V261Z" fill="#BFBAA4"/>
<path d="M78.6613 259.92H90.4891V261.26H78.6613V259.92ZM77.9338 267.56H91.1958V268.92H77.9338V267.56ZM79.6591 270.58H89.7823V277.54H88.2441V271.92H81.1557V277.6H79.6591V270.58ZM80.4074 275.5H88.8677V276.82H80.4074V275.5ZM83.0266 260.44L84.5856 260.6C84.4331 261.427 84.2461 262.32 84.0243 263.28C83.8026 264.227 83.5809 265.147 83.3592 266.04C83.1513 266.92 82.9642 267.68 82.7979 268.32H81.1557C81.3082 267.827 81.4675 267.253 81.6338 266.6C81.814 265.947 81.9872 265.267 82.1535 264.56C82.3198 263.853 82.4792 263.147 82.6316 262.44C82.784 261.72 82.9157 261.053 83.0266 260.44ZM79.4096 263.52H88.0362V264.82H79.4096V263.52ZM87.662 263.52H87.8075L88.057 263.44L89.1587 263.54C89.1033 264.287 89.027 265.087 88.93 265.94C88.8469 266.793 88.7568 267.573 88.6598 268.28L87.1839 268.18C87.2532 267.687 87.3156 267.167 87.371 266.62C87.4403 266.06 87.4957 265.52 87.5373 265C87.5927 264.48 87.6343 264.047 87.662 263.7V263.52ZM73.3191 260.66L74.3169 259.74C74.691 260.033 75.079 260.36 75.4809 260.72C75.8967 261.08 76.2847 261.433 76.645 261.78C77.0191 262.127 77.3102 262.44 77.518 262.72L76.4579 263.8C76.2362 263.507 75.9521 263.18 75.6056 262.82C75.2592 262.447 74.885 262.073 74.4832 261.7C74.0813 261.313 73.6932 260.967 73.3191 260.66ZM72.2174 265.46H75.9382V266.92H72.2174V265.46ZM75.1483 277L74.9197 275.6L75.377 274.98L79.0563 272.64C79.0978 272.827 79.1602 273.047 79.2434 273.3C79.3265 273.54 79.4027 273.74 79.472 273.9C78.599 274.473 77.8922 274.947 77.3517 275.32C76.8251 275.68 76.4094 275.967 76.1045 276.18C75.8135 276.393 75.5987 276.553 75.4601 276.66C75.3354 276.78 75.2315 276.893 75.1483 277ZM75.1483 277C75.1068 276.867 75.0375 276.713 74.9405 276.54C74.8573 276.38 74.7603 276.22 74.6494 276.06C74.5386 275.9 74.4416 275.767 74.3584 275.66C74.5109 275.553 74.6702 275.387 74.8365 275.16C75.0167 274.92 75.1068 274.593 75.1068 274.18V265.46H76.5618V275.52C76.5618 275.52 76.4926 275.573 76.354 275.68C76.2154 275.773 76.0491 275.893 75.8551 276.04C75.6611 276.2 75.4948 276.36 75.3562 276.52C75.2176 276.693 75.1483 276.853 75.1483 277Z" fill="black"/>
<path d="M94.397 261.02H110.715V262.38H94.397V261.02ZM93.2121 265.72H111.733V267.08H93.2121V265.72ZM97.0369 272.2H108.033V273.4H97.0369V272.2ZM97.0577 275.58H108.054V276.86H97.0577V275.58ZM101.61 259.2H103.231V261.78H101.61V259.2ZM96.2678 268.82H108.948V277.56H107.326V270.1H97.806V277.62H96.2678V268.82ZM106.308 262.32L107.992 262.72C107.714 263.253 107.423 263.807 107.119 264.38C106.828 264.94 106.55 265.42 106.287 265.82L104.853 265.44C105.019 265.16 105.192 264.84 105.372 264.48C105.553 264.107 105.726 263.733 105.892 263.36C106.058 262.973 106.197 262.627 106.308 262.32ZM97.2656 262.72L98.7414 262.4C99.074 262.867 99.3651 263.387 99.6145 263.96C99.8639 264.52 100.03 265.007 100.113 265.42L98.5128 265.82C98.4296 265.38 98.2703 264.873 98.0347 264.3C97.813 263.713 97.5566 263.187 97.2656 262.72Z" fill="black"/>
<path d="M120.443 275.42H130.462V276.8H120.443V275.42ZM119.715 261.2H127.344V262.56H119.715V261.2ZM120.651 259.14L122.418 259.46C121.891 260.327 121.261 261.2 120.526 262.08C119.792 262.947 118.946 263.787 117.99 264.6C117.034 265.413 115.953 266.16 114.747 266.84C114.678 266.72 114.574 266.587 114.436 266.44C114.311 266.293 114.179 266.153 114.041 266.02C113.902 265.873 113.77 265.76 113.646 265.68C114.782 265.08 115.801 264.413 116.701 263.68C117.616 262.933 118.399 262.173 119.05 261.4C119.715 260.613 120.249 259.86 120.651 259.14ZM126.825 261.2H127.136L127.407 261.12L128.446 261.68C127.822 263.187 127.012 264.567 126.014 265.82C125.016 267.073 123.887 268.193 122.626 269.18C121.378 270.167 120.055 271.027 118.655 271.76C117.269 272.48 115.863 273.06 114.436 273.5C114.38 273.367 114.297 273.213 114.186 273.04C114.089 272.867 113.978 272.7 113.854 272.54C113.743 272.38 113.639 272.253 113.542 272.16C114.886 271.787 116.23 271.267 117.574 270.6C118.919 269.933 120.187 269.14 121.378 268.22C122.584 267.3 123.658 266.273 124.6 265.14C125.557 264.007 126.298 262.787 126.825 261.48V261.2ZM117.138 264.76L118.281 263.82C118.835 264.167 119.404 264.567 119.986 265.02C120.582 265.473 121.136 265.927 121.649 266.38C122.161 266.833 122.577 267.253 122.896 267.64L121.628 268.7C121.337 268.313 120.942 267.887 120.443 267.42C119.944 266.953 119.404 266.487 118.822 266.02C118.24 265.553 117.678 265.133 117.138 264.76ZM129.714 269.08H131.314V277.64H129.714V269.08ZM130.504 269.08V270.46H121.15V277.6H119.591V270.28L120.838 269.08H130.504Z" fill="black"/>
<path d="M138.049 260.86H139.588V277.56H138.049V260.86ZM134.661 264.84H142.186V266.24H134.661V264.84ZM138.133 265.38L139.11 265.78C138.902 266.487 138.645 267.22 138.34 267.98C138.036 268.727 137.703 269.473 137.343 270.22C136.996 270.953 136.622 271.647 136.22 272.3C135.832 272.94 135.437 273.487 135.035 273.94C134.952 273.74 134.827 273.507 134.661 273.24C134.509 272.973 134.363 272.747 134.225 272.56C134.613 272.16 134.994 271.68 135.368 271.12C135.742 270.56 136.102 269.953 136.449 269.3C136.809 268.647 137.135 267.987 137.426 267.32C137.717 266.64 137.952 265.993 138.133 265.38ZM141.147 259.48L142.228 260.64C141.59 260.88 140.863 261.107 140.045 261.32C139.227 261.533 138.382 261.72 137.509 261.88C136.65 262.027 135.811 262.153 134.994 262.26C134.966 262.1 134.904 261.913 134.807 261.7C134.71 261.473 134.62 261.28 134.536 261.12C135.313 260.987 136.109 260.84 136.927 260.68C137.758 260.52 138.541 260.34 139.276 260.14C140.01 259.927 140.634 259.707 141.147 259.48ZM139.505 267.4C139.643 267.52 139.844 267.713 140.107 267.98C140.385 268.233 140.682 268.513 141.001 268.82C141.32 269.113 141.604 269.393 141.853 269.66C142.117 269.927 142.304 270.12 142.415 270.24L141.479 271.42C141.355 271.22 141.174 270.967 140.939 270.66C140.717 270.353 140.468 270.027 140.191 269.68C139.913 269.333 139.65 269.013 139.401 268.72C139.151 268.427 138.943 268.193 138.777 268.02L139.505 267.4ZM144.722 259.24L146.239 259.52C145.99 260.547 145.685 261.547 145.325 262.52C144.978 263.493 144.583 264.4 144.14 265.24C143.71 266.08 143.246 266.82 142.747 267.46C142.65 267.38 142.519 267.293 142.352 267.2C142.186 267.093 142.013 266.993 141.833 266.9C141.666 266.793 141.514 266.713 141.375 266.66C141.902 266.06 142.373 265.367 142.789 264.58C143.218 263.793 143.593 262.947 143.911 262.04C144.244 261.12 144.514 260.187 144.722 259.24ZM144.389 267.16L145.907 267.44C145.713 268.32 145.477 269.187 145.2 270.04C144.923 270.893 144.604 271.693 144.244 272.44C143.897 273.173 143.523 273.82 143.121 274.38C143.024 274.313 142.893 274.227 142.727 274.12C142.574 274.013 142.415 273.913 142.248 273.82C142.082 273.727 141.937 273.647 141.812 273.58C142.422 272.793 142.941 271.833 143.371 270.7C143.814 269.553 144.154 268.373 144.389 267.16ZM144.535 262.74H153.494V264.14H144.015L144.535 262.74ZM147.362 263.28H148.9V275.72C148.9 276.147 148.845 276.48 148.734 276.72C148.623 276.96 148.422 277.147 148.131 277.28C147.854 277.4 147.487 277.473 147.029 277.5C146.586 277.54 146.039 277.56 145.387 277.56C145.346 277.36 145.269 277.107 145.159 276.8C145.062 276.507 144.951 276.26 144.826 276.06C145.325 276.073 145.775 276.08 146.177 276.08C146.593 276.08 146.87 276.08 147.009 276.08C147.133 276.067 147.223 276.04 147.279 276C147.334 275.947 147.362 275.853 147.362 275.72V263.28ZM150.293 267.4L151.665 267C151.97 267.72 152.261 268.487 152.538 269.3C152.829 270.113 153.085 270.913 153.307 271.7C153.529 272.473 153.688 273.167 153.785 273.78L152.33 274.2C152.233 273.587 152.081 272.887 151.873 272.1C151.665 271.313 151.422 270.513 151.145 269.7C150.868 268.873 150.584 268.107 150.293 267.4Z" fill="black"/>
<path d="M77.1854 289.136H86.6476V290.208H77.1854V289.136ZM76.6034 295.248H87.213V296.336H76.6034V295.248ZM77.9837 297.664H86.0822V303.232H84.8516V298.736H79.181V303.28H77.9837V297.664ZM78.5823 301.6H85.3505V302.656H78.5823V301.6ZM80.6776 289.552L81.9249 289.68C81.8029 290.341 81.6532 291.056 81.4759 291.824C81.2985 292.581 81.1211 293.317 80.9437 294.032C80.7774 294.736 80.6278 295.344 80.4947 295.856H79.181C79.3029 295.461 79.4304 295.003 79.5635 294.48C79.7076 293.957 79.8462 293.413 79.9792 292.848C80.1122 292.283 80.2397 291.717 80.3617 291.152C80.4836 290.576 80.589 290.043 80.6776 289.552ZM77.7841 292.016H84.6854V293.056H77.7841V292.016ZM84.386 292.016H84.5024L84.702 291.952L85.5834 292.032C85.539 292.629 85.478 293.269 85.4004 293.952C85.3339 294.635 85.2618 295.259 85.1842 295.824L84.0035 295.744C84.059 295.349 84.1089 294.933 84.1532 294.496C84.2086 294.048 84.253 293.616 84.2862 293.2C84.3306 292.784 84.3639 292.437 84.386 292.16V292.016ZM72.9117 289.728L73.7099 288.992C74.0092 289.227 74.3196 289.488 74.6411 289.776C74.9737 290.064 75.2841 290.347 75.5724 290.624C75.8717 290.901 76.1045 291.152 76.2708 291.376L75.4227 292.24C75.2453 292.005 75.0181 291.744 74.7409 291.456C74.4637 291.157 74.1644 290.859 73.8429 290.56C73.5214 290.251 73.211 289.973 72.9117 289.728ZM72.0303 293.568H75.007V294.736H72.0303V293.568ZM74.3751 302.8L74.1921 301.68L74.558 301.184L77.5014 299.312C77.5347 299.461 77.5845 299.637 77.6511 299.84C77.7176 300.032 77.7786 300.192 77.834 300.32C77.1356 300.779 76.5702 301.157 76.1378 301.456C75.7165 301.744 75.3839 301.973 75.14 302.144C74.9072 302.315 74.7354 302.443 74.6245 302.528C74.5247 302.624 74.4416 302.715 74.3751 302.8ZM74.3751 302.8C74.3418 302.693 74.2864 302.571 74.2088 302.432C74.1422 302.304 74.0646 302.176 73.9759 302.048C73.8873 301.92 73.8097 301.813 73.7431 301.728C73.8651 301.643 73.9926 301.509 74.1256 301.328C74.2697 301.136 74.3418 300.875 74.3418 300.544V293.568H75.5059V301.616C75.5059 301.616 75.4504 301.659 75.3396 301.744C75.2287 301.819 75.0957 301.915 74.9405 302.032C74.7853 302.16 74.6522 302.288 74.5414 302.416C74.4305 302.555 74.3751 302.683 74.3751 302.8Z" fill="black"/>
<path d="M91.8693 301.568H100.666V302.592H91.8693V301.568ZM91.387 296.016H101.082V297.024H91.387V296.016ZM91.387 293.84H101.082V294.832H91.387V293.84ZM88.8095 291.616H103.726V292.656H88.8095V291.616ZM91.6365 289.44H100.849V290.432H91.6365V289.44ZM91.1875 298.24H101.298V303.216H100.034V299.264H92.4181V303.264H91.1875V298.24Z" fill="black"/>
<path d="M111.276 289.312H118.959V290.304H111.276V289.312ZM111.076 293.76H119.258V294.752H111.076V293.76ZM111.076 295.984H119.225V296.976H111.076V295.984ZM111.559 301.52H118.759V302.528H111.559V301.52ZM109.713 291.536H120.539V292.544H109.713V291.536ZM110.91 298.208H119.408V303.232H118.161V299.184H112.107V303.28H110.91V298.208ZM109.147 288.608L110.311 288.96C109.934 289.856 109.491 290.741 108.981 291.616C108.482 292.491 107.939 293.312 107.351 294.08C106.775 294.848 106.182 295.531 105.572 296.128C105.528 296.032 105.461 295.909 105.372 295.76C105.295 295.611 105.212 295.461 105.123 295.312C105.034 295.163 104.951 295.04 104.874 294.944C105.428 294.432 105.971 293.84 106.503 293.168C107.035 292.485 107.529 291.76 107.983 290.992C108.438 290.213 108.826 289.419 109.147 288.608ZM107.418 292.736L108.582 291.6L108.615 291.616V303.232H107.418V292.736Z" fill="black"/>
<path d="M126.143 298.976H127.373V301.616C127.373 301.819 127.434 301.947 127.556 302C127.678 302.064 127.966 302.096 128.421 302.096C128.532 302.096 128.72 302.096 128.986 302.096C129.264 302.096 129.568 302.096 129.901 302.096C130.234 302.096 130.544 302.096 130.832 302.096C131.12 302.096 131.337 302.096 131.481 302.096C131.725 302.096 131.902 302.064 132.013 302C132.135 301.925 132.218 301.776 132.262 301.552C132.318 301.328 132.357 300.997 132.379 300.56C132.479 300.613 132.589 300.672 132.711 300.736C132.844 300.789 132.983 300.837 133.127 300.88C133.271 300.923 133.399 300.96 133.51 300.992C133.454 301.589 133.365 302.043 133.244 302.352C133.122 302.672 132.928 302.891 132.661 303.008C132.407 303.125 132.052 303.184 131.597 303.184C131.509 303.184 131.353 303.184 131.132 303.184C130.921 303.184 130.671 303.184 130.383 303.184C130.095 303.184 129.807 303.184 129.519 303.184C129.241 303.184 128.992 303.184 128.77 303.184C128.56 303.184 128.415 303.184 128.338 303.184C127.761 303.184 127.312 303.141 126.991 303.056C126.68 302.971 126.459 302.811 126.326 302.576C126.204 302.352 126.143 302.032 126.143 301.616V298.976ZM127.856 298.4L128.77 297.792C129.103 297.995 129.435 298.229 129.768 298.496C130.101 298.752 130.405 299.013 130.683 299.28C130.96 299.547 131.181 299.803 131.348 300.048L130.383 300.736C130.217 300.491 130.001 300.235 129.735 299.968C129.469 299.691 129.169 299.413 128.837 299.136C128.515 298.859 128.188 298.613 127.856 298.4ZM133.227 299.28L134.225 298.672C134.635 298.992 135.04 299.355 135.439 299.76C135.838 300.155 136.198 300.555 136.52 300.96C136.852 301.355 137.107 301.728 137.284 302.08L136.204 302.752C136.037 302.411 135.793 302.037 135.472 301.632C135.161 301.227 134.812 300.816 134.424 300.4C134.036 299.984 133.637 299.611 133.227 299.28ZM123.881 298.848L124.979 299.232C124.768 299.851 124.491 300.48 124.147 301.12C123.803 301.76 123.36 302.304 122.817 302.752L121.786 302.048C122.307 301.675 122.739 301.195 123.083 300.608C123.427 300.011 123.693 299.424 123.881 298.848ZM125.694 293.056V294.368H133.46V293.056H125.694ZM125.694 295.312V296.624H133.46V295.312H125.694ZM125.694 290.832V292.128H133.46V290.832H125.694ZM124.48 289.872H134.724V297.6H124.48V289.872ZM128.903 288.4L130.367 288.64C130.2 288.971 130.023 289.296 129.834 289.616C129.657 289.925 129.496 290.197 129.352 290.432L128.238 290.16C128.36 289.904 128.482 289.611 128.604 289.28C128.737 288.939 128.837 288.645 128.903 288.4Z" fill="black"/>
<path d="M46.5975 278.75C46.5975 274.201 42.7507 270.5 38.023 270.5C33.2952 270.5 29.4484 274.201 29.4484 278.75C29.4484 283.048 32.8837 286.585 37.2512 286.963C37.2505 286.976 37.2434 286.986 37.2434 287V288.5H34.1254C33.6951 288.5 33.3459 288.835 33.3459 289.25C33.3459 289.665 33.6951 290 34.1254 290H37.2434V290.75C37.2434 291.165 37.5927 291.5 38.023 291.5C38.4532 291.5 38.8025 291.165 38.8025 290.75V290H41.9205C42.3516 290 42.7 289.665 42.7 289.25C42.7 288.835 42.3516 288.5 41.9205 288.5H38.8025V287C38.8025 286.986 38.7954 286.976 38.7947 286.963C43.1623 286.585 46.5975 283.048 46.5975 278.75ZM38.023 285.5C34.155 285.5 31.0074 282.472 31.0074 278.75C31.0074 275.028 34.155 272 38.023 272C41.8917 272 45.0385 275.028 45.0385 278.75C45.0385 282.472 41.8917 285.5 38.023 285.5Z" fill="#5E6570"/>
<g clip-path="url(#clip2_215_627)">
<path d="M291.5 299.083C299.554 299.083 306.083 292.554 306.083 284.5C306.083 276.446 299.554 269.917 291.5 269.917C283.446 269.917 276.917 276.446 276.917 284.5C276.917 292.554 283.446 299.083 291.5 299.083Z" stroke="#757575" stroke-width="4" stroke-linecap="round" stroke-linejoin="round"/>
<path d="M288.583 278.667L297.333 284.5L288.583 290.333V278.667Z" stroke="#757575" stroke-width="4" stroke-linecap="round" stroke-linejoin="round"/>
</g>
<defs>
<clipPath id="clip0_215_627">
<rect width="35" height="35" fill="white" transform="translate(272 157)"/>
</clipPath>
<clipPath id="clip1_215_627">
<rect width="35" height="35" fill="white" transform="translate(272 375)"/>
</clipPath>
<clipPath id="clip2_215_627">
<rect width="35" height="35" fill="white" transform="translate(274 267)"/>
</clipPath>
</defs>
</svg>
